<?xml version="1.0" encoding="UTF-8"?>
<!DOCTYPE svg PUBLIC "-//W3C//DTD SVG 1.0//EN" "http://www.w3.org/TR/2001/REC-SVG-20010904/DTD/svg10.dtd">
<!-- Creator: CorelDRAW -->
<svg xmlns="http://www.w3.org/2000/svg" xml:space="preserve" width="113.718mm" height="78.6912mm" version="1.0" shape-rendering="geometricPrecision" text-rendering="geometricPrecision" image-rendering="optimizeQuality" fill-rule="evenodd" clip-rule="evenodd"
viewBox="0 0 11357.54 7859.27"
 xmlns:xlink="http://www.w3.org/1999/xlink"
 xmlns:xodm="http://www.corel.com/coreldraw/odm/2003">
 <defs>
    <radialGradient id="id0" gradientUnits="userSpaceOnUse" gradientTransform="matrix(1.27564 -0 -0 1.26384 -1056 223)" cx="3830.72" cy="-843.39" r="3223.7" fx="3830.72" fy="-843.39">
     <stop offset="0" stop-opacity="1" stop-color="white"/>
     <stop offset="0.290196" stop-opacity="1" stop-color="#AFAFAF"/>
     <stop offset="0.639216" stop-opacity="1" stop-color="#515151"/>
     <stop offset="0.878431" stop-opacity="1" stop-color="#171717"/>
     <stop offset="1" stop-opacity="1" stop-color="black"/>
    </radialGradient>
    <radialGradient id="id1" gradientUnits="userSpaceOnUse" gradientTransform="matrix(2.42862 -0 -0 2.40616 -9341 -7873)" cx="6538.63" cy="5598.8" r="3223.7" fx="6538.63" fy="5598.8">
     <stop offset="0" stop-opacity="1" stop-color="black"/>
     <stop offset="0.121569" stop-opacity="1" stop-color="#171717"/>
     <stop offset="0.360784" stop-opacity="1" stop-color="#515151"/>
     <stop offset="0.709804" stop-opacity="1" stop-color="#AFAFAF"/>
     <stop offset="1" stop-opacity="1" stop-color="white"/>
    </radialGradient>
    <radialGradient id="id2" gradientUnits="userSpaceOnUse" gradientTransform="matrix(0.876889 -0 -0 0.83997 729 930)" cx="5920.5" cy="5810.79" r="4429.87" fx="5920.5" fy="5810.79">
     <stop offset="0" stop-opacity="1" stop-color="white"/>
     <stop offset="0.290196" stop-opacity="1" stop-color="#AFAFAF"/>
     <stop offset="0.639216" stop-opacity="1" stop-color="#515151"/>
     <stop offset="0.878431" stop-opacity="1" stop-color="#171717"/>
     <stop offset="1" stop-opacity="1" stop-color="black"/>
    </radialGradient>
    <radialGradient id="id3" gradientUnits="userSpaceOnUse" gradientTransform="matrix(1.88948 -0 -0 1.94498 -2427 -2651)" cx="2728.09" cy="2805.34" r="1576.04" fx="2728.09" fy="2805.34">
     <stop offset="0" stop-opacity="1" stop-color="white"/>
     <stop offset="0" stop-opacity="1" stop-color="white"/>
     <stop offset="1" stop-opacity="1" stop-color="black"/>
    </radialGradient>
    <radialGradient id="id4" gradientUnits="userSpaceOnUse" gradientTransform="matrix(0.818689 -0 -0 0.63737 1032 1929)" cx="5690.15" cy="5318.58" r="3210.21" fx="5690.15" fy="5318.58">
     <stop offset="0" stop-opacity="1" stop-color="white"/>
     <stop offset="0.290196" stop-opacity="1" stop-color="#AFAFAF"/>
     <stop offset="0.639216" stop-opacity="1" stop-color="#515151"/>
     <stop offset="0.878431" stop-opacity="1" stop-color="#171717"/>
     <stop offset="1" stop-opacity="1" stop-color="black"/>
    </radialGradient>
    <linearGradient id="id5" gradientUnits="userSpaceOnUse" x1="7934.24" y1="6216.76" x2="13192.85" y2="6216.76">
     <stop offset="0" stop-opacity="1" stop-color="white"/>
     <stop offset="1" stop-opacity="1" stop-color="black"/>
    </linearGradient>
    <linearGradient id="id6" gradientUnits="userSpaceOnUse" x1="4683.94" y1="4679.28" x2="10603.18" y2="4679.28">
     <stop offset="0" stop-opacity="1" stop-color="black"/>
     <stop offset="1" stop-opacity="1" stop-color="white"/>
    </linearGradient>
    <radialGradient id="id7" gradientUnits="userSpaceOnUse" gradientTransform="matrix(1.29832 -0 -0 1.28346 -454 -1438)" cx="1522.84" cy="5071.29" r="976.97" fx="1522.84" fy="5071.29">
     <stop offset="0" stop-opacity="1" stop-color="white"/>
     <stop offset="0.290196" stop-opacity="1" stop-color="#AFAFAF"/>
     <stop offset="0.639216" stop-opacity="1" stop-color="#515151"/>
     <stop offset="0.878431" stop-opacity="1" stop-color="#171717"/>
     <stop offset="1" stop-opacity="1" stop-color="black"/>
    </radialGradient>
    <radialGradient id="id8" gradientUnits="userSpaceOnUse" gradientTransform="matrix(1.12387 -0 -0 0.848066 -815 908)" cx="6579.09" cy="5977.6" r="2890.07" fx="6579.09" fy="5977.6">
     <stop offset="0" stop-opacity="1" stop-color="white"/>
     <stop offset="0.290196" stop-opacity="1" stop-color="#AFAFAF"/>
     <stop offset="0.639216" stop-opacity="1" stop-color="#515151"/>
     <stop offset="0.878431" stop-opacity="1" stop-color="#171717"/>
     <stop offset="1" stop-opacity="1" stop-color="black"/>
    </radialGradient>
    <radialGradient id="id9" gradientUnits="userSpaceOnUse" gradientTransform="matrix(1.04556 -0 -0 1.04556 -132 -176)" cx="2890.4" cy="3857.21" r="176.91" fx="2890.4" fy="3857.21">
     <stop offset="0" stop-opacity="1" stop-color="white"/>
     <stop offset="0.290196" stop-opacity="1" stop-color="#AFAFAF"/>
     <stop offset="0.639216" stop-opacity="1" stop-color="#515151"/>
     <stop offset="0.878431" stop-opacity="1" stop-color="#171717"/>
     <stop offset="1" stop-opacity="1" stop-color="black"/>
    </radialGradient>
    <radialGradient id="id10" gradientUnits="userSpaceOnUse" gradientTransform="matrix(1.24538 -0 -0 1.24543 -709 -933)" cx="2887.94" cy="3801.67" r="106.09" fx="2887.94" fy="3801.67">
     <stop offset="0" stop-opacity="1" stop-color="white"/>
     <stop offset="0.290196" stop-opacity="1" stop-color="#AFAFAF"/>
     <stop offset="0.639216" stop-opacity="1" stop-color="#515151"/>
     <stop offset="0.878431" stop-opacity="1" stop-color="#171717"/>
     <stop offset="1" stop-opacity="1" stop-color="black"/>
    </radialGradient>
    <radialGradient id="id11" gradientUnits="userSpaceOnUse" gradientTransform="matrix(1.07306 -0 -0 1.07306 -252 -291)" cx="3445.65" cy="3989.02" r="172.37" fx="3445.65" fy="3989.02">
     <stop offset="0" stop-opacity="1" stop-color="white"/>
     <stop offset="0.290196" stop-opacity="1" stop-color="#AFAFAF"/>
     <stop offset="0.639216" stop-opacity="1" stop-color="#515151"/>
     <stop offset="0.878431" stop-opacity="1" stop-color="#171717"/>
     <stop offset="1" stop-opacity="1" stop-color="black"/>
    </radialGradient>
    <radialGradient id="id12" gradientUnits="userSpaceOnUse" gradientTransform="matrix(1.33029 -0 -0 1.33035 -1137 -1308)" cx="3443.28" cy="3960.63" r="99.32" fx="3443.28" fy="3960.63">
     <stop offset="0" stop-opacity="1" stop-color="white"/>
     <stop offset="0.290196" stop-opacity="1" stop-color="#AFAFAF"/>
     <stop offset="0.639216" stop-opacity="1" stop-color="#515151"/>
     <stop offset="0.878431" stop-opacity="1" stop-color="#171717"/>
     <stop offset="1" stop-opacity="1" stop-color="black"/>
    </radialGradient>
    <radialGradient id="id13" gradientUnits="userSpaceOnUse" gradientTransform="matrix(1.07304 -0 -0 1.07304 -296 -299)" cx="4051.19" cy="4092.74" r="172.37" fx="4051.19" fy="4092.74">
     <stop offset="0" stop-opacity="1" stop-color="white"/>
     <stop offset="0.290196" stop-opacity="1" stop-color="#AFAFAF"/>
     <stop offset="0.639216" stop-opacity="1" stop-color="#515151"/>
     <stop offset="0.878431" stop-opacity="1" stop-color="#171717"/>
     <stop offset="1" stop-opacity="1" stop-color="black"/>
    </radialGradient>
    <radialGradient id="id14" gradientUnits="userSpaceOnUse" gradientTransform="matrix(1.30079 -0 -0 1.30073 -1218 -1215)" cx="4051.04" cy="4039.48" r="101.57" fx="4051.04" fy="4039.48">
     <stop offset="0" stop-opacity="1" stop-color="white"/>
     <stop offset="0.290196" stop-opacity="1" stop-color="#AFAFAF"/>
     <stop offset="0.639216" stop-opacity="1" stop-color="#515151"/>
     <stop offset="0.878431" stop-opacity="1" stop-color="#171717"/>
     <stop offset="1" stop-opacity="1" stop-color="black"/>
    </radialGradient>
    <radialGradient id="id15" gradientUnits="userSpaceOnUse" gradientTransform="matrix(1.07306 -0 -0 1.07306 -337 -303)" cx="4608.8" cy="4147.78" r="172.37" fx="4608.8" fy="4147.78">
     <stop offset="0" stop-opacity="1" stop-color="white"/>
     <stop offset="0.290196" stop-opacity="1" stop-color="#AFAFAF"/>
     <stop offset="0.639216" stop-opacity="1" stop-color="#515151"/>
     <stop offset="0.878431" stop-opacity="1" stop-color="#171717"/>
     <stop offset="1" stop-opacity="1" stop-color="black"/>
    </radialGradient>
    <radialGradient id="id16" gradientUnits="userSpaceOnUse" gradientTransform="matrix(1.27245 -0 -0 1.27245 -1255 -1122)" cx="4606.38" cy="4119.39" r="103.83" fx="4606.38" fy="4119.39">
     <stop offset="0" stop-opacity="1" stop-color="white"/>
     <stop offset="0.290196" stop-opacity="1" stop-color="#AFAFAF"/>
     <stop offset="0.639216" stop-opacity="1" stop-color="#515151"/>
     <stop offset="0.878431" stop-opacity="1" stop-color="#171717"/>
     <stop offset="1" stop-opacity="1" stop-color="black"/>
    </radialGradient>
    <radialGradient id="id17" gradientUnits="userSpaceOnUse" gradientTransform="matrix(1.07306 -0 -0 1.07306 -385 -309)" cx="5268.39" cy="4227.41" r="172.37" fx="5268.39" fy="4227.41">
     <stop offset="0" stop-opacity="1" stop-color="white"/>
     <stop offset="0.290196" stop-opacity="1" stop-color="#AFAFAF"/>
     <stop offset="0.639216" stop-opacity="1" stop-color="#515151"/>
     <stop offset="0.878431" stop-opacity="1" stop-color="#171717"/>
     <stop offset="1" stop-opacity="1" stop-color="black"/>
    </radialGradient>
    <radialGradient id="id18" gradientUnits="userSpaceOnUse" gradientTransform="matrix(1.33029 -0 -0 1.33035 -1739 -1378)" cx="5265.98" cy="4171.82" r="99.32" fx="5265.98" fy="4171.82">
     <stop offset="0" stop-opacity="1" stop-color="white"/>
     <stop offset="0.290196" stop-opacity="1" stop-color="#AFAFAF"/>
     <stop offset="0.639216" stop-opacity="1" stop-color="#515151"/>
     <stop offset="0.878431" stop-opacity="1" stop-color="#171717"/>
     <stop offset="1" stop-opacity="1" stop-color="black"/>
    </radialGradient>
    <radialGradient id="id19" gradientUnits="userSpaceOnUse" gradientTransform="matrix(0.994576 -0 -0 0.994576 32 23)" cx="5903.11" cy="4200.74" r="185.98" fx="5903.11" fy="4200.74">
     <stop offset="0" stop-opacity="1" stop-color="white"/>
     <stop offset="0.290196" stop-opacity="1" stop-color="#AFAFAF"/>
     <stop offset="0.639216" stop-opacity="1" stop-color="#515151"/>
     <stop offset="0.878431" stop-opacity="1" stop-color="#171717"/>
     <stop offset="1" stop-opacity="1" stop-color="black"/>
    </radialGradient>
    <radialGradient id="id20" gradientUnits="userSpaceOnUse" gradientTransform="matrix(1.39364 -0 -0 1.39364 -2312 -1632)" cx="5873.56" cy="4145.2" r="94.8" fx="5873.56" fy="4145.2">
     <stop offset="0" stop-opacity="1" stop-color="white"/>
     <stop offset="0.290196" stop-opacity="1" stop-color="#AFAFAF"/>
     <stop offset="0.639216" stop-opacity="1" stop-color="#515151"/>
     <stop offset="0.878431" stop-opacity="1" stop-color="#171717"/>
     <stop offset="1" stop-opacity="1" stop-color="black"/>
    </radialGradient>
    <radialGradient id="id21" gradientUnits="userSpaceOnUse" gradientTransform="matrix(0.994554 -0 -0 0.994554 36 23)" cx="6564.38" cy="4172.2" r="185.98" fx="6564.38" fy="4172.2">
     <stop offset="0" stop-opacity="1" stop-color="white"/>
     <stop offset="0.290196" stop-opacity="1" stop-color="#AFAFAF"/>
     <stop offset="0.639216" stop-opacity="1" stop-color="#515151"/>
     <stop offset="0.878431" stop-opacity="1" stop-color="#171717"/>
     <stop offset="1" stop-opacity="1" stop-color="black"/>
    </radialGradient>
    <radialGradient id="id22" gradientUnits="userSpaceOnUse" gradientTransform="matrix(1.3937 -0 -0 1.39364 -2573 -1621)" cx="6534.8" cy="4118.94" r="94.8" fx="6534.8" fy="4118.94">
     <stop offset="0" stop-opacity="1" stop-color="white"/>
     <stop offset="0.290196" stop-opacity="1" stop-color="#AFAFAF"/>
     <stop offset="0.639216" stop-opacity="1" stop-color="#515151"/>
     <stop offset="0.878431" stop-opacity="1" stop-color="#171717"/>
     <stop offset="1" stop-opacity="1" stop-color="black"/>
    </radialGradient>
    <radialGradient id="id23" gradientUnits="userSpaceOnUse" gradientTransform="matrix(1.04554 -0 -0 1.04556 -329 -189)" cx="7224.14" cy="4147.88" r="176.91" fx="7224.14" fy="4147.88">
     <stop offset="0" stop-opacity="1" stop-color="white"/>
     <stop offset="0.290196" stop-opacity="1" stop-color="#AFAFAF"/>
     <stop offset="0.639216" stop-opacity="1" stop-color="#515151"/>
     <stop offset="0.878431" stop-opacity="1" stop-color="#171717"/>
     <stop offset="1" stop-opacity="1" stop-color="black"/>
    </radialGradient>
    <radialGradient id="id24" gradientUnits="userSpaceOnUse" gradientTransform="matrix(1.24543 -0 -0 1.24543 -1772 -1004)" cx="7221.68" cy="4092.34" r="106.09" fx="7221.68" fy="4092.34">
     <stop offset="0" stop-opacity="1" stop-color="white"/>
     <stop offset="0.290196" stop-opacity="1" stop-color="#AFAFAF"/>
     <stop offset="0.639216" stop-opacity="1" stop-color="#515151"/>
     <stop offset="0.878431" stop-opacity="1" stop-color="#171717"/>
     <stop offset="1" stop-opacity="1" stop-color="black"/>
    </radialGradient>
    <radialGradient id="id25" gradientUnits="userSpaceOnUse" gradientTransform="matrix(0.994554 -0 -0 0.994576 43 22)" cx="7911.43" cy="4068.86" r="185.98" fx="7911.43" fy="4068.86">
     <stop offset="0" stop-opacity="1" stop-color="white"/>
     <stop offset="0.290196" stop-opacity="1" stop-color="#AFAFAF"/>
     <stop offset="0.639216" stop-opacity="1" stop-color="#515151"/>
     <stop offset="0.878431" stop-opacity="1" stop-color="#171717"/>
     <stop offset="1" stop-opacity="1" stop-color="black"/>
    </radialGradient>
    <radialGradient id="id26" gradientUnits="userSpaceOnUse" gradientTransform="matrix(1.39364 -0 -0 1.3937 -3103 -1580)" cx="7881.87" cy="4013.27" r="94.8" fx="7881.87" fy="4013.27">
     <stop offset="0" stop-opacity="1" stop-color="white"/>
     <stop offset="0.290196" stop-opacity="1" stop-color="#AFAFAF"/>
     <stop offset="0.639216" stop-opacity="1" stop-color="#515151"/>
     <stop offset="0.878431" stop-opacity="1" stop-color="#171717"/>
     <stop offset="1" stop-opacity="1" stop-color="black"/>
    </radialGradient>
    <radialGradient id="id27" gradientUnits="userSpaceOnUse" gradientTransform="matrix(1.07306 -0 -0 1.07304 -624 -287)" cx="8545.11" cy="3936.21" r="172.37" fx="8545.11" fy="3936.21">
     <stop offset="0" stop-opacity="1" stop-color="white"/>
     <stop offset="0.290196" stop-opacity="1" stop-color="#AFAFAF"/>
     <stop offset="0.639216" stop-opacity="1" stop-color="#515151"/>
     <stop offset="0.878431" stop-opacity="1" stop-color="#171717"/>
     <stop offset="1" stop-opacity="1" stop-color="black"/>
    </radialGradient>
    <radialGradient id="id28" gradientUnits="userSpaceOnUse" gradientTransform="matrix(1.33029 -0 -0 1.33029 -2822 -1291)" cx="8542.72" cy="3907.79" r="99.32" fx="8542.72" fy="3907.79">
     <stop offset="0" stop-opacity="1" stop-color="white"/>
     <stop offset="0.290196" stop-opacity="1" stop-color="#AFAFAF"/>
     <stop offset="0.639216" stop-opacity="1" stop-color="#515151"/>
     <stop offset="0.878431" stop-opacity="1" stop-color="#171717"/>
     <stop offset="1" stop-opacity="1" stop-color="black"/>
    </radialGradient>
 </defs>
 <g id="Camada_x0020_1">
  <metadata id="CorelCorpID_0Corel-Layer"/>
  <g id="_2000536107824">
   <path fill="#6DB7D2" fill-rule="nonzero" d="M2477.06 3136.62c0,0 96.45,-852.11 723.49,-1720.3 627.04,-868.19 1254.06,-1077.2 1254.06,-1077.2 0,0 691.33,-241.16 1511.29,-289.41 819.97,-48.23 1189.74,305.48 1237.97,305.48 48.23,0 627.01,337.64 1109.36,1125.45 482.35,787.81 514.5,1302.29 514.5,1302.29l96.45 482.34c0,0 -755.65,353.7 -1237.97,385.86 -482.34,32.16 -1398.77,96.48 -1398.77,96.48l-1929.3 -64.32 -1221.9 -192.93c0.03,0 -675.23,-80.41 -659.17,-353.73z"/>
   <path fill="url(#id0)" fill-rule="nonzero" d="M2477.06 3136.62c0,0 96.45,-852.11 723.49,-1720.3 627.04,-868.19 1254.06,-1077.2 1254.06,-1077.2 0,0 691.33,-241.16 1511.29,-289.41 819.97,-48.23 1189.74,305.48 1237.97,305.48 48.23,0 627.01,337.64 1109.36,1125.45 482.35,787.81 514.5,1302.29 514.5,1302.29l96.45 482.34c0,0 -755.65,353.7 -1237.97,385.86 -482.34,32.16 -1398.77,96.48 -1398.77,96.48l-1929.3 -64.32 -1221.9 -192.93c0.03,0 -675.23,-80.41 -659.17,-353.73z"/>
   <path fill="#B7C3B5" fill-rule="nonzero" d="M2900.61 6695.65c0,0 997.66,266.98 1728.34,337.24 730.68,70.26 2459,28.11 2459,28.11 0,0 1222.49,-112.41 1531.61,-196.71 309.12,-84.29 857.16,-281.03 1208.43,-576.12 351.3,-295.09 590.15,-618.28 590.15,-618.28l154.56 -266.98 548 -252.91c0,0 238.88,-112.41 210.77,-337.24 -28.09,-224.83 -112.41,-295.09 -112.41,-295.09l-997.66 -407.5 -688.49 -351.3 -154.56 112.41c0,0 -154.56,-154.56 -252.94,-154.56 -98.36,0 -196.71,210.77 -196.71,210.77l-14.06 168.62c0,0 -309.12,210.77 -660.42,238.88 -351.3,28.11 -983.6,126.47 -983.6,126.47 0,0 -969.55,126.47 -2065.58,42.15 -1096.02,-84.32 -1756.43,-168.62 -1756.43,-168.62l-1039.81 -224.83c0,0 140.53,-182.68 -42.15,-323.19 -182.68,-140.5 -309.12,-14.06 -309.12,-14.06l-70.26 112.41 -196.71 -126.47 -688.54 393.45 -927.4 351.3c0,0 -168.62,126.47 -154.56,252.91 14.06,126.47 182.68,365.33 182.68,365.33 0,0 295.09,182.68 435.59,252.91 138.6,69.31 140.47,70.24 140.5,70.26 21.69,10.86 54.46,102.95 67.76,124.25 69.79,111.73 158.58,212.64 255.93,301.03 413.02,375.03 907.57,536.54 1418.72,740.99l379.36 84.34z"/>
   <path fill="#808A9E" fill-rule="nonzero" d="M2900.61 6695.65c0,0 -71.27,414.8 251.28,634.7 322.52,219.91 952.92,366.52 952.92,366.52 0,0 982.25,131.94 1480.68,131.94 498.44,0 1480.68,-58.64 1480.68,-58.64l864.95 -117.27c0,0 557.09,-190.58 689.04,-337.19 131.94,-146.61 146.61,-278.55 146.61,-278.55l29.33 -219.91c0,0 -850.28,175.91 -1378.07,234.58 -527.77,58.64 -938.25,43.97 -938.25,43.97l-1172.83 14.66c0,0 -571.76,-29.3 -1319.44,-175.91 -747.67,-146.67 -1086.89,-238.91 -1086.89,-238.91z"/>
   <path fill="#A74133" fill-rule="nonzero" d="M2448.17 3196.12l-249.22 -14.66c0,0 -351.85,102.61 -395.82,249.22 -43.97,146.61 -12.57,328.18 -12.57,328.18l196.71 126.47c0,0 79.75,-161.43 226.36,-161.43 146.61,0 219.91,117.27 219.91,117.27l43.97 117.27 -68.7 151.71 1241.51 229.47c0,0 864.95,161.28 1905.84,175.91 1040.89,14.66 1378.07,-14.66 1378.07,-14.66l1040.89 -73.31 939.52 -331.47c0,0 -8.06,-277.09 101.36,-328.23 109.42,-51.16 234.55,-29.3 234.55,-29.3l127.79 132.73c0,0 165.42,-59.43 136.12,-308.64 -29.33,-249.22 -205.24,-293.21 -205.24,-293.21l-381.16 -87.97 -3.84 83.77c0,0 -318.69,180.11 -714.51,268.08 -395.82,87.97 -777.01,117.27 -777.01,117.27l-2067.11 58.64 -1158.17 -43.97 -938.25 -146.61c-0.02,0 -674.39,-117.27 -821,-322.53z"/>
   <path fill="#598AA2" fill-rule="nonzero" d="M3208.88 3058.09c0,0 -804.14,66.09 -671.94,165.23 132.17,99.15 341.49,176.26 341.49,176.26 0,0 308.43,187.28 1652.34,253.36 1343.91,66.09 1674.35,55.07 1674.35,55.07l1189.69 -77.11 859.21 -132.17 506.71 -143.2 163.47 -90.25 -64.35 -163.1c0,0 -716.02,-143.2 -2081.94,-154.22 -1365.91,-11.07 -3084.34,44.02 -3569.03,110.12z"/>
   <path fill="#2B6A98" fill-rule="nonzero" fill-opacity="0.231373" d="M6112.48 48.78c0,0 1004.16,687.06 1453.39,1559.09 449.23,872.03 475.65,1955.47 475.65,1955.47l607.78 -105.7 278.73 -276.17c0,0 -410.86,-2868.44 -2815.55,-3132.68z"/>
   <path fill="url(#id1)" fill-rule="nonzero" d="M2477.06 3136.62c0,0 96.45,-852.11 723.49,-1720.3 627.04,-868.19 1254.06,-1077.2 1254.06,-1077.2 0,0 691.33,-241.16 1511.29,-289.41 819.97,-48.23 1189.74,305.48 1237.97,305.48 48.23,0 627.01,337.64 1109.36,1125.45 482.35,787.81 514.5,1302.29 514.5,1302.29l96.45 482.34c0,0 -755.65,353.7 -1237.97,385.86 -482.34,32.16 -1398.77,96.48 -1398.77,96.48l-1929.3 -64.32 -1221.9 -192.93c0.03,0 -675.23,-80.41 -659.17,-353.73z"/>
   <path fill="white" fill-rule="nonzero" fill-opacity="0.388235" d="M6244.6 48.78c0,0 -845.61,634.21 -1136.29,1400.53 -290.68,766.33 -343.53,2272.57 -343.53,2272.57l-1057.01 -105.7 -829.38 -216.61 -401.35 -262.93c0,0 57.72,-828.43 723.49,-1720.3 665.78,-891.87 1617.09,-1367.57 3044.06,-1367.57z"/>
   <path fill="#7F8B7F" fill-rule="nonzero" fill-opacity="0.521569" d="M1183.2 5591.2c976.47,291.76 2011.65,486.73 3026.67,588.22 1057.01,105.7 2272.57,26.43 2272.57,26.43l1638.37 -158.55c669.67,-113.97 1378.23,-180.06 1998.33,-472.8 -213.09,489.53 -642.97,862.26 -1125.4,1090.96 -989.36,469.05 -2107.6,395.01 -3171.93,412.42 0,0 -1690.55,-105.65 -1691.21,-105.7 -274.85,-17.18 -571.36,-128.45 -839.72,-188.8 -469.71,-105.62 -953.53,-255.72 -1372.63,-498.38 -294.75,-170.67 -560.46,-401.39 -735.05,-693.81z"/>
   <path fill="#7F8B7F" fill-rule="nonzero" fill-opacity="0.470588" d="M912.53 5607.88c0,0 725.95,325.95 2533.47,577.82 1807.51,251.85 3570.58,118.52 3570.58,118.52 0,0 1333.42,-118.52 2044.57,-281.51 711.16,-162.97 1407.49,-414.85 1407.49,-414.85l59.28 -192.61c0,0 -1126.01,459.27 -2503.84,651.88 -1377.86,192.61 -2652.01,148.16 -2652.01,148.16l-1526.01 -88.9 -1777.89 -311.13 -1289.3 -370.2c0,0 44.78,148 133.68,162.81z"/>
   <path fill="url(#id2)" fill-rule="nonzero" d="M3090.44 4318.94l-1511.21 977.83c0,0 1051.91,400.03 2903.87,503.75 1851.96,103.72 3511.3,-118.52 3511.3,-118.52l1303.77 -251.85 1140.8 -355.57 -1524.37 -978.42c-205.69,108.71 -440.93,166.74 -666.99,213.86 -609.61,127.08 -1231.15,170.71 -1847.54,244.17 -620.06,73.91 -1245.18,-16.33 -1863.58,-63.82 -318.53,-24.44 -637.24,-49.92 -954.77,-85.46 -127.39,-14.3 -383.24,-1.99 -491.26,-85.96z"/>
   <path fill="#B56E4F" fill-rule="nonzero" d="M2477.06 3136.62l-334.83 85.93c0,0 -237.06,59.28 -74.07,192.61 162.97,133.34 414.85,355.57 2163.09,577.82 1748.24,222.23 3615.02,59.28 4207.66,-148.16 592.64,-207.41 977.83,-429.65 948.21,-503.75 -29.62,-74.07 -177.79,-118.52 -177.79,-118.52l-281.27 -41.09c0,0 14.59,70.74 -118.75,144.81 -133.34,74.07 -651.88,251.85 -651.88,251.85l-1407.49 133.34 -1985.14 10.43 -1495.65 -203.24c0,0 -753.57,-127.21 -792.1,-382.03z"/>
   <path fill="#7F8B7F" fill-rule="nonzero" fill-opacity="0.411765" d="M1668.13 3874.46c0,0 281.51,296.31 1214.88,503.75 933.39,207.41 2118.65,385.2 3155.73,325.95 1037.11,-59.28 1866.78,-88.9 2414.94,-222.23 548.19,-133.34 1244.52,-577.82 1244.52,-577.82l-165.31 -145.21 -175.44 160.03c0,0 -78.9,-285.81 -232.04,-202.18 -153.16,83.67 -196.71,210.77 -196.71,210.77l-14.06 168.62c0,0 -535.01,267.27 -1097.99,296.89 -562.98,29.62 -882.41,107.89 -882.41,107.89l-1636.25 25.45 -1585.27 -162.97 -1303.9 -253.2c0,0 167.46,-114.35 -42.15,-323.19 -209.61,-208.84 -379.38,98.36 -379.38,98.36l-196.71 -126.47 -122.43 115.56z"/>
   <path fill="url(#id3)" fill-rule="nonzero" d="M2448.17 3196.12l-249.22 -14.66c0,0 -130.81,100.36 91.44,263.33 222.23,162.97 1081.53,325.95 1348.21,355.57 266.69,29.62 1526.01,133.34 1526.01,133.34l148.16 -207.41c0,0 -933.39,-14.82 -1288.96,-74.07 -355.57,-59.28 -829.67,-162.97 -829.67,-162.97 0,0 -677.07,-112.15 -745.97,-293.14z"/>
   <path fill="#8B5E3C" fill-rule="nonzero" fill-opacity="0.658824" d="M222.88 4670.66c177.58,-65.06 823.68,442.18 979.69,507.25 476.23,198.43 1045.04,370.41 1045.04,370.41l1587.42 238.12 1680.01 52.9 1402.23 -13.24 1666.8 -211.66 1084.73 -238.12 1455.13 -555.59c0,0 158.74,26.45 92.59,171.97 -66.15,145.53 -132.28,198.43 -132.28,198.43 0,0 -965.68,383.62 -1322.84,502.69 -357.16,119.04 -1322.84,330.72 -1322.84,330.72 0,0 -1640.31,238.12 -2645.69,211.66 -1005.37,-26.45 -2182.69,-119.04 -2182.69,-119.04l-1177.32 -211.66 -1097.96 -304.26 -556.01 -156.17c-288.96,-121.29 -663.25,-272.82 -621.23,-653.6 4.25,-38.55 14.29,-78.77 41.78,-106.15 6.47,-6.48 14.34,-11.33 23.46,-14.65z"/>
   <path fill="url(#id4)" fill-rule="nonzero" d="M3001.65 5675.77c0,0 -555.59,-33.11 -582.07,22.06 -26.45,55.18 92.59,154.51 92.59,154.51 0,0 1904.91,275.88 3174.83,264.86 1269.92,-11.03 2751.52,-165.53 2751.52,-165.53 0,0 383.62,-66.22 396.85,-198.64 13.24,-132.44 -145.53,-198.64 -357.16,-154.51 -211.66,44.15 -1203.8,143.46 -1203.8,143.46 0,0 -1177.32,77.24 -1957.82,55.18 -780.49,-22.06 -1375.78,-44.13 -1415.44,-55.18 -39.66,-11.04 -899.51,-66.21 -899.51,-66.21z"/>
   <path fill="url(#id5)" fill-rule="nonzero" d="M6216.17 6209.74c0,0 1018.58,79.38 806.95,423.31 -211.66,343.95 -1097.96,317.47 -1097.96,317.47 0,0 1613.87,105.84 2791.21,-264.57 1177.32,-370.41 1349.3,-1097.96 1349.3,-1097.96 0,0 -912.76,304.26 -1732.94,449.76 -820.16,145.55 -2116.56,171.99 -2116.56,171.99z"/>
   <path fill="#9DDCF9" fill-rule="nonzero" d="M6824.67 217.24c0,0 886.3,436.54 1402.23,1349.3 515.9,912.78 582.39,1759.73 582.39,1759.73l114.93 -61.04c-0.01,0.03 -168.18,-2267.52 -2099.55,-3047.99z"/>
   <path fill="#FFFABE" fill-rule="nonzero" d="M9698.23 3904.09l-82.34 43.58 1613.87 727.57 92.59 -39.69 -105.84 -158.74c0.02,0 -1488.85,-603.07 -1518.29,-572.71z"/>
   <path fill="#FFFABE" fill-rule="nonzero" d="M8924.23 3265.21c19.35,-24.5 245.06,38.02 272.21,50.42 94.55,43.26 194.86,137.04 232.31,236.63 14.56,38.74 51.82,247.63 15.17,276.32 0.05,-0.03 89,-69.73 89,-69.73 0,0 69.73,-141.93 -22.86,-313.91 -92.59,-171.91 -444.07,-359.4 -585.83,-179.73z"/>
   <path fill="#7F8B7F" fill-rule="nonzero" fill-opacity="0.411765" d="M11219.07 4517.66c0,0 -187.75,223.72 -835.93,448.6 -648.21,224.88 -2222.39,621.73 -2725.08,674.66 -502.69,52.9 -2050.41,92.59 -2857.36,39.69 -806.95,-52.9 -1600.65,-52.9 -2619.24,-343.95 -1018.58,-291.03 -1521.27,-634.97 -1521.27,-634.97l-343.95 -238.12 -141.64 40.03c0,0 221.02,264.23 366.52,330.37 145.5,66.14 820.16,410.1 820.16,410.1 0,0 1084.73,347.51 1640.34,431.71 555.59,84.19 1203.8,137.12 1203.8,137.12l1560.96 39.69c0,0 1018.58,-13.24 1891.68,-105.84 873.09,-92.59 1534.52,-264.57 1534.52,-264.57l1071.52 -291.03 859.85 -370.41 198.43 -185.19c-0.02,0.01 -8.16,-129.95 -103.32,-117.89z"/>
   <path fill="url(#id6)" fill-rule="nonzero" d="M7882.94 4384.21c0,0 52.9,277.81 291.03,674.66 238.12,396.85 410.1,555.59 410.1,555.59l1296.4 -317.47 1150.87 -449.76 -1673.88 -928.29c0,0 -72.3,-169.65 -178.14,-182.89 -105.84,-13.24 -263.2,105.17 -250.65,191.48 12.55,86.3 -14.06,168.62 -14.06,168.62 0,0 -330.54,169.01 -1031.66,288.05z"/>
   <path fill="url(#id7)" fill-rule="nonzero" d="M871.86 4992.72l1256.71 -846.61c0,0 -251.34,-92.59 -317.47,-145.53 -66.15,-52.9 -142.93,-126.13 -142.93,-126.13l-1493.53 629.16c0,0.01 512.01,502.32 697.23,489.11z"/>
   <path fill="#808A9E" fill-rule="nonzero" d="M2997.84 6766.15c-52.79,32.48 2.12,145.71 35.78,180.96 22.99,24.07 55.55,36.07 86.89,47.3 91.3,32.74 191.11,60.22 273.9,111.78 53.83,33.54 67.65,93.28 106.31,142.91 68.12,87.47 171.56,155.77 264.62,214.02 100.12,62.65 214.97,96.56 314.81,155.8 -99.1,-58.8 -194.89,-123.15 -286.82,-192.61 -44.6,-33.72 -89.11,-69.52 -119.49,-116.48 -19,-29.36 -56.45,-108.68 -25.42,-140.9 27.28,-28.32 91.3,-2.86 121.4,6.9 60.91,19.72 126.28,18.18 190.21,21.27 56.68,2.75 113.18,9.3 169.02,19.61 28.4,5.23 57.27,11.71 81.82,26.88 47.96,29.65 81.23,86.09 113.02,130.78 30.47,42.81 76.34,71.61 121,99.31 83.56,51.82 175.01,149.09 270.41,173.45 -82.53,-62.28 -158.92,-132.68 -227.73,-209.85 -23.39,-26.24 -46.56,-54.51 -55.28,-88.58 -29.99,-117.19 127.98,-109.19 201.84,-103.19 107.86,8.75 215.58,21.45 322.89,35.12 67.93,8.64 163.26,4.75 225.81,30.86 63.23,26.4 117.09,102.21 166.05,148.24 92.14,86.65 209.4,154.59 313.49,225.91 -50.21,-35.33 -94.81,-78.56 -131.7,-127.63 -16.73,-22.25 -32.11,-46.24 -39.06,-73.2 -43.37,-168.57 153.27,-156.67 255.35,-151.07 125.44,6.87 251.02,11.42 376.64,13.63 81.05,1.43 162.12,1.3 243.17,-0.08 46,-0.77 186.09,-29.49 218.25,11.82 11.79,15.14 13.21,36.17 9.44,54.99 -8.09,40.3 -36.46,73.01 -63.82,103.69 -66.49,74.58 -132.94,149.14 -199.43,223.72 148.59,-117.25 297.21,-234.47 445.79,-351.72 132.55,-104.59 335.79,-81.34 496.03,-95.79 41.73,-3.76 116.4,-26.8 156.04,-15.56 64.32,18.26 34.12,69.44 -6.21,95.32 -112.6,72.25 -225.22,144.49 -337.82,216.71 271.31,-137.76 551.97,-257.07 839.43,-356.87 52.26,-18.16 214.25,-91.75 232.94,-0.5 6.6,32.32 -7.85,65.46 -27.01,92.27 -19.19,26.85 -43.37,50.08 -60.48,78.27 96.93,-50.87 178.4,-126.15 264.68,-193.57 86.28,-67.42 182.23,-129.06 290.55,-144.86 44.15,-6.45 95.26,-8.01 122.93,-43 12.42,-15.7 17.68,-35.76 21.61,-55.36 7.53,-37.6 11.23,-75.99 11.05,-114.37 -0.05,-9.25 -0.56,-19.22 -6.18,-26.56 -13.05,-17.02 -39.8,-7.58 -59.01,2.01 -156.59,78.01 -357.24,94.2 -528.48,120 -279.45,42.1 -560.83,71.24 -842.56,92.48 -164.26,12.39 -328.73,21.96 -493.28,29.12 -1217.01,52.9 -2222.18,-36.7 -2222.18,-36.7 -173.66,-15.48 -349.39,-59.81 -521.08,-89.19 -231.8,-39.66 -463.58,-79.35 -695.38,-119.02 -91.09,-15.59 -182.2,-31.18 -273.32,-46.77 -36.67,-6.29 -100.94,-29.67 -135.01,-15.01 -2.29,1.02 -4.4,2.11 -6.36,3.3z"/>
   <path fill="white" fill-rule="nonzero" fill-opacity="0.321569" d="M5704.21 7412.06c-30.55,-8.59 -62.1,19.61 -67.26,50.93 -5.15,31.31 9.04,62.63 26.75,89 44.63,66.52 111.65,114.16 177.18,160.24 39.53,27.83 81.92,56.68 130.2,59.3 47.75,2.59 92.56,-20.95 134.58,-43.82 82.24,-44.76 312.4,-124.83 246.23,-263.94 -34.94,-73.46 -249.4,-28.06 -309.83,-24.68 -66.78,3.76 -134.98,9.89 -199.62,-7.37 -29.25,-7.8 -57.37,-20.34 -87.39,-24.47 -22.59,-3.12 -45.85,-1.32 -67.68,5.2l16.84 -0.39z"/>
   <path fill="white" fill-rule="nonzero" fill-opacity="0.321569" d="M6868.82 7423.85c-8.25,1.72 -14.24,3.31 -17.47,4.62 -108.63,44.95 -198.66,158.02 -283.15,236.4 217.32,-12.92 418.71,-113.47 610.58,-216.29 21.82,-11.71 46.56,-28.09 46.72,-52.85 0.1,-18.63 -278.5,11.79 -356.69,28.11z"/>
   <path fill="white" fill-rule="nonzero" fill-opacity="0.321569" d="M7182.89 7593.84c206.09,-75.66 413.08,-151.71 605.82,-256.86 63.79,-34.81 133.55,-74.1 204.71,-59.43 10.86,2.25 21.93,6.02 29.54,14.06 22.62,23.84 0.53,63.18 -25.29,83.53 -45.29,35.73 -101.23,54.7 -156.3,71.9 -216.56,67.73 -438.45,118.41 -662.93,151.5 28.22,-3.73 55.6,-13.5 79.78,-28.51l-75.34 23.81z"/>
   <path fill="white" fill-rule="nonzero" fill-opacity="0.321569" d="M5458.85 7712.26c-76.71,-2.67 -148.74,-80.07 -197.13,-131.13 -59.57,-62.84 -117.51,-113.23 -182.76,-167.51 -77.74,-64.61 -270.94,-36.67 -364.77,-34.3 -27.98,0.71 -61.73,5.68 -72.7,31.42 -11.23,26.38 9.78,54.62 29.67,75.26 48.78,50.63 100.54,99.65 161.91,133.95 102.79,57.45 224.14,69.34 341.62,77.48 94.64,6.57 189.38,11.52 284.16,14.82z"/>
   <path fill="white" fill-rule="nonzero" fill-opacity="0.321569" d="M4340.14 7504.74c-82.9,-68.09 -153.51,-187.28 -263.35,-208.44 -30.65,-5.89 -62.23,-3.89 -93.33,-6.63 -25.74,-2.28 -51.19,-7.87 -75.53,-16.6 -28.51,-10.23 -64.06,-23.47 -85.75,-2.33 -21.9,21.32 -8.62,58.99 10.97,82.48 77.26,92.64 227.24,150.01 336.69,191.82 128,48.89 262.88,79.86 399.47,91.01 -87.52,-16.33 -160.35,-74.79 -229.16,-131.31z"/>
   <path fill="url(#id8)" fill-rule="nonzero" d="M2879.8 6267.51c0,0 1145.09,229.02 2942,211.41 1796.92,-17.63 2889.15,-317.1 2836.3,-158.55 -52.85,158.55 -158.55,387.57 -1215.56,475.65 -1057.02,88.1 -3540.98,140.95 -4562.74,-528.51z"/>
   <path fill="#6D2518" fill-rule="nonzero" d="M2477.51 3958.47c0,0 1424.09,406.45 3344.3,406.45 1920.24,0 3106.9,-437.39 3106.9,-437.39l-14.06 168.62c0,0 -450.32,180.69 -591.24,215.92 -140.92,35.23 -986.53,211.41 -2501.6,211.41 -1515.04,0 -2171.49,-183.81 -2171.49,-183.81l-1241.51 -229.47 68.7 -151.72z"/>
   <circle fill="url(#id9)" fill-rule="nonzero" cx="2899.47" cy="3870.82" r="226.81"/>
   <path fill="#3C2415" fill-rule="nonzero" d="M3044.31 3871.64c0,71.4 -57.87,129.27 -129.27,129.27 -71.4,0 -129.27,-57.87 -129.27,-129.27 0,-71.4 57.87,-129.27 129.27,-129.27 71.39,0 129.27,57.87 129.27,129.27z"/>
   <circle fill="#F7941E" fill-rule="nonzero" cx="2915.03" cy="3871.64" r="112.86"/>
   <path fill="#FFF200" fill-rule="nonzero" d="M2988.58 3858.5c0,45.13 -36.59,81.74 -81.74,81.74 -45.13,0 -81.74,-36.59 -81.74,-81.74 0,-45.13 36.59,-81.74 81.74,-81.74 45.13,0.03 81.74,36.6 81.74,81.74z"/>
   <circle fill="url(#id10)" fill-rule="nonzero" cx="2915.03" cy="3871.64" r="112.86"/>
   <circle fill="url(#id11)" fill-rule="nonzero" cx="3463.8" cy="4016.24" r="226.81"/>
   <path fill="#3C2415" fill-rule="nonzero" d="M3608.64 4017.06c0,71.4 -57.87,129.27 -129.27,129.27 -71.37,0 -129.27,-57.87 -129.27,-129.27 0,-71.4 57.87,-129.27 129.27,-129.27 71.4,0.02 129.27,57.9 129.27,129.27z"/>
   <circle fill="#F7941E" fill-rule="nonzero" cx="3479.39" cy="4017.06" r="112.86"/>
   <path fill="#FFF200" fill-rule="nonzero" d="M3552.91 4003.95c0,45.13 -36.59,81.74 -81.74,81.74 -45.13,0 -81.74,-36.59 -81.74,-81.74 0,-45.13 36.59,-81.74 81.74,-81.74 45.14,0.03 81.74,36.6 81.74,81.74z"/>
   <circle fill="url(#id12)" fill-rule="nonzero" cx="3479.39" cy="4017.06" r="112.86"/>
   <circle fill="url(#id13)" fill-rule="nonzero" cx="4069.34" cy="4110.89" r="226.81"/>
   <path fill="#3C2415" fill-rule="nonzero" d="M4214.17 4111.71c0,71.4 -57.87,129.27 -129.27,129.27 -71.4,0 -129.27,-57.87 -129.27,-129.27 0,-71.4 57.87,-129.27 129.27,-129.27 71.4,0 129.27,57.87 129.27,129.27z"/>
   <circle fill="#F7941E" fill-rule="nonzero" cx="4084.9" cy="4111.71" r="112.86"/>
   <path fill="#FFF200" fill-rule="nonzero" d="M4158.44 4098.6c0,45.13 -36.59,81.74 -81.74,81.74 -45.13,0 -81.74,-36.59 -81.74,-81.74 0,-45.13 36.59,-81.74 81.74,-81.74 45.14,0 81.74,36.6 81.74,81.74z"/>
   <circle fill="url(#id14)" fill-rule="nonzero" cx="4084.9" cy="4111.71" r="112.86"/>
   <circle fill="url(#id15)" fill-rule="nonzero" cx="4622.42" cy="4175" r="226.81"/>
   <path fill="#3C2415" fill-rule="nonzero" d="M4767.26 4175.82c0,71.4 -57.87,129.27 -129.27,129.27 -71.4,0 -129.27,-57.87 -129.27,-129.27 0,-71.4 57.87,-129.27 129.27,-129.27 71.39,0 129.27,57.87 129.27,129.27z"/>
   <circle fill="#F7941E" fill-rule="nonzero" cx="4637.98" cy="4175.82" r="112.86"/>
   <circle fill="#FFF200" fill-rule="nonzero" cx="4629.79" cy="4162.71" r="81.73"/>
   <circle fill="url(#id16)" fill-rule="nonzero" cx="4637.98" cy="4175.82" r="112.86"/>
   <circle fill="url(#id17)" fill-rule="nonzero" cx="5286.54" cy="4231.95" r="226.81"/>
   <path fill="#3C2415" fill-rule="nonzero" d="M5431.37 4232.77c0,71.4 -57.87,129.27 -129.27,129.27 -71.4,0 -129.27,-57.87 -129.27,-129.27 0,-71.4 57.87,-129.27 129.27,-129.27 71.39,0.02 129.27,57.89 129.27,129.27z"/>
   <circle fill="#F7941E" fill-rule="nonzero" cx="5302.1" cy="4232.77" r="112.86"/>
   <path fill="#FFF200" fill-rule="nonzero" d="M5375.64 4219.66c0,45.13 -36.59,81.74 -81.74,81.74 -45.13,0 -81.74,-36.59 -81.74,-81.74 0,-45.13 36.59,-81.74 81.74,-81.74 45.13,0 81.74,36.59 81.74,81.74z"/>
   <circle fill="url(#id18)" fill-rule="nonzero" cx="5302.1" cy="4232.77" r="112.86"/>
   <circle fill="url(#id19)" fill-rule="nonzero" cx="5903.11" cy="4214.35" r="226.81"/>
   <path fill="#3C2415" fill-rule="nonzero" d="M6047.95 4215.17c0,71.4 -57.87,129.27 -129.27,129.27 -71.4,0 -129.27,-57.87 -129.27,-129.27 0,-71.4 57.87,-129.27 129.27,-129.27 71.4,0 129.27,57.87 129.27,129.27z"/>
   <circle fill="#F7941E" fill-rule="nonzero" cx="5918.7" cy="4215.17" r="112.86"/>
   <path fill="#FFF200" fill-rule="nonzero" d="M5992.22 4202.03c0,45.13 -36.59,81.74 -81.74,81.74 -45.13,0 -81.74,-36.59 -81.74,-81.74 0,-45.13 36.59,-81.74 81.74,-81.74 45.16,0.03 81.74,36.6 81.74,81.74z"/>
   <circle fill="url(#id20)" fill-rule="nonzero" cx="5918.7" cy="4215.17" r="112.86"/>
   <circle fill="url(#id21)" fill-rule="nonzero" cx="6564.38" cy="4190.35" r="226.81"/>
   <path fill="#3C2415" fill-rule="nonzero" d="M6709.21 4191.17c0,71.4 -57.87,129.27 -129.27,129.27 -71.4,0 -129.27,-57.87 -129.27,-129.27 0,-71.4 57.87,-129.27 129.27,-129.27 71.4,0.03 129.27,57.9 129.27,129.27z"/>
   <circle fill="#F7941E" fill-rule="nonzero" cx="6579.94" cy="4191.17" r="112.86"/>
   <path fill="#FFF200" fill-rule="nonzero" d="M6653.48 4178.06c0,45.13 -36.59,81.74 -81.74,81.74 -45.13,0 -81.74,-36.59 -81.74,-81.74 0,-45.13 36.59,-81.74 81.74,-81.74 45.14,0 81.74,36.6 81.74,81.74z"/>
   <circle fill="url(#id22)" fill-rule="nonzero" cx="6579.94" cy="4191.17" r="112.86"/>
   <circle fill="url(#id23)" fill-rule="nonzero" cx="7233.21" cy="4161.5" r="226.81"/>
   <path fill="#3C2415" fill-rule="nonzero" d="M7378.03 4162.31c0,71.4 -57.87,129.27 -129.27,129.27 -71.37,0 -129.27,-57.87 -129.27,-129.27 0,-71.4 57.87,-129.27 129.27,-129.27 71.4,0 129.27,57.87 129.27,129.27z"/>
   <circle fill="#F7941E" fill-rule="nonzero" cx="7248.77" cy="4162.31" r="112.86"/>
   <path fill="#FFF200" fill-rule="nonzero" d="M7322.3 4149.18c0,45.13 -36.59,81.74 -81.74,81.74 -45.13,0 -81.74,-36.59 -81.74,-81.74 0,-45.13 36.59,-81.74 81.74,-81.74 45.14,0.03 81.74,36.6 81.74,81.74z"/>
   <circle fill="url(#id24)" fill-rule="nonzero" cx="7248.77" cy="4162.31" r="112.86"/>
   <circle fill="url(#id25)" fill-rule="nonzero" cx="7911.43" cy="4073.4" r="226.81"/>
   <path fill="#3C2415" fill-rule="nonzero" d="M8056.26 4074.21c0,71.4 -57.87,129.27 -129.27,129.27 -71.4,0 -129.27,-57.87 -129.27,-129.27 0,-71.4 57.87,-129.27 129.27,-129.27 71.4,0 129.27,57.89 129.27,129.27z"/>
   <circle fill="#F7941E" fill-rule="nonzero" cx="7927.02" cy="4074.21" r="112.86"/>
   <path fill="#FFF200" fill-rule="nonzero" d="M8000.53 4061.11c0,45.13 -36.59,81.74 -81.74,81.74 -45.13,0 -81.74,-36.59 -81.74,-81.74 0,-45.13 36.59,-81.74 81.74,-81.74 45.16,0 81.74,36.59 81.74,81.74z"/>
   <circle fill="url(#id26)" fill-rule="nonzero" cx="7927.02" cy="4074.21" r="112.86"/>
   <circle fill="url(#id27)" fill-rule="nonzero" cx="8563.26" cy="3958.89" r="226.81"/>
   <path fill="#3C2415" fill-rule="nonzero" d="M8708.1 3959.71c0,71.4 -57.87,129.27 -129.27,129.27 -71.4,0 -129.27,-57.87 -129.27,-129.27 0,-71.4 57.87,-129.27 129.27,-129.27 71.4,0 129.27,57.87 129.27,129.27z"/>
   <circle fill="#F7941E" fill-rule="nonzero" cx="8578.83" cy="3959.71" r="112.86"/>
   <path fill="#FFF200" fill-rule="nonzero" d="M8652.37 3946.6c0,45.13 -36.59,81.74 -81.74,81.74 -45.13,0 -81.74,-36.59 -81.74,-81.74 0,-45.13 36.59,-81.74 81.74,-81.74 45.14,0.01 81.74,36.6 81.74,81.74z"/>
   <circle fill="url(#id28)" fill-rule="nonzero" cx="8578.83" cy="3959.71" r="112.86"/>
   <path fill="#7F8B7F" fill-rule="nonzero" fill-opacity="0.470588" d="M10719.27 4999.1l-343.53 -290.68c0,0 -158.55,-88.08 -273.05,-52.85 -114.5,35.23 -220.2,149.75 -220.2,149.75 0,0 -88.08,88.08 -17.63,176.18 70.47,88.08 325.9,211.41 325.9,211.41 0,0 422.81,-149.75 528.51,-193.81z"/>
   <path fill="#7F8B7F" fill-rule="nonzero" d="M651.28 4919.82l220.2 -184.98c0,0 184.98,-44.05 317.1,26.43 132.12,70.47 158.55,123.33 158.55,123.33 0,0 -44.05,70.47 -105.7,132.12 -61.64,61.65 -158.55,123.33 -158.55,123.33 0,0 -405.18,-149.75 -431.61,-220.22z"/>
   <path fill="#7F8B7F" fill-rule="nonzero" fill-opacity="0.490196" d="M2325.17 4012.59c0,73.2 -59.33,132.52 -132.52,132.52 -73.17,0 -132.49,-59.33 -132.49,-132.52 0,-73.2 59.33,-132.52 132.49,-132.52 73.2,0.03 132.52,59.35 132.52,132.52z"/>
   <path fill="#87CBF0" fill-rule="nonzero" d="M2476.56 3195.31c195.7,-1140.01 846.74,-2251.75 1921.43,-2757.52 315.78,-148.61 658.72,-235.44 1002.94,-286.71 369.82,-55.07 755.57,-79.65 1124.07,-2.43 647.47,135.64 1193.94,633.52 1579.22,1150.69 420.74,564.76 688.35,1239.77 758.4,1941.09 6.6,66.12 110.93,66.78 104.22,0 -64.85,-646.2 -287.72,-1271.24 -646.57,-1812.77 -358.88,-541.61 -874.8,-1065.51 -1492.87,-1298.19 -351.19,-132.23 -734.94,-147.35 -1105.21,-114.93 -368.98,32.32 -739.32,100.25 -1088.25,226.49 -576.26,208.5 -1068.03,590.23 -1440.07,1074.5 -416.83,542.56 -680.88,1195.26 -759.52,1874.08 -2.74,23.84 38.09,29.51 42.19,5.7l0 0z"/>
   <path fill="#9BAE9B" fill-rule="nonzero" d="M8918.07 3247.37c191.5,-20.26 433.93,15.35 544.07,194.81 45.34,73.89 57.66,167.24 37.18,251.15 -23.57,96.51 -80.02,139.08 -157.31,192.03 -19.51,13.34 -14.85,51.24 13.24,48.89 211.22,-17.68 253.52,-320.83 187.56,-475.52 -100.49,-235.73 -395.66,-296.6 -624.72,-270.59 -37.42,4.22 -38.08,63.26 -0.03,59.25l0 0z"/>
   <path fill="#1A2157" fill-rule="nonzero" d="M2435.25 3201.65c138.63,180.45 410.76,250.09 618.98,304.05 380.94,98.68 775.21,146.48 1166.33,182.84 985.27,91.54 1985.7,96.9 2972.15,19.82 253.1,-19.77 505.73,-46.74 756.84,-84.16 342.5,-51.03 695.62,-125.78 991.61,-314.41 41.25,-26.3 4.22,-90.7 -38.5,-65.88 -473.62,275.12 -1041.47,327.17 -1577.42,375.03 -472.62,42.18 -947.29,60.85 -1421.7,63.42 -888.68,4.81 -1798.82,-25.56 -2671.69,-205.93 -161.25,-33.32 -320.62,-74.47 -474.86,-132.36 -102.85,-38.61 -212.72,-83.77 -284.31,-171.27 -16.9,-20.76 -53.92,7.32 -37.41,28.85l0 0z"/>
   <path fill="#521504" fill-rule="nonzero" d="M2388.67 4129.78c1710.85,460.46 3524.78,562.93 5281.29,342.76 433.27,-54.3 895.21,-112.73 1271.24,-352.36 41.25,-26.3 4.22,-90.7 -38.5,-65.88 -358.48,208.23 -761,278.23 -1166.83,331.26 -428.27,55.97 -859.13,92.33 -1290.71,109.27 -870.77,34.17 -1745.25,-11.31 -2607.61,-137.02 -481.89,-70.24 -962.32,-162.07 -1436.21,-274.03 -29.79,-7.05 -42.4,37.97 -12.66,45.98l0 0z"/>
   <path fill="#9BAE9B" fill-rule="nonzero" d="M293.17 4503.68c258.1,-99.5 512.86,-206.91 763.77,-323.39 129.12,-59.9 257.23,-121.96 384.25,-186.12 125.41,-63.34 259.7,-122.85 376.3,-201.44 33.4,-22.51 4.75,-68.33 -30.94,-52.93 -124.86,53.85 -243.22,127.32 -364.64,188.91 -122.03,61.91 -245.06,121.9 -369.03,179.87 -255.27,119.39 -514.45,230.51 -776.56,334.01 -37.37,14.76 -21.39,75.82 16.85,61.08l0 0z"/>
   <path fill="#9BAE9B" fill-rule="nonzero" d="M284.34 4458.88c-273.42,10.36 -365.25,338.56 -206.7,531.27 23.41,28.46 63.68,-12.23 40.46,-40.46 -147.43,-179.19 -31.45,-398.47 170.76,-457.37 18.03,-5.25 15.17,-34.19 -4.51,-33.45l0 0z"/>
   <path fill="#9BAE9B" fill-rule="nonzero" d="M11205.89 4473.65c-288.35,-113.47 -575.57,-230.32 -859.29,-355 -139.76,-61.41 -278.71,-124.78 -416.2,-191.13 -127.05,-61.3 -250.38,-137.49 -380.71,-190.84 -34.12,-13.95 -50.11,37.52 -23.62,56.02 123.98,86.67 274.69,147.35 410.97,212.32 138.21,65.91 277.81,128.9 418.18,190.02 275.25,119.84 553.69,231.83 833.85,339.67 38.16,14.72 54.31,-46.32 16.84,-61.07l0 0z"/>
   <path fill="#646F65" fill-rule="nonzero" d="M139.36 4557.61c566.95,510.98 1315.63,797.43 2043.04,993.43 405.04,109.13 816.54,168.67 1233.47,209.58 443.44,43.53 885.64,90.11 1330.9,111.28 1594.81,75.77 3235.75,-35.02 4785.02,-436.89 613.41,-159.11 1269.97,-361.76 1788.2,-739.8 34.44,-25.11 2.41,-82.9 -34.04,-58.24 -463.18,313.59 -994.38,510.83 -1529.07,664.6 -712.06,204.79 -1446.52,331.98 -2182.2,414.06 -817.76,91.22 -1642.38,125.31 -2464.89,103.96 -421.85,-10.94 -843.41,-36.83 -1263.23,-79.88 -442.26,-45.34 -885.88,-78.64 -1321.57,-170.82 -833.85,-176.39 -1699.48,-480.07 -2357.66,-1039.2 -19.22,-16.28 -47.07,10.75 -27.98,27.93l0 0z"/>
   <path fill="#521504" fill-rule="nonzero" d="M8952.98 4081.22c2.35,-115.74 37.34,-278.44 173.37,-309.07 40.06,-9.01 99.96,1.22 135.83,23.33 44.31,27.38 52.77,73.15 66.46,119.84 8.4,28.69 56.92,24.74 54.2,-7.35 -11.18,-131.05 -117.11,-210.32 -248.35,-197.45 -167.69,16.41 -264.73,229.63 -237.72,378.28 5.92,32.6 55.55,23.69 56.21,-7.57l0 0z"/>
   <path fill="#521504" fill-rule="nonzero" d="M1990.84 3908.76c41.83,-136.67 229.32,-197.68 349.18,-124.35 59.51,36.41 94.18,104.25 91.77,173.58 -2.25,64.21 -44.28,100.78 -64.95,156.7 -5.26,14.19 10.26,25.95 23.04,23.04 77.13,-17.47 104.86,-119.73 102.58,-189.33 -2.8,-86.14 -49.76,-168.22 -124.94,-211.04 -147.01,-83.72 -369.93,-4.96 -418.08,160.01 -7.76,26.59 33.3,37.76 41.39,11.39l0 0z"/>
   <path fill="#646F65" fill-rule="nonzero" d="M2296.86 4112.45c49.73,-49.44 42.28,-147.06 6.29,-202.74 -42.73,-66.15 -128.51,-65.8 -187.75,-21.43 -63.84,47.83 -85.69,140.1 -32.56,204.5 46.96,56.92 158.21,70.45 213.88,19.53 5.18,-4.73 -1.43,-12.73 -7.32,-9.49 -61.81,34.04 -160.98,38.74 -204.61,-26.96 -44.68,-67.28 -9.17,-150.65 57.34,-186.88 133.71,-72.86 225.67,116.48 145.92,214.68 -4.89,6.09 3.01,14.57 8.82,8.78z"/>
   <path fill="#646F65" fill-rule="nonzero" d="M651.76 4918.19c80.78,-57.85 159.61,-117.91 238.49,-178.32 6.95,-5.33 0.08,-17.34 -6.95,-11.92 -79.17,60.96 -158.05,121.96 -235.27,185.4 -2.65,2.19 0.9,6.84 3.73,4.83l0 0z"/>
   <path fill="#646F65" fill-rule="nonzero" d="M887.64 4732.97c138.1,-12.47 273.85,16.33 389.24,95.58 48.7,33.46 63.76,41.97 43.32,93.86 -11.71,29.73 -41.57,56.45 -63.18,79.14 -47.59,49.95 -103.24,88.26 -163.86,120.61 -7.58,4.04 -0.9,15.27 6.71,11.47 110.85,-55.62 197.47,-141.03 258.39,-248.66 1.43,-2.51 1.14,-6.1 -1.06,-8.14 -127.98,-117.75 -296.18,-175.75 -469.57,-154.94 -6.91,0.85 -7.17,11.74 0.02,11.08l0 0z"/>
   <path fill="#646F65" fill-rule="nonzero" d="M1184.82 4773.53c170.79,-105.62 338.48,-216.71 505.86,-327.62 157.78,-104.57 325.03,-203.58 473.09,-321.55 3.1,-2.46 -0.87,-7.24 -4.12,-5.36 -168.38,97.14 -326.03,217.98 -488.23,325.37 -163.13,108 -328.2,213.06 -491.32,321.07 -4.99,3.31 -0.45,11.29 4.73,8.09l0 0z"/>
   <path fill="#646F65" fill-rule="nonzero" d="M9058.31 3904.33c-39.72,46.72 -41.33,139.58 7.03,181.91 50.98,44.63 119.44,18.18 155.82,-30.2 37.34,-49.71 53.3,-130.28 4.38,-178.56 -43.55,-43 -143.89,-30.36 -169.28,27.14 -3.02,6.84 4.36,12.81 10.31,7.95 41.94,-34.41 116.93,-66.62 155.44,-7.93 29.54,45.03 10.97,107.69 -21.08,146.16 -35.39,42.44 -104.33,58.72 -137.73,3.52 -26.45,-43.74 -13.92,-100.68 3.68,-145.02 1.85,-4.72 -5.37,-8.75 -8.57,-4.96z"/>
   <path fill="#646F65" fill-rule="nonzero" d="M9177.12 4086.37c126.1,136.2 262.67,263.59 409.86,376.8 127.63,98.15 274.32,208.18 428.09,260.34 7.95,2.7 12.05,-8.83 5.52,-13.08 -147.62,-95.95 -302.7,-171.5 -443.04,-280.51 -139.11,-108.05 -265.76,-229.42 -390.06,-353.94 -6.69,-6.66 -16.74,3.49 -10.37,10.39l0 0z"/>
   <path fill="#646F65" fill-rule="nonzero" d="M10723.49 4976.31c-208.39,-143.86 -382.08,-415.54 -673.93,-294.32 -86.59,35.96 -214.65,141.85 -225.78,243.22 -6.66,60.62 69.71,98.7 110.14,130.54 67.68,53.27 137.28,103.82 209.71,150.46 9.33,6 17.97,-8.88 8.69,-14.85 -58.75,-37.81 -115.51,-78.08 -171.03,-120.53 -72.06,-55.1 -164.73,-98.91 -108.97,-208.36 57.05,-111.96 184.16,-186.67 307.4,-191.5 243.69,-9.57 349.05,210.75 537.68,315.78 6.85,3.87 12.42,-6.04 6.08,-10.44l0 0z"/>
   <path fill="#646F65" fill-rule="nonzero" d="M7283.8 7082.17c262.96,-20.48 486.41,-168.99 662.3,-358.17 100.36,-107.94 186.72,-228.23 268.29,-350.66 72.49,-108.79 171.68,-227.39 191.48,-359.89 1.38,-9.17 -10.97,-12.97 -14.14,-3.89 -43.34,124.7 -114.48,230.51 -186.78,339.98 -77.34,117.19 -157.86,232.94 -251.36,338.01 -174.78,196.41 -401.08,358.43 -669.85,381.5 -8.3,0.7 -8.4,13.75 0.05,13.11l0 0z"/>
   <path fill="#646F65" fill-rule="nonzero" d="M7855.31 4409.2c111.59,435.22 385.12,870.18 702.46,1184.91 9.62,9.57 23.84,-4.86 14.8,-14.8 -155.52,-171.13 -299.22,-348.07 -418.47,-546.84 -119.81,-199.67 -203.19,-410.47 -288.46,-626.12 -2.47,-6.26 -12.08,-3.99 -10.34,2.86l0 0z"/>
   <path fill="#704C2E" fill-rule="nonzero" fill-opacity="0.658824" d="M666.33 4913.55c-12.6,176.57 17.68,372.04 108.23,526.39 4.04,6.9 16.57,2.28 13.39,-5.65 -69.36,-172.08 -112.31,-333.33 -104.41,-520.76 0.43,-11.1 -16.46,-10.92 -17.22,0.02l0 0z"/>
   <path fill="#704C2E" fill-rule="nonzero" fill-opacity="0.658824" d="M1176.44 5148.82c-49.42,148.66 -32.03,333.75 51.89,467.27 5.07,8.06 20.13,2.88 16.2,-6.82 -63.76,-156.3 -87.26,-288.43 -54.96,-456.84 1.64,-8.58 -10.36,-12.01 -13.13,-3.62l0 0z"/>
   <path fill="#704C2E" fill-rule="nonzero" fill-opacity="0.658824" d="M8512.36 5980.51c3.31,8.69 6.63,17.36 9.94,26.03 4.83,12.71 26.14,20.05 33.09,4.33 44.81,-101.52 99.13,-291.97 22.46,-389.96 -8.83,-11.29 -24.18,-0.64 -25.29,10.49 -5.41,53.59 16.17,107.13 15.88,161.91 -0.4,69.23 -17.42,135.83 -44.28,199.33 11.02,1.46 22.04,2.88 33.09,4.33 -3.44,-8.64 -6.9,-17.28 -10.36,-25.93 -8.44,-21.05 -42.8,-12.2 -34.53,9.47l0 0z"/>
   <path fill="#704C2E" fill-rule="nonzero" fill-opacity="0.658824" d="M1728.93 5385.46c-65.48,83.61 -56.37,258.31 28.8,327.73 11.23,9.14 25.21,-1.96 19.53,-15.06 -21.88,-50.45 -49.89,-91.25 -55.81,-147.82 -5.76,-54.91 9.33,-103.96 21.45,-156.7 1.67,-7.37 -8.45,-15.2 -13.97,-8.14l0 0z"/>
   <path fill="#704C2E" fill-rule="nonzero" fill-opacity="0.435294" d="M2191.9 5520.49c-62.71,64.95 -66.04,250.14 19.43,299.5 8.09,4.67 16.28,-3.02 14.77,-11.34 -8.72,-47.62 -38.79,-85.75 -42.36,-136.46 -3.62,-51.48 15.27,-92.8 26.11,-141.27 2.24,-10.1 -10.21,-18.47 -17.95,-10.44l0 0z"/>
   <path fill="#704C2E" fill-rule="nonzero" fill-opacity="0.658824" d="M2689.54 5678.27c-22.01,84.05 -25.5,216.05 26.98,290.05 5.81,8.19 21.93,6.47 20.95,-5.68 -3.84,-47.04 -23.09,-91.14 -27.65,-138.79 -4.54,-47.7 -0.24,-94.73 4.14,-142.27 1.29,-14.14 -20.96,-16.62 -24.43,-3.31l0 0z"/>
   <path fill="#704C2E" fill-rule="nonzero" fill-opacity="0.435294" d="M3265.91 5696.03c-38.21,123.15 -17.5,295.14 65.06,397.09 7.66,9.49 25.18,-0.74 20.77,-12.1 -22.64,-58.54 -50.85,-112.65 -62.31,-175.12 -12.97,-70.5 -5.68,-136.04 2.91,-206.3 1.9,-15.56 -22.12,-17.44 -26.43,-3.57l0 0z"/>
   <path fill="#704C2E" fill-rule="nonzero" fill-opacity="0.658824" d="M3812.11 5785.4c-9.36,119.02 12.39,263.51 58.91,373.52 6.05,14.32 26.16,3.44 23.65,-9.96 -11.47,-61.14 -30.55,-120.39 -40.59,-181.99 -9.96,-61.17 -12.89,-123.01 -21.24,-184.37 -1.67,-12.49 -19.86,-8.22 -20.72,2.8l0 0z"/>
   <path fill="#704C2E" fill-rule="nonzero" fill-opacity="0.658824" d="M4423.12 5835.69c-1.91,46.16 3.04,441.09 109.9,376.32 8.85,-5.36 7.24,-19.27 -2.88,-22.09 -55.55,-15.54 -51.72,-139.29 -57.27,-180.43 -8.17,-60.72 -15.99,-117.3 -34.36,-175.86 -2.67,-8.5 -15.03,-6.83 -15.4,2.07l0 0z"/>
   <path fill="#704C2E" fill-rule="nonzero" fill-opacity="0.658824" d="M4976.51 5870.65c-27.09,121.56 -21.53,273.66 23.78,390.56 6.1,15.78 27.25,9.54 24.97,-6.87 -9.36,-67.6 -26.14,-132.81 -30.55,-201.42 -3.84,-59.93 -0.56,-119.87 -0.48,-179.87 0.01,-9.96 -15.47,-12.51 -17.72,-2.4l0 0z"/>
   <path fill="#704C2E" fill-rule="nonzero" fill-opacity="0.658824" d="M5673.08 5903.34c-25.93,46.22 -14.27,108.47 -9.67,159.45 5.57,61.36 16.09,122.14 32.05,181.64 6.82,25.42 45.63,14.72 39.43,-10.86 -15.62,-64.29 -28.06,-128.48 -32.95,-194.6 -3.39,-45.79 5.02,-93.41 -14.14,-135.64 -2.7,-5.92 -11.82,-5.18 -14.72,0l0 0z"/>
   <path fill="#704C2E" fill-rule="nonzero" fill-opacity="0.658824" d="M6364.41 5889.73c-1.01,105.07 -5.02,213.65 9.36,318 1.91,13.84 22.8,9.57 23.41,-3.18 5.07,-104.27 -8.91,-211.17 -19.14,-314.83 -0.87,-8.56 -13.55,-8.96 -13.63,0l0 0z"/>
   <path fill="#704C2E" fill-rule="nonzero" fill-opacity="0.658824" d="M6984.3 5825.89c18.13,128.82 13.29,250.22 14.85,379.2 0.21,17.1 27.14,21.98 30.78,4.17 25.58,-125.28 11.92,-267.79 -13.13,-392.34 -4.32,-21.69 -35.43,-11.97 -32.5,8.96l0 0z"/>
   <path fill="#704C2E" fill-rule="nonzero" fill-opacity="0.435294" d="M7533.26 5789.32c39.77,107.08 40.75,217.61 -0.61,324.18 -7.98,20.58 25.45,29.81 33.17,9.14 42.63,-114.13 40.01,-231.88 -8.93,-343.32 -5.82,-13.28 -28.75,-3.77 -23.63,10l0 0z"/>
   <path fill="#704C2E" fill-rule="nonzero" fill-opacity="0.658824" d="M8058.83 5701.03c22.94,65.06 35.81,133.13 33.11,202.32 -2.43,62.15 -23.44,118.83 -31.5,179.58 -1.61,12.18 15.7,14.14 21.27,5.76 73.15,-109.98 49.1,-279.55 3.41,-394.9 -6.33,-15.97 -32.21,-9.55 -26.29,7.23l0 0z"/>
   <path fill="#704C2E" fill-rule="nonzero" fill-opacity="0.658824" d="M9035.43 5547.63c48.25,104.06 62.71,209.21 15.64,317.21 -10.34,23.73 24.79,44.34 35.02,20.45 48.28,-112.76 49.89,-250.49 -22.12,-354.34 -12.2,-17.6 -37.46,-2.62 -28.53,16.67l0 0z"/>
   <path fill="#704C2E" fill-rule="nonzero" fill-opacity="0.658824" d="M9633.09 5369.42c33.46,60.09 55.94,118.73 53.06,188.8 -2.38,57.95 -34.25,103.32 -39.13,158.39 -0.71,8.06 9.86,13.82 16.41,9.41 51.75,-34.99 62.1,-120.05 61.89,-178.29 -0.24,-71.16 -21.67,-142.56 -66.28,-198.35 -12,-15.01 -34.79,4.17 -25.96,20.03l0 0z"/>
   <path fill="#704C2E" fill-rule="nonzero" fill-opacity="0.658824" d="M10259.47 5179.63c26.61,54.28 43.16,108.29 43.58,169.36 0.4,56.31 -18.08,101.58 -30.02,154.99 -3.78,16.97 18.1,26.08 27.7,11.68 66.36,-99.52 42.87,-254.21 -13.63,-352.2 -10.37,-17.99 -36.6,-2.13 -27.62,16.18l0 0z"/>
   <path fill="#704C2E" fill-rule="nonzero" fill-opacity="0.658824" d="M10658.73 5020.5c34.59,115.48 25,212.3 11.87,329.13 -1.64,14.59 22.41,21.22 28.24,7.64 46.48,-107.89 27.98,-241.74 -17.1,-346.49 -5.65,-13.19 -27.04,-3.76 -23.01,9.72l0 0z"/>
   <path fill="#704C2E" fill-rule="nonzero" fill-opacity="0.658824" d="M10967.51 4864.96c22.35,59.04 30.47,121.82 31.82,184.71 1.24,57.5 -16.62,115.69 -13.74,171.73 0.82,15.99 20,20.24 28.88,7.82 33.91,-47.41 26.53,-134.9 23.49,-189.76 -3.52,-63.87 -12.92,-128.96 -39.64,-187.52 -7.85,-17.19 -37.6,-4.9 -30.81,13.01l0 0z"/>
   <path fill="#704C2E" fill-rule="nonzero" fill-opacity="0.435294" d="M340.6 5183.7c-26.48,-73.36 -49.44,-141.48 -51,-220.62 -0.48,-24.68 25.79,-248.11 61.49,-230.74 11.45,5.57 23.15,-3.55 20.77,-15.96 -0.69,-3.6 -1.38,-7.16 -2.06,-10.76 -1.64,-8.51 -10.68,-13.98 -18.74,-14.27 -77.05,-2.83 -91.65,129.25 -98.86,181.38 -15.09,109.21 0.29,228.42 56.31,324.47 9.74,16.65 38.99,5.68 32.07,-13.5l0 0z"/>
   <path fill="#3C2F48" fill-rule="nonzero" d="M2861.36 6690.08c-36.75,205.32 39.37,414.43 184.16,562.31 150.31,153.51 381.6,239.02 579.85,311.34 469.5,171.27 972.82,238.96 1469.4,270.41 541.8,34.3 1090.35,35.84 1631.37,-10.04 287.59,-24.39 573.37,-63.79 857.13,-116.4 179.38,-33.27 359.75,-64.69 534.77,-117.19 177.84,-53.35 357.08,-128.8 493.25,-258.6 144.26,-137.55 208.05,-320.7 211.22,-517.35 0.45,-28.32 -43.02,-28.22 -43.94,0 -6.05,183.29 -67.02,354.87 -201.36,483.29 -122.62,117.19 -283.12,187.49 -442.87,237.98 -396.32,125.28 -829.49,183.13 -1240.85,226.52 -505.2,53.3 -1014.49,59.09 -1521.88,41.36 -464,-16.2 -931.01,-58.3 -1382.12,-172.61 -437.79,-110.96 -1194.76,-336.45 -1089.23,-930.22 4.51,-25.46 -34.34,-36.37 -38.9,-10.79l0 0z"/>
   <path fill="#3C2F48" fill-rule="nonzero" d="M3351.97 6848.33c7.16,332.93 279.66,578.24 568.83,695.65 192.85,78.3 400.34,116.24 604.87,149.64 210.88,34.46 423.39,58.8 636.53,73.83 447.59,31.55 897.59,22.04 1344.18,-19.59 424.71,-39.58 868.46,-87.86 1275.33,-221.07 362.93,-118.83 705.5,-344.75 852.32,-710.92 4.96,-12.42 -15.11,-17.81 -20.03,-5.52 -139.32,348.49 -463.68,568.91 -807.74,686.98 -376.77,129.27 -788.29,177.02 -1182.53,218.86 -793.95,84.24 -1620.02,78.61 -2401.34,-100.49 -393.9,-90.3 -830.2,-313.11 -860.72,-767.34 -0.42,-6.2 -9.86,-6.33 -9.7,-0.02l0 0z"/>
   <path fill="#3C2F48" fill-rule="nonzero" d="M4179.61 6988.97c-24.74,313.3 310.92,546.16 555.08,674.24 154.19,80.89 316.84,112.68 489.5,121.82 208.58,11.08 421.69,26.45 630.48,22.09 12.57,-0.26 12.12,-18.08 0,-19.24 -346.33,-33.3 -730.55,30.52 -1055.43,-118.2 -253.47,-116.03 -630.24,-361.47 -607.7,-680.72 0.53,-7.66 -11.34,-7.6 -11.94,0.01l0 0z"/>
   <path fill="#3C2F48" fill-rule="nonzero" d="M7651.33 7074.45c-142.51,281.93 -414.03,438.29 -704.76,535.56 -163.65,54.73 -332.88,94.79 -502.82,124.14 -195.83,33.85 -391.41,36.86 -588.09,57.72 -11.34,1.22 -11.66,17.02 0,17.89 195.37,14.32 402.38,-18 594.67,-51.75 190.63,-33.46 381.21,-79.54 562.91,-146.74 264.89,-97.96 539.41,-257.83 650.22,-531.67 2.82,-7 -8.76,-11.85 -12.13,-5.15l0 0z"/>
   <path fill="#3C2F48" fill-rule="nonzero" d="M5232.23 7096.71c90.85,361.31 371.77,701.4 768.61,702.89 408.43,1.51 719.53,-320.51 801.11,-703.81 2.99,-14 -18.5,-20 -21.51,-5.94 -79.86,373.15 -381.1,687.74 -779.59,686.63 -409.17,-1.14 -630.72,-338.78 -756.26,-683.17 -2.81,-7.62 -14.38,-4.68 -12.34,3.41l0 0z"/>
   <path fill="#3C2F48" fill-rule="nonzero" d="M2844.13 6898.18c311.16,181.8 667.52,250.22 1020.94,295.43 396.22,50.71 794.92,88.16 1193.17,118.62 805.28,61.65 1617.62,78.93 2421.29,-13.53 444.28,-51.14 883.29,-135.38 1312.33,-262.22 20.55,-6.08 11.82,-38.29 -8.88,-32.19 -1522.94,450.18 -3130.63,357.29 -4689.44,185.61 -426.14,-46.93 -855.65,-104.91 -1239.24,-309.12 -11.41,-6.03 -21.36,10.85 -10.17,17.41l0 0z"/>
   <path fill="#B56E4F" fill-rule="nonzero" d="M2455.86 3159.98c-229.98,-25.11 -553.06,51.22 -666.62,276.3 -78.72,156.01 -44.02,478.88 177.47,497.96 28.01,2.41 32.77,-35.57 13.24,-48.89 -80.55,-54.91 -138.71,-100.04 -159.63,-201.87 -19.82,-96.45 1.69,-201.07 65.59,-277.01 130.89,-155.57 376.48,-206.94 569.97,-187.25 37.99,3.89 37.46,-55.15 -0.01,-59.25l0 0z"/>
   <path fill="#646F65" fill-rule="nonzero" d="M738.96 5415.98c130.91,330.85 408.83,572.31 707.8,751.46 360.73,216.16 765.3,366.91 1164.98,493.12 858.34,271.02 1750.36,416.73 2648.04,468.33 682.28,39.21 1374.91,34.65 2056.59,-17.55 616.42,-47.17 1240.92,-143.94 1816.65,-377.62 629.24,-255.4 1166.25,-685.65 1466.07,-1304.41 21.88,-45.18 -45.63,-84.95 -67.65,-39.53 -554.06,1142.68 -1841.99,1511.18 -3013.45,1626.34 -614.62,60.43 -1238.21,69.92 -1855.32,54.04 -873.65,-22.46 -1750.46,-125.99 -2596.47,-349.21 -470.61,-124.17 -939.49,-273.98 -1377.07,-489.37 -378.68,-186.41 -726.3,-442.28 -912.2,-831.63 -10.04,-20.96 -46.71,-6 -37.99,16.01l0 0z"/>
   <path fill="#434D45" fill-rule="nonzero" d="M5.37 4759.66c42.55,299.87 290.66,481.23 549.03,599.4 329.66,150.78 687.77,252.62 1035.34,351.91 865.11,247.1 1755.14,403.85 2650.9,484.21 918.3,82.37 1840.41,79.09 2759.85,16.78 917.48,-62.18 1823.55,-207.73 2703.48,-478.98 444.55,-137.04 875.39,-304.68 1300.76,-492.11 128.93,-56.82 263.96,-126.76 321.68,-263.62 71.37,-169.23 14.56,-363.74 -115.22,-486.75 -18.13,-17.18 -45.63,10.23 -27.46,27.46 143.65,136.12 190.07,376.91 50.16,533.44 -95.05,106.36 -242.93,151.71 -369.24,208.55 -384.83,173.21 -783.22,317.18 -1186.65,440.88 -838.39,257.09 -1700.99,401.88 -2574.68,466.07 -1716.64,126.15 -3451.3,34.54 -5124.12,-389.06 -414.74,-105.02 -827.45,-227.26 -1228.4,-377.12 -308.93,-115.48 -660.26,-287.61 -716.54,-649.03 -2.97,-19.08 -31.56,-10.81 -28.89,7.98l0 0z"/>
   <path fill="white" fill-rule="nonzero" fill-opacity="0.388235" d="M5994.28 113.74c0,0 -1133.91,838.1 -1347.55,2070.63 -110.32,700.61 -185.77,1547.91 166.98,2192.58 77.13,140.95 174.06,279.82 186.35,440.01 13.08,170.63 -74.1,334.44 -185.16,464.64 -333.43,390.91 -1054.5,317.44 -1527.83,275.85 -449.07,-39.45 -911.8,-133.84 -1347.13,-242.43 -279.98,-69.81 -542.83,-207.25 -759.94,-397.3 -58.24,-50.98 -115.17,-108.74 -138.84,-182.41 -49.71,-154.62 62.68,-313.99 186.49,-419.13 196.1,-166.58 439.61,-276.75 694.22,-314.04 -26.45,-188.06 124.38,-364.61 301.59,-432.98 177.18,-68.36 373.99,-54.33 563.33,-39.29 1.85,-201.73 -26.14,-430.63 12.89,-628.79 313.05,-1590.18 1720.61,-2410.6 3194.59,-2787.34z"/>
  </g>
 </g>
</svg>
