<?xml version="1.0" encoding="UTF-8"?>
<!DOCTYPE svg PUBLIC "-//W3C//DTD SVG 1.0//EN" "http://www.w3.org/TR/2001/REC-SVG-20010904/DTD/svg10.dtd">
<!-- Creator: CorelDRAW -->
<svg xmlns="http://www.w3.org/2000/svg" xml:space="preserve" width="129.74mm" height="69.7029mm" version="1.0" shape-rendering="geometricPrecision" text-rendering="geometricPrecision" image-rendering="optimizeQuality" fill-rule="evenodd" clip-rule="evenodd"
viewBox="0 0 14972.57 8044.01"
 xmlns:xlink="http://www.w3.org/1999/xlink"
 xmlns:xodm="http://www.corel.com/coreldraw/odm/2003">
 <defs>
    <radialGradient id="id0" gradientUnits="userSpaceOnUse" gradientTransform="matrix(2.24807 -0 -0 2.15961 -6564 849)" cx="5259.36" cy="-732.31" r="1878.73" fx="5259.36" fy="-732.31">
     <stop offset="0" stop-opacity="1" stop-color="white"/>
     <stop offset="0.290196" stop-opacity="1" stop-color="#AFAFAF"/>
     <stop offset="0.639216" stop-opacity="1" stop-color="#515151"/>
     <stop offset="0.878431" stop-opacity="1" stop-color="#171717"/>
     <stop offset="1" stop-opacity="1" stop-color="black"/>
    </radialGradient>
    <radialGradient id="id1" gradientUnits="userSpaceOnUse" gradientTransform="matrix(0.929564 -0 -0 0.91585 519 433)" cx="7365.66" cy="5145.18" r="3744.64" fx="7365.66" fy="5145.18">
     <stop offset="0" stop-opacity="1" stop-color="white"/>
     <stop offset="0.290196" stop-opacity="1" stop-color="#AFAFAF"/>
     <stop offset="0.639216" stop-opacity="1" stop-color="#515151"/>
     <stop offset="0.878431" stop-opacity="1" stop-color="#171717"/>
     <stop offset="1" stop-opacity="1" stop-color="black"/>
    </radialGradient>
    <radialGradient id="id2" gradientUnits="userSpaceOnUse" gradientTransform="matrix(1.60595 -0 -0 1.58746 -4547 -3568)" cx="7504.39" cy="6074.43" r="783.74" fx="7504.39" fy="6074.43">
     <stop offset="0" stop-opacity="1" stop-color="white"/>
     <stop offset="0.290196" stop-opacity="1" stop-color="#AFAFAF"/>
     <stop offset="0.639216" stop-opacity="1" stop-color="#515151"/>
     <stop offset="0.878431" stop-opacity="1" stop-color="#171717"/>
     <stop offset="1" stop-opacity="1" stop-color="black"/>
    </radialGradient>
    <radialGradient id="id3" gradientUnits="userSpaceOnUse" gradientTransform="matrix(2.09977 -0 -0 2.09978 -7026 -8349)" cx="6388.4" cy="7591.13" r="756.16" fx="6388.4" fy="7591.13">
     <stop offset="0" stop-opacity="1" stop-color="white"/>
     <stop offset="0.290196" stop-opacity="1" stop-color="#AFAFAF"/>
     <stop offset="0.639216" stop-opacity="1" stop-color="#515151"/>
     <stop offset="0.878431" stop-opacity="1" stop-color="#171717"/>
     <stop offset="1" stop-opacity="1" stop-color="black"/>
    </radialGradient>
    <radialGradient id="id4" gradientUnits="userSpaceOnUse" gradientTransform="matrix(2.06849 -0 -0 1.86619 -11164 -3215)" cx="10448.72" cy="3712.22" r="2198.67" fx="10448.72" fy="3712.22">
     <stop offset="0" stop-opacity="1" stop-color="white"/>
     <stop offset="0.290196" stop-opacity="1" stop-color="#AFAFAF"/>
     <stop offset="0.639216" stop-opacity="1" stop-color="#515151"/>
     <stop offset="0.878431" stop-opacity="1" stop-color="#171717"/>
     <stop offset="1" stop-opacity="1" stop-color="black"/>
    </radialGradient>
    <linearGradient id="id5" gradientUnits="userSpaceOnUse" x1="7941.52" y1="181.87" x2="11460.84" y2="4334.49">
     <stop offset="0" stop-opacity="1" stop-color="white"/>
     <stop offset="1" stop-opacity="1" stop-color="black"/>
    </linearGradient>
    <radialGradient id="id6" gradientUnits="userSpaceOnUse" gradientTransform="matrix(3.68289 -0 -0 3.68289 -2606 -12116)" cx="971.47" cy="4516.01" r="364.79" fx="971.47" fy="4516.01">
     <stop offset="0" stop-opacity="1" stop-color="white"/>
     <stop offset="0.290196" stop-opacity="1" stop-color="#AFAFAF"/>
     <stop offset="0.639216" stop-opacity="1" stop-color="#515151"/>
     <stop offset="0.878431" stop-opacity="1" stop-color="#171717"/>
     <stop offset="1" stop-opacity="1" stop-color="black"/>
    </radialGradient>
    <radialGradient id="id7" gradientUnits="userSpaceOnUse" gradientTransform="matrix(3.73485 -0 -0 3.73477 -6138 -12435)" cx="2244.23" cy="4547.02" r="245.27" fx="2244.23" fy="4547.02">
     <stop offset="0" stop-opacity="1" stop-color="white"/>
     <stop offset="0.290196" stop-opacity="1" stop-color="#AFAFAF"/>
     <stop offset="0.639216" stop-opacity="1" stop-color="#515151"/>
     <stop offset="0.878431" stop-opacity="1" stop-color="#171717"/>
     <stop offset="1" stop-opacity="1" stop-color="black"/>
    </radialGradient>
    <radialGradient id="id8" gradientUnits="userSpaceOnUse" gradientTransform="matrix(1.11508 -0 -0 1.11508 -389 -290)" cx="3376.92" cy="2521.33" r="3121.64" fx="3376.92" fy="2521.33">
     <stop offset="0" stop-opacity="1" stop-color="white"/>
     <stop offset="0.290196" stop-opacity="1" stop-color="#AFAFAF"/>
     <stop offset="0.639216" stop-opacity="1" stop-color="#515151"/>
     <stop offset="0.878431" stop-opacity="1" stop-color="#171717"/>
     <stop offset="1" stop-opacity="1" stop-color="black"/>
    </radialGradient>
    <radialGradient id="id9" gradientUnits="userSpaceOnUse" gradientTransform="matrix(1.68212 -0 -0 1.75922 -4505 -3820)" cx="6604.81" cy="5032.11" r="707.4" fx="6604.81" fy="5032.11">
     <stop offset="0" stop-opacity="1" stop-color="white"/>
     <stop offset="0.290196" stop-opacity="1" stop-color="#AFAFAF"/>
     <stop offset="0.639216" stop-opacity="1" stop-color="#515151"/>
     <stop offset="0.878431" stop-opacity="1" stop-color="#171717"/>
     <stop offset="1" stop-opacity="1" stop-color="black"/>
    </radialGradient>
    <radialGradient id="id10" gradientUnits="userSpaceOnUse" gradientTransform="matrix(2.26593 -0 -0 2.25276 -6743 -6239)" cx="5326.38" cy="4980.25" r="518.16" fx="5326.38" fy="4980.25">
     <stop offset="0" stop-opacity="1" stop-color="white"/>
     <stop offset="0.290196" stop-opacity="1" stop-color="#AFAFAF"/>
     <stop offset="0.639216" stop-opacity="1" stop-color="#515151"/>
     <stop offset="0.878431" stop-opacity="1" stop-color="#171717"/>
     <stop offset="1" stop-opacity="1" stop-color="black"/>
    </radialGradient>
    <radialGradient id="id11" gradientUnits="userSpaceOnUse" gradientTransform="matrix(2.69841 -0 -0 2.67621 -7762 -8296)" cx="4569.9" cy="4949.23" r="386.23" fx="4569.9" fy="4949.23">
     <stop offset="0" stop-opacity="1" stop-color="white"/>
     <stop offset="0.290196" stop-opacity="1" stop-color="#AFAFAF"/>
     <stop offset="0.639216" stop-opacity="1" stop-color="#515151"/>
     <stop offset="0.878431" stop-opacity="1" stop-color="#171717"/>
     <stop offset="1" stop-opacity="1" stop-color="black"/>
    </radialGradient>
    <radialGradient id="id12" gradientUnits="userSpaceOnUse" gradientTransform="matrix(2.34156 -0 -0 2.34156 -5170 -6625)" cx="3853.59" cy="4938.26" r="430.32" fx="3853.59" fy="4938.26">
     <stop offset="0" stop-opacity="1" stop-color="white"/>
     <stop offset="0.290196" stop-opacity="1" stop-color="#AFAFAF"/>
     <stop offset="0.639216" stop-opacity="1" stop-color="#515151"/>
     <stop offset="0.878431" stop-opacity="1" stop-color="#171717"/>
     <stop offset="1" stop-opacity="1" stop-color="black"/>
    </radialGradient>
    <radialGradient id="id13" gradientUnits="userSpaceOnUse" gradientTransform="matrix(1.53073 -0 -0 1.53737 -4477 -2741)" cx="8435.03" cy="5101.07" r="824.16" fx="8435.03" fy="5101.07">
     <stop offset="0" stop-opacity="1" stop-color="white"/>
     <stop offset="0.290196" stop-opacity="1" stop-color="#AFAFAF"/>
     <stop offset="0.639216" stop-opacity="1" stop-color="#515151"/>
     <stop offset="0.878431" stop-opacity="1" stop-color="#171717"/>
     <stop offset="1" stop-opacity="1" stop-color="black"/>
    </radialGradient>
    <radialGradient id="id14" gradientUnits="userSpaceOnUse" gradientTransform="matrix(2.08094 -0 -0 2.16466 -10580 -5906)" cx="9788.14" cy="5070.95" r="473.33" fx="9788.14" fy="5070.95">
     <stop offset="0" stop-opacity="1" stop-color="white"/>
     <stop offset="0.290196" stop-opacity="1" stop-color="#AFAFAF"/>
     <stop offset="0.639216" stop-opacity="1" stop-color="#515151"/>
     <stop offset="0.878431" stop-opacity="1" stop-color="#171717"/>
     <stop offset="1" stop-opacity="1" stop-color="black"/>
    </radialGradient>
    <radialGradient id="id15" gradientUnits="userSpaceOnUse" gradientTransform="matrix(2.21916 -0 -0 2.28247 -12870 -6449)" cx="10556.12" cy="5028.97" r="408.95" fx="10556.12" fy="5028.97">
     <stop offset="0" stop-opacity="1" stop-color="white"/>
     <stop offset="0.290196" stop-opacity="1" stop-color="#AFAFAF"/>
     <stop offset="0.639216" stop-opacity="1" stop-color="#515151"/>
     <stop offset="0.878431" stop-opacity="1" stop-color="#171717"/>
     <stop offset="1" stop-opacity="1" stop-color="black"/>
    </radialGradient>
    <radialGradient id="id16" gradientUnits="userSpaceOnUse" gradientTransform="matrix(0.695102 -0 -0 0.630441 2313 1927)" cx="7585.9" cy="5214.48" r="1976.72" fx="7585.9" fy="5214.48">
     <stop offset="0" stop-opacity="1" stop-color="white"/>
     <stop offset="0.290196" stop-opacity="1" stop-color="#AFAFAF"/>
     <stop offset="0.639216" stop-opacity="1" stop-color="#515151"/>
     <stop offset="0.878431" stop-opacity="1" stop-color="#171717"/>
     <stop offset="1" stop-opacity="1" stop-color="black"/>
    </radialGradient>
    <radialGradient id="id17" gradientUnits="userSpaceOnUse" gradientTransform="matrix(0.704194 -0 -0 0.655037 2242 1271)" cx="7580.63" cy="3685.46" r="3555.53" fx="7580.63" fy="3685.46">
     <stop offset="0" stop-opacity="1" stop-color="white"/>
     <stop offset="0.290196" stop-opacity="1" stop-color="#AFAFAF"/>
     <stop offset="0.639216" stop-opacity="1" stop-color="#515151"/>
     <stop offset="0.878431" stop-opacity="1" stop-color="#171717"/>
     <stop offset="1" stop-opacity="1" stop-color="black"/>
    </radialGradient>
    <radialGradient id="id18" gradientUnits="userSpaceOnUse" gradientTransform="matrix(1.43244 -0 -0 1.43242 -3327 -1092)" cx="7694.69" cy="2525.75" r="4241.9" fx="7694.69" fy="2525.75">
     <stop offset="0" stop-opacity="1" stop-color="white"/>
     <stop offset="0.290196" stop-opacity="1" stop-color="#AFAFAF"/>
     <stop offset="0.639216" stop-opacity="1" stop-color="#515151"/>
     <stop offset="0.878431" stop-opacity="1" stop-color="#171717"/>
     <stop offset="1" stop-opacity="1" stop-color="black"/>
    </radialGradient>
    <radialGradient id="id19" gradientUnits="userSpaceOnUse" gradientTransform="matrix(2.00649 -0 -0 2.0098 -5758 -22)" cx="5720.63" cy="21.95" r="2305.85" fx="5720.63" fy="21.95">
     <stop offset="0" stop-opacity="1" stop-color="white"/>
     <stop offset="0.290196" stop-opacity="1" stop-color="#AFAFAF"/>
     <stop offset="0.639216" stop-opacity="1" stop-color="#515151"/>
     <stop offset="0.878431" stop-opacity="1" stop-color="#171717"/>
     <stop offset="1" stop-opacity="1" stop-color="black"/>
    </radialGradient>
 </defs>
 <g id="Camada_x0020_1">
  <metadata id="CorelCorpID_0Corel-Layer"/>
  <g id="_2000862074816">
   <path fill="#9BAE9B" fill-rule="nonzero" fill-opacity="0.478431" d="M7488.38 8029.11l686.77 -851.14 473.27 -662.59 354.96 -71 307.63 -378.62 1490.85 -212.98c0,0 94.65,-71 236.64,-189.31 141.98,-118.32 757.25,-709.92 757.25,-709.92l1396.19 -354.96c0,0 331.29,-804.58 757.25,-1230.56 425.95,-425.95 946.58,-615.27 946.58,-615.27l-2011.46 -260.31 71 -236.64 -780.94 -189.31 -780.91 -118.32 638.92 354.96c0,0 -2887.06,378.62 -4283.23,354.96 -1396.19,-23.67 -3691.63,-165.65 -3691.63,-165.65l-1041.25 -212.98 567.94 -283.96 -1135.9 141.98 -449.61 94.65 141.98 236.64 -2058.79 283.96 591.6 236.64c0,0 544.27,591.6 780.94,899.25 236.64,307.63 331.29,757.25 331.29,757.25l1397.3 284.03 564.88 564.88 427.48 366.41 1465.63 213.74 305.34 366.41 320.6 45.8 1221.42 1541.94z"/>
   <path fill="#2B6A98" fill-rule="nonzero" d="M3016.33 2279.46l4470.76 -2219.12 4545.32 2242.79c0,0 -1997.17,446.93 -5336.31,350.93 -2520.12,-18.42 -3679.77,-374.6 -3679.77,-374.6z"/>
   <path fill="#C24030" fill-rule="nonzero" d="M13191.98 4598.56c0,0 318.32,-741.95 499.78,-956.41 181.46,-214.44 742.31,-709.33 742.31,-709.33 0,0 -1748.56,428.88 -2886.78,560.85 -1138.22,131.96 -2474.38,296.91 -2474.38,296.91 0,0 -2111.49,65.99 -3167.23,-33.01 -1055.74,-98.96 -3035.27,-379.41 -3035.27,-379.41l-2375.42 -494.9c0,0 593.86,494.9 841.31,841.31 247.45,346.41 449.52,921.24 449.52,921.24 0,0 1628.97,315.93 2651.72,414.92 1022.74,98.99 2672.33,214.44 2672.33,214.44l1814.55 -0.01 2424.92 -263.94c-0.03,0.09 1606.8,-281.03 1842.64,-412.66z"/>
   <path fill="#FBB040" fill-rule="nonzero" d="M13763.52 3560.76l-806.49 146.78 -175.45 687.81 529.39 -130.38c0,0 363.38,-661.74 452.55,-704.21 89.18,-42.5 0,0 0,0z"/>
   <polygon fill="#FBB040" fill-rule="nonzero" points="12016.1,3870.87 11780.98,4597.67 12520.45,4461.18 12683.99,3700.37 "/>
   <path fill="#FBB040" fill-rule="nonzero" d="M1640.99 4279.87c-41.07,-7.94 -143.72,-258.29 -164.76,-294.96 -82.84,-144.52 -170.66,-287.04 -271.2,-409.67 242.83,-145.01 611.54,95.32 848.05,167.84l185.25 652.26c0.01,0.01 -597.27,-115.44 -597.33,-115.47z"/>
   <polygon fill="#FBB040" fill-rule="nonzero" points="2335.94,3700.37 2499.48,4461.18 3238.96,4597.67 3003.85,3870.87 "/>
   <path fill="#2B6A98" fill-rule="nonzero" d="M5197.62 4083.62c-28.15,-0.15 -56.27,-0.67 -84.36,-2.75 -67.27,-4.97 -128.58,-18.01 -195.3,-14.38 -74.26,4.03 -153.37,-5.59 -227.27,-12.64 -79.36,-7.57 -158.16,-20.18 -236.88,-32.8 -188.03,-30.11 -385.92,-46.81 -569.61,-95.54 -161.98,-42.96 -357.06,-71.35 -525.34,-65.56 -8.27,0.28 -17.5,1.07 -22.99,7.27 -7.27,8.18 -4.06,20.91 -0.43,31.26 95.27,270.87 208.25,535.53 337.92,791.68 9.53,18.78 192.76,25.04 220.06,28.94 76.27,10.93 152.46,22.72 228.45,35.48 63.58,10.65 123.93,5.14 187.79,9.77 98.16,7.14 196.34,14.29 294.5,21.41 305.76,22.23 611.54,44.49 917.3,66.72 312.88,22.75 625.77,45.49 938.65,68.27 153.43,11.15 306.87,22.32 460.3,33.47 0.48,0.03 1,0.06 1.5,0.13l2401.93 -82.26 2054.17 -199.85 315.41 -797.79 -3060.54 323.11c-81.86,-0.7 -156.25,-11.73 -239.36,-7.03 -99.18,5.62 -198.41,10.39 -297.65,14.29 -195.41,7.72 -390.95,12.24 -586.53,13.43 -155.06,0.98 -310.14,-0.13 -465.16,-3.23 -149.28,-3.02 -313.83,9.35 -461.03,-16.18 -136.77,-23.73 -280.82,-16.09 -420.39,-23.02 -152.61,-7.61 -305.07,-19.96 -456.42,-41.13 -139.45,-19.51 -278.41,-46.47 -419.17,-50.32 -29.82,-0.82 -59.69,-0.58 -89.55,-0.76z"/>
   <path fill="url(#id0)" fill-rule="nonzero" d="M4490.52 2321.51c516.94,44.95 1036.76,61.83 1555.22,79.7 481.06,16.58 1507.65,216.24 1505.67,-537.43 -1.56,-593.36 -57.16,-1197.15 -81.07,-1791.86 -546.98,276.73 -1093.97,553.49 -1640.99,830.22 -424.7,214.87 -849.4,429.73 -1274.1,644.6 -171.2,86.62 -343.75,171.05 -513.79,259.94 -156.73,81.93 -372.61,248.64 -156.1,422.75 119.3,95.94 459.61,79.41 605.16,92.08z"/>
   <path fill="#113E5E" fill-rule="nonzero" d="M3595.26 2032.42c0,0 -127.94,168.7 112.82,248.97 240.73,80.24 1885.81,220.66 3310.2,220.66 1424.38,0 3570.99,-140.42 3570.99,-140.42 0,0 902.77,-80.24 942.89,-140.42 40.13,-60.18 -40.13,-140.42 -40.13,-140.42l497.98 190.47c0,0 -1942.45,411.38 -3828.24,411.38 -1885.79,0 -4172.84,-180.55 -4172.84,-180.55l-1000.84 -218.1 607.18 -251.57 0 0z"/>
   <path fill="#7F8B7F" fill-rule="nonzero" d="M7620.11 2923.34l-2307.13 -40.13 -1524.69 -120.37 -1344.14 -300.94 -361.71 -228.88 104.15 481.19c0,0 919.62,369.62 2103.28,469.95 1183.65,100.31 2487.67,180.55 2487.67,180.55l2307.13 -60.18c0,0 1364.2,0 2246.91,-180.55 882.7,-180.55 1493.09,-384.33 1493.09,-384.33l86.71 -468.52c0,0 -977.95,411.51 -2663.11,531.87 -1685.17,120.37 -2628.16,120.33 -2628.16,120.33l0 0z"/>
   <path fill="#7F8B7F" fill-rule="nonzero" d="M3163.15 4915.1l825.76 756.69c0,0 601.86,200.61 2146.6,280.85 1544.74,80.24 3049.37,0 3530.86,-40.13 481.49,-40.13 1003.11,-180.55 1003.11,-180.55l649.74 -723.69c0,0 -1773.2,222.13 -2896.67,242.2 -1123.47,20.07 -3871.93,-160.49 -3871.93,-160.49l-1387.47 -174.88 0 0z"/>
   <path fill="#708CB1" fill-rule="nonzero" d="M3625.18 4136l241.37 564.21c0,0 1581.79,220.15 2557.1,231.39 975.32,11.21 1940.89,-29.25 1940.89,-29.25l1315.95 -13.04 1502.76 -184.02 218.51 -537.22 -2186.67 203.02 -2376.61 78.47 -2264.53 -213 -948.77 -100.55 0 0z"/>
   <path fill="url(#id1)" fill-rule="nonzero" d="M3930.31 4616.41c521.34,70.02 1044.57,129.22 1568.78,173.04 628.63,52.54 1260.17,64.19 1890.67,49.01 580.15,-13.95 1161.27,-15.23 1737,-55.6 664.84,-46.6 1330.52,-81 1991.89,-162.02l141.44 -347.72 -2036.53 189.1 -2.71 0.24 -2.75 0.09c-375.66,12.39 -751.32,24.82 -1127.01,37.22 -269.01,8.89 -537.98,17.77 -806.99,26.66 -341.53,11.26 -655.2,-4.62 -998.37,-36.88 -247.78,-23.32 -495.57,-46.62 -743.35,-69.96 -325.67,-30.63 -651.39,-61.28 -977.06,-91.94l-794.5 -84.15 159.5 372.92z"/>
   <path fill="#171E32" fill-rule="nonzero" d="M5710.91 6079.79l128.64 285.22c0,0 213.74,122.13 320.6,122.13 106.86,0 977.09,122.13 977.09,122.13l1150.15 -38.85 715.99 -126.08 210.16 -201.5 79.94 -206.99c0,0 -1407.29,148.68 -1895.83,133.41 -488.54,-15.27 -1686.76,-89.48 -1686.76,-89.48l0 0z"/>
   <path fill="#3D3D4B" fill-rule="nonzero" d="M7500.5 8002l1182.92 -1488.1c0,0 -431.99,102.87 -1100.6,87.42 -668.57,-15.42 -1301.15,-97.71 -1301.15,-97.71l1218.83 1498.4 0 0z"/>
   <path fill="#3D3D4B" fill-rule="nonzero" fill-opacity="0.458824" d="M6209.65 6123.03l195.41 385.7c0,0 318.86,66.87 966.86,82.29 647.99,15.42 1198.31,-35.99 1203.44,-51.42 5.14,-15.42 174.87,-262.29 180,-277.71 5.14,-15.42 56.58,-164.58 56.58,-164.58 0,0 -894.82,113.13 -2602.28,25.71z"/>
   <path fill="url(#id2)" fill-rule="nonzero" d="M6881 6255.76c-37.77,9.71 -74.1,21.83 -108.58,36.83 -137.47,59.85 34.88,139.7 101.71,153.19 147.75,29.8 303.63,39.81 453.92,52.12 72.82,5.95 145.74,11.94 218.81,12.76 199.29,2.26 396.85,-33.71 592.91,-69.55 184.64,-33.74 206.35,-152.37 11.78,-199.11 -148.94,-35.79 -315.78,-2.35 -467.66,-5.29 -242.4,-4.67 -553.7,-45.04 -802.88,19.05z"/>
   <polygon fill="url(#id3)" fill-rule="nonzero" points="7480.84,7999.46 7366.24,6639.82 6706.96,6526.74 6267.01,6487.15 "/>
   <path fill="#7F8B7F" fill-rule="nonzero" fill-opacity="0.368627" d="M7722.48 2950.3l0 407.11 692.11 447.84 1.93 366.65 486.59 223.66 -142.5 488.54 -284.98 -20.37 -53.06 386.79 -496.55 0 -40.7 834.59 366.41 40.7 -164.76 459.69 -586.77 1363.28 1075.16 -1409.24 415.11 -45.99 352.61 -428.73 1229.21 -224.06 746.92 -832.54 1634.74 -348.12c0,0 81.43,-488.54 366.41,-895.65 284.98,-407.11 875.32,-814.25 875.32,-814.25l-1405.27 -224.82 120.92 -454.35c0,0 -1015.87,333.13 -2135.46,455.26 -1119.59,122.13 -3053.36,223.98 -3053.36,223.98l0 0z"/>
   <path fill="url(#id4)" fill-rule="nonzero" d="M4424.81 3947.72c0,0 748.21,130.53 1737.96,228.12 989.73,97.59 2253.75,-3.97 2253.75,-3.97l405.18 223.69c0,0 -1811.67,81.43 -3134.84,-61.07 -1323.12,-142.5 -1262.06,-386.77 -1262.06,-386.77l0 0z"/>
   <path fill="#F8FAEC" fill-rule="nonzero" fill-opacity="0.478431" d="M2186.6 2714.2l-1525.48 197.31c0,0 2229.75,557.43 4191.9,735.81 1962.18,178.38 1583.13,156.1 1583.13,156.1l-535.14 -490.53c0.01,0 -2991.62,-171.63 -3714.4,-598.68z"/>
   <path fill="url(#id5)" fill-rule="nonzero" d="M7470.33 71.89c0,0 1641.48,1546.39 1686.06,1791.65 44.58,245.26 -579.72,468.24 -579.72,468.24 0,0 1114.86,0 1471.62,-44.62 356.76,-44.62 780.42,-44.62 758.1,-200.66 -22.26,-156.07 -3336.06,-2014.61 -3336.06,-2014.61z"/>
   <path fill="#7F8B7F" fill-rule="nonzero" fill-opacity="0.368627" d="M3604.36 5029.79l289.86 312.15c0,0 2385.81,222.96 4125.03,200.66 1739.19,-22.28 3054.75,-200.66 3054.75,-200.66l245.25 -333.61c-0.01,0 -3233.11,601.19 -7714.89,21.47z"/>
   <path fill="url(#id6)" fill-rule="nonzero" d="M1336.27 3724.64l573.49 56.49 156.1 512.84 -424.85 -14.08c-0.01,-0.02 -173.51,-405.85 -304.74,-555.26z"/>
   <polygon fill="url(#id7)" fill-rule="nonzero" points="2489.5,3914.89 2600.98,4316.27 2980.03,4383.13 2890.84,3981.79 "/>
   <path fill="url(#id8)" fill-rule="nonzero" d="M1129.36 3089.9l356.76 490.53c0,0 2415.76,376.58 3627.14,500.45 1211.38,123.87 2259.36,146.17 2259.36,146.17l0 -423.66c0,0 -2140.56,0 -3634.47,-245.28 -1493.93,-245.22 -2608.79,-468.21 -2608.79,-468.21z"/>
   <path fill="#7F8B7F" fill-rule="nonzero" fill-opacity="0.639216" d="M9937.24 5955.03c0,0 274.2,-198.01 540.76,-502.68 266.56,-304.63 289.43,-373.22 289.43,-373.22l-144.71 38.07c0,0 -236.12,319.88 -449.37,525.52 -213.26,205.65 -357.98,335.11 -357.98,335.11l121.87 -22.8z"/>
   <path fill="#7F8B7F" fill-rule="nonzero" fill-opacity="0.639216" d="M9190.84 6038.81c0,0 220.88,-357.98 312.27,-525.52 91.39,-167.57 121.87,-319.88 121.87,-319.88l-121.87 7.61c0,0 -121.87,327.51 -220.88,502.68 -99.02,175.17 -205.65,357.98 -205.65,357.98l114.26 -22.87z"/>
   <path fill="#7F8B7F" fill-rule="nonzero" fill-opacity="0.639216" d="M7568.57 5284.77c0,0 -60.91,350.34 -45.71,510.28 15.23,159.94 45.71,342.74 45.71,342.74l-60.92 0.01c0,0 -38.07,-190.41 -45.71,-464.61 -7.61,-274.2 15.23,-411.29 15.23,-411.29l91.4 22.86z"/>
   <path fill="#7F8B7F" fill-rule="nonzero" fill-opacity="0.639216" d="M5748.25 5201.03c0,0 45.71,243.72 182.78,495.08 137.1,251.33 278.62,426.93 278.62,426.93l-95.82 -30.91c0,0 -198.01,-236.12 -327.51,-495.08 -129.5,-258.96 -144.71,-411.29 -144.71,-411.29l106.63 15.27z"/>
   <path fill="#7F8B7F" fill-rule="nonzero" fill-opacity="0.639216" d="M4491.56 5094.37c0,0 159.94,297.04 365.59,525.52 205.65,228.49 403.66,396.06 403.66,396.06l83.78 7.61c0,0 -411.29,-388.43 -578.83,-632.15 -167.57,-243.72 -167.57,-297.04 -167.57,-297.04l-106.63 0.01z"/>
   <path fill="#7F8B7F" fill-rule="nonzero" fill-opacity="0.368627" d="M3828.9 5025.84l403.66 487.44 373.18 403.66 91.39 7.61c0,0 -411.29,-464.61 -571.23,-677.86 -159.94,-213.26 -159.94,-213.26 -159.94,-213.26l-137.07 -7.59z"/>
   <path fill="url(#id9)" fill-rule="nonzero" d="M6061.23 5805.48c11.48,19.57 20.37,34.66 24.95,43.48 7.14,13.77 14.84,28.15 27.88,36.55 12.61,8.09 28.27,9.35 43.21,10.39 351.88,24.03 703.75,48.07 1055.63,72.09 33.52,2.29 74.14,1.1 91.39,-27.72 9.89,-16.55 8.42,-37.22 6.66,-56.4 -8.31,-88.94 -31.3,-186.84 -27.05,-275.91 2.47,-51.94 50.11,-157.64 1.13,-198.53 -8.92,-7.46 -20.91,-9.8 -32.39,-11.76 -148.12,-25.34 -288.86,-0.98 -436.57,-13.89 -145.04,-12.67 -290.84,-7.61 -436.24,-10.04 -143.17,-2.41 -286.59,-46.93 -430.04,-21.68 -140.55,24.78 38.44,329.18 111.46,453.42z"/>
   <path fill="url(#id10)" fill-rule="nonzero" d="M4948.53 5300.01c0,0 -114.26,-15.23 -129.46,30.48 -15.23,45.71 327.51,472.21 396.06,517.92 68.55,45.71 639.78,83.78 639.78,83.78 0,0 -137.1,-213.26 -205.65,-373.22 -68.55,-159.94 -91.39,-213.26 -175.17,-228.49 -83.82,-15.23 -525.55,-30.48 -525.55,-30.48z"/>
   <path fill="url(#id11)" fill-rule="nonzero" d="M4270.67 5246.7c0,0 -106.62,-22.84 -83.78,60.91 22.84,83.78 327.51,441.73 327.51,441.73 0,0 137.1,53.32 228.49,60.91 91.39,7.63 213.26,22.84 213.26,22.84 0,0 -236.12,-297.04 -297.04,-380.82 -60.91,-83.78 -53.32,-167.57 -137.1,-182.81 -83.75,-15.13 -251.33,-22.76 -251.33,-22.76z"/>
   <path fill="url(#id12)" fill-rule="nonzero" d="M3440.49 5201.03l441.73 53.32c0,0 83.78,15.23 121.87,83.78 38.07,68.55 297.04,388.43 297.04,388.43l-335.11 -38.07c-0.01,-0.01 -502.67,-464.62 -525.53,-487.46z"/>
   <path fill="url(#id13)" fill-rule="nonzero" d="M7720.9 5421.88c0,0 -83.78,0 -91.39,45.71 -7.63,45.71 7.61,411.29 7.61,449.37 0,38.07 22.84,53.32 22.84,53.32 0,0 1005.37,-30.48 1195.77,-30.48 190.41,0 266.56,-137.1 289.43,-182.81 22.84,-45.71 129.46,-304.67 129.46,-304.67 0,0 22.84,-68.55 -144.71,-60.91 -167.57,7.63 -1409.02,30.47 -1409.02,30.47z"/>
   <path fill="url(#id14)" fill-rule="nonzero" d="M9723.99 5360.95c0,0 -83.78,15.23 -129.46,76.16 -45.71,60.94 -114.26,258.96 -159.94,327.51 -45.71,68.55 -91.39,129.46 -91.39,129.46l510.28 -38.07c0,0 99.02,-83.78 182.81,-182.81 83.78,-99.02 182.81,-213.26 182.81,-213.26 0,0 121.87,-121.87 45.71,-114.26 -76.22,7.65 -540.83,15.28 -540.83,15.28z"/>
   <path fill="url(#id15)" fill-rule="nonzero" d="M10676.04 5307.65c0,0 -205.65,243.72 -281.79,312.27 -76.16,68.55 -198.01,175.17 -198.01,175.17 0,0 251.36,-68.55 380.82,-83.78 129.46,-15.23 152.33,-45.71 152.33,-45.71l274.2 -289.43c0,0 45.71,-99.02 -53.32,-91.39 -99.06,7.64 -274.24,22.87 -274.24,22.87z"/>
   <path fill="#AFBDAD" fill-rule="nonzero" d="M2053.05 2279.65c503.57,-139.72 1022.95,-200.76 1542.22,-247.23 30.78,-2.75 31.06,-51.17 0,-48.4 -523.45,46.87 -1047.41,108.12 -1555.07,248.97 -29.98,8.31 -17.25,55.02 12.86,46.66l0 0z"/>
   <path fill="#27AAE1" fill-rule="nonzero" d="M2989.77 2321.17c1209.79,-585.64 2414.14,-1183.14 3608.82,-1799.09 298.77,-154.04 594.95,-313.22 893.98,-466.81 21.98,-11.3 2.38,-45.34 -19.45,-33.32 -1142.31,630.71 -2321.99,1200.91 -3491.96,1777.94 -335.41,165.43 -671.2,330.04 -1007.59,493.53 -18.6,9.04 -2.33,36.73 16.2,27.75l0 0z"/>
   <path fill="#A85F4E" fill-rule="nonzero" d="M1786.42 4546.28c-136.36,-406.11 -366.04,-768.6 -652.85,-1085.12 -144.06,-158.96 -300.18,-314.07 -468.36,-447.66 -108.58,-86.23 -230.96,-156.86 -362.9,-190.72 29.71,14.78 52.49,41.41 66.2,72.28 114.9,44.12 220.42,116.15 315.78,197.83 154.08,132 300.58,273.92 435.66,425.33 271.88,304.76 489.49,652.69 619.84,1040.9 9.84,29.39 56.59,16.81 46.63,-12.83z"/>
   <path fill="white" fill-rule="nonzero" d="M25.44 2776.09c439.36,173.5 911.44,275.84 1376.47,371.54 475.23,97.77 954.61,176.91 1434.82,250.44 977.3,149.59 1952.56,268.97 2940.67,337.71 1013,70.44 2023.89,88.92 3038.11,26.62 499.41,-30.65 997.52,-78.14 1493.48,-140.18 123.48,-15.45 248.18,-18.07 371.72,-30.78 125.49,-12.89 249.92,-35.84 375.72,-48.27 240.51,-23.78 477.37,-54.78 716.3,-90.35 541.37,-80.64 1082.53,-164.02 1619.06,-269.21 524.55,-102.84 1060.66,-212.12 1555.37,-407.45 57.1,-22.54 7.85,-99.72 -48.85,-77.34 -447.66,176.76 -933.05,277.37 -1407.04,373.46 -469.58,95.21 -943.07,172.67 -1417.33,245 -485.31,74.02 -972.94,146.69 -1462.83,187.42 -485.16,40.33 -967.47,107.33 -1453.45,144.54 -1981.41,151.72 -3973.15,9.07 -5932.12,-282.77 -529.34,-78.87 -1058.46,-160.33 -1583.28,-262.26 -527.35,-102.41 -1070.71,-209.03 -1568.04,-405.4 -56.61,-22.43 -105.99,54.7 -48.79,77.29l0 0z"/>
   <path fill="#AFBDAD" fill-rule="nonzero" d="M49.83 2753.33c692.52,-76.12 1386.95,-151.61 2076.47,-251.6 23.02,-3.32 13.25,-38.33 -9.65,-34.99 -687.05,100.15 -1378.55,170.29 -2066.82,261.64 -15.54,2.08 -16.09,26.72 0,24.95l0 0z"/>
   <path fill="#515B53" fill-rule="nonzero" d="M2138.91 2732.86c625.4,256.27 1288.17,391.57 1957.38,470.23 717.79,84.36 1440.66,139.24 2162.55,173.07 1450.85,68.03 2903.81,-10.02 4348.39,-148.06 761.48,-72.76 1515.25,-203.78 2226.52,-495.23 28.42,-11.63 15.97,-58.48 -12.86,-46.66 -630.78,258.47 -1307.01,403.53 -1984.08,471.08 -716.88,71.52 -1435.25,129.74 -2154.97,163.54 -1423.78,66.87 -2847.11,15.9 -4264.69,-130.72 -774.15,-80.09 -1541.45,-207.27 -2265.38,-503.9 -28.79,-11.82 -41.35,34.99 -12.86,46.66l0 0z"/>
   <path fill="#515B53" fill-rule="nonzero" d="M2056.71 2326.36c642.59,259.64 1322.46,394.04 2008.74,473.1 720.85,83.02 1446.49,137.1 2171.25,170.87 1461.88,68.09 2925.96,-8.49 4381.78,-144.76 785.15,-73.5 1562.49,-202.26 2297.39,-499.2 57.01,-23.02 32.09,-116.7 -25.74,-93.32 -650.71,262.9 -1345.45,405.68 -2042.37,473.79 -716.14,69.98 -1433.69,126.93 -2152.53,160.15 -1439.07,66.51 -2877.62,15.85 -4310.61,-129.77 -786.23,-79.91 -1565.72,-206.6 -2302.23,-504.18 -57.68,-23.31 -82.78,70.25 -25.68,93.33l0 0z"/>
   <path fill="#515B53" fill-rule="nonzero" d="M2975.24 2330.61c562.25,131.85 1136.24,195.32 1710.58,247.21 592.12,53.52 1186.44,95.32 1780.59,116.97 1194.1,43.54 2389.56,-6.38 3579.87,-103.93 655.32,-53.71 1309.51,-109.83 1951.09,-260.27 30.32,-7.11 17.46,-53.77 -12.86,-46.66 -581.67,136.4 -1172.63,193.24 -1766.7,244.15 -588.97,50.44 -1178.95,90.02 -1769.67,112.7 -1168.54,44.86 -2333.35,6.68 -3498.5,-88.68 -657.77,-53.84 -1317.88,-117.25 -1961.54,-268.18 -30.32,-7.1 -43.27,39.54 -12.88,46.68l0 0z"/>
   <path fill="#AFBDAD" fill-rule="nonzero" d="M11374.75 2031.16c519.82,43.58 1040.66,97.19 1544.81,236.88 30.05,8.33 42.87,-38.35 12.86,-46.66 -508.27,-140.83 -1033.7,-194.69 -1557.69,-238.62 -31,-2.62 -30.81,45.8 0.02,48.4l0 0z"/>
   <path fill="#767973" fill-rule="nonzero" d="M3142.84 4935.43c167.69,162.39 335.48,324.67 506.26,483.79 161.68,150.63 320.51,310.1 496.79,443.69 12.12,9.19 25.65,-10.17 15.82,-20.48 -156.21,-163.76 -334.07,-308.73 -500.52,-462.04 -167.12,-153.93 -333.92,-308.15 -498.02,-465.28 -13.38,-12.81 -33.65,7.41 -20.33,20.32l0 0z"/>
   <path fill="#6B6363" fill-rule="nonzero" d="M6248.46 6481.99c394.13,524.45 796.75,1048.97 1230.65,1541.38 13.04,14.81 33.43,-6.53 21.37,-21.37 -413.31,-508.79 -831.31,-1011.59 -1226.89,-1534.7 -11.12,-14.75 -36.41,-0.33 -25.14,14.69l0 0z"/>
   <path fill="#27AAE1" fill-rule="nonzero" d="M11990.01 2271.22c-1203.77,-586.44 -2402.97,-1182.86 -3592.33,-1798.06 -296.82,-153.52 -598.35,-301.92 -888.45,-467.87 -43.45,-24.86 -83.11,44.73 -38.93,66.6 551.72,272.98 1092.75,569.24 1642.03,847.41 611.13,309.53 1224.38,614.92 1839.13,917.21 334.78,164.61 670.22,327.87 1006.09,490.19 37.09,17.91 69.7,-37.36 32.45,-55.49l0 0z"/>
   <path fill="#A85F4E" fill-rule="nonzero" d="M14736.13 2808.99c-157.19,24.58 -302.35,104.15 -428.7,204.52 -168.16,133.62 -324.33,288.67 -468.36,447.66 -286.8,316.48 -516.48,679.05 -652.85,1085.12 -9.96,29.59 36.77,42.28 46.66,12.86 130.35,-388.17 347.97,-736.14 619.84,-1040.9 131.69,-147.64 274.41,-285.15 423.66,-414.92 126.14,-109.68 269.92,-203.82 430.23,-238.9 6.08,-20.14 16.16,-38.71 29.53,-55.44z"/>
   <path fill="#AFBDAD" fill-rule="nonzero" d="M14922.78 2728.38c-676.75,-89.96 -1356.45,-159.9 -2032.28,-256.61 -22.84,-3.27 -32.71,31.72 -9.65,34.99 678.35,96.55 1360.9,171.85 2041.93,246.56 16.09,1.78 15.6,-22.86 0,-24.94l0 0z"/>
   <path fill="#767973" fill-rule="nonzero" d="M11809.5 4915.1c-164.09,157.12 -330.9,311.36 -498.02,465.28 -166.44,153.28 -344.3,298.29 -500.52,462.04 -9.74,10.22 3.54,29.77 15.82,20.48 176.3,-133.59 335.11,-293.07 496.79,-443.69 170.78,-159.11 338.56,-321.4 506.26,-483.79 13.28,-12.9 -6.99,-33.12 -20.33,-20.32l0 0z"/>
   <path fill="#464041" fill-rule="nonzero" d="M8645.65 6514.01c-194.38,254.84 -391.38,507.72 -592.06,757.61 -194.38,242.05 -401.34,475.02 -592.15,719.66 -23.23,29.8 15.79,72.21 42.78,42.78 217.62,-237.25 415.59,-496.33 616.33,-747.9 195.36,-244.82 387.3,-492.33 575.38,-742.78 22.57,-30.04 -27.86,-58.72 -50.28,-29.37l0 0z"/>
   <path fill="#515B53" fill-rule="nonzero" d="M2042.67 2299.41c22.8,74.08 43.58,148.31 68.46,222.01 21.41,63.39 34.45,139.51 75.49,192.79 9.92,12.89 34.66,10.81 33.8,-9.16 -3.08,-71.85 -45.22,-143.57 -71.45,-210.14 -27.24,-69.1 -58.01,-135.63 -86.96,-203.67 -4.72,-11.08 -22.85,-3.17 -19.34,8.16l0 0z"/>
   <path fill="#646F65" fill-rule="nonzero" d="M12911.32 2271.13c-32.24,70.29 -37.86,152.43 -57.64,227.23 -19.81,74.9 -58.38,149.92 -63.26,227.12 -1.04,16.27 23.48,27.88 34.19,14.17 48.92,-62.47 65.47,-149.96 84.76,-225.93 19.39,-76.34 44.43,-159.75 33.04,-238.53 -2.02,-14.17 -25.23,-16.8 -31.09,-4.06l0 0z"/>
   <path fill="#464041" fill-rule="nonzero" d="M7500.22 7948.81c230.66,-435.07 413.7,-902.92 586.77,-1363.28 3.49,-9.22 -11.33,-13.23 -14.78,-4.06 -174.08,463.6 -381.46,909.97 -578.04,1363.84 -1.73,3.99 3.88,7.59 6.05,3.51l0 0z"/>
   <path fill="#3C463F" fill-rule="nonzero" d="M9830.47 5978.85c298.65,-247.27 562.65,-542.84 798.07,-849.92 7.18,-9.35 -8.74,-18.5 -15.82,-9.26 -237.71,310.04 -507.02,583.45 -793.18,848.21 -7.48,6.87 3.37,17.18 10.94,10.96l0 0z"/>
   <path fill="#0E4E80" fill-rule="nonzero" d="M3301.18 3894.02c1095.81,149.98 2192.22,302.29 3298.25,350.9 1099.59,48.31 2199.58,3.3 3293.31,-116.88 607.11,-66.72 1212.04,-151.18 1817.09,-233.98 46.08,-6.32 26.47,-76.25 -19.3,-69.98 -1087.59,148.85 -2176.19,300.97 -3274.01,347.87 -1074.89,45.9 -2149.14,6.72 -3218.72,-107.88 -627.35,-67.2 -1252.3,-154.45 -1877.33,-239.97 -45.69,-6.32 -65.45,63.6 -19.31,69.92l0 0z"/>
   <path fill="#2B3990" fill-rule="nonzero" d="M3628.61 4142.5c1005.37,137.43 2012.22,266.69 3026.9,308.45 1016.69,41.86 2034.73,5.49 3046.72,-98.96 567.85,-58.63 1133.67,-134.75 1699.19,-212.06 30.72,-4.21 17.65,-50.84 -12.86,-46.66 -1012.27,138.44 -2026.18,269.38 -3047.96,309.62 -990.62,39 -1981.5,6.6 -2967.82,-92.8 -578.63,-58.33 -1155.14,-135.45 -1731.28,-214.22 -30.48,-4.19 -43.67,42.4 -12.89,46.62l0 0z"/>
   <path fill="#033F6C" fill-rule="nonzero" d="M3645.16 4704.08c1992.26,312.15 4026.61,324.24 6035.29,185.22 564.05,-39.05 1126.74,-97.83 1685.42,-185.22 30.69,-4.79 17.65,-51.42 -12.86,-46.66 -988.73,154.65 -1988.96,216.95 -2988.52,244.91 -994.8,27.85 -1989.26,28.18 -2982.2,-46.17 -577.18,-43.24 -1152.47,-109.13 -1724.29,-198.75 -30.44,-4.79 -43.58,41.85 -12.86,46.67l0 0z"/>
   <path fill="#0E4E80" fill-rule="nonzero" d="M3282.98 3808.82c114.35,287.69 242.48,570.52 364.39,855.11 4.21,9.8 18.57,1.34 14.36,-8.4 -122.04,-283.72 -238.56,-570.8 -368.06,-851.2 -2.75,-5.99 -13.16,-1.71 -10.69,4.49l0 0z"/>
   <path fill="#0E4E80" fill-rule="nonzero" d="M11685.01 3850.14c-135.42,254.02 -235.93,532.73 -350.07,796.97 -12.64,29.22 30.54,54.62 43.08,25.19 113.74,-266.6 247.63,-533.62 339.12,-808.6 6.28,-18.88 -22.76,-31.12 -32.13,-13.56l0 0z"/>
   <path fill="#A13C16" fill-rule="nonzero" d="M12001.04 3844.06c-46.2,120.83 -86.05,244.52 -129.68,366.35 -43.32,120.94 -95.94,242.41 -127.73,366.89 -4.95,19.45 24.64,33.8 33.67,14.19 52.15,-112.85 87.03,-235.26 128.4,-352.49 45.13,-127.88 94.5,-254.78 136.88,-383.51 8.81,-26.67 -31.81,-36.87 -41.55,-11.44l0 0z"/>
   <path fill="#A13C16" fill-rule="nonzero" d="M11788.67 4625.57c251.81,-37.16 504.05,-93.67 754.13,-141.95 29.71,-5.74 16.64,-49.28 -12.37,-44.86 -249.16,38.26 -508.52,84.12 -749.46,158.9 -18.22,5.68 -10.32,30.56 7.7,27.9l0 0z"/>
   <path fill="#A13C16" fill-rule="nonzero" d="M12016.1 3870.87c229.55,-9.71 459.82,-64.12 681.76,-120.22 32.52,-8.22 18.72,-58.78 -13.86,-50.32 -222.2,57.71 -448.26,91.35 -671.84,141.55 -16.13,3.67 -12.74,29.68 3.94,28.98l0 0z"/>
   <path fill="#A13C16" fill-rule="nonzero" d="M12690.03 3744.76c-65.04,101.68 -79.61,249.12 -103.73,366.11 -22.5,109.2 -72.34,239.69 -65.86,350.32 0.95,16.09 21.19,21.86 30.11,8.15 59.94,-92.21 65.99,-237.58 87.12,-344.3 24.03,-121.26 75.94,-250.07 80.89,-372.55 0.63,-15.86 -20.74,-19.94 -28.53,-7.73l0 0z"/>
   <path fill="#A13C16" fill-rule="nonzero" d="M12781.58 4395.35c80.55,-212.74 132.43,-437.19 176.73,-660.02 5.16,-25.9 -32.52,-36.88 -39.91,-11 -62.93,219.94 -99.76,443.79 -180.57,658.96 -10.27,27.39 33.51,39.11 43.75,12.06l0 0z"/>
   <path fill="#A13C16" fill-rule="nonzero" d="M12966.85 3743.08c133.77,-26.1 266.69,-56.61 399.78,-85.95 130.9,-28.85 271.27,-49.55 396.91,-96.36 28.79,-10.72 27.94,-62.87 -7.91,-58.48 -130.11,15.88 -260.18,59.48 -386.74,93.15 -137.43,36.61 -275.32,72.06 -411.81,112.09 -23.02,6.73 -13.34,40.03 9.76,35.54l0 0z"/>
   <path fill="#A13C16" fill-rule="nonzero" d="M12736.73 4427.84c97.25,-17.55 194.35,-35.42 291.38,-54.23 95.12,-18.44 198.51,-28.12 289.12,-62.41 23.32,-8.83 22.11,-47.12 -6.25,-46.23 -93.62,2.93 -188.21,31.76 -279.75,50.54 -102.69,21.07 -205.1,42.93 -307.48,65.31 -30.89,6.79 -17.52,52.56 12.98,47.03l0 0z"/>
   <path fill="#A13C16" fill-rule="nonzero" d="M2977.35 3855.51c42.38,128.76 91.76,255.63 136.88,383.51 41.34,117.16 76.25,239.66 128.4,352.49 8.98,19.42 38.68,5.44 33.67,-14.19 -31.76,-124.45 -84.4,-245.95 -127.73,-366.89 -43.63,-121.83 -83.51,-245.52 -129.68,-366.35 -9.71,-25.41 -50.37,-15.3 -41.55,11.44l0 0z"/>
   <path fill="#A13C16" fill-rule="nonzero" d="M3238.96 4597.67c-240.94,-74.81 -500.3,-120.67 -749.46,-158.9 -28.98,-4.45 -42.13,39.09 -12.37,44.86 250.07,48.27 502.32,104.8 754.13,141.95 17.99,2.65 25.95,-22.23 7.7,-27.9l0 0z"/>
   <path fill="#A13C16" fill-rule="nonzero" d="M3007.79 3841.92c-223.57,-50.2 -449.65,-83.88 -671.84,-141.55 -32.52,-8.46 -46.44,42.08 -13.86,50.32 221.98,56.12 452.23,110.5 681.76,120.22 16.48,0.67 20.21,-25.32 3.94,-28.98l0 0z"/>
   <path fill="#A13C16" fill-rule="nonzero" d="M2301.38 3752.48c4.95,122.26 56.92,251.66 80.89,372.55 21.32,107.51 26.96,251.75 87.12,344.3 8.92,13.71 29.16,7.97 30.11,-8.15 6.44,-110.22 -43.48,-241.79 -65.86,-350.32 -24.25,-117.55 -38.53,-264.15 -103.73,-366.11 -7.79,-12.18 -29.16,-8.15 -28.53,7.73l0 0z"/>
   <path fill="#A13C16" fill-rule="nonzero" d="M2282.08 4383.29c-80.83,-215.17 -117.64,-439.02 -180.57,-658.96 -7.39,-25.83 -45.07,-14.93 -39.91,11 44.34,222.83 96.18,447.3 176.73,660.02 10.26,27.02 54.07,15.36 43.75,-12.06l0 0z"/>
   <path fill="#A13C16" fill-rule="nonzero" d="M2062.89 3707.55c-136.49,-40 -274.37,-75.49 -411.81,-112.09 -126.71,-33.74 -256.54,-77.29 -386.74,-93.15 -35.54,-4.34 -37.01,47.64 -7.91,58.48 125.74,46.84 265.93,67.51 396.91,96.36 133.1,29.35 266.02,59.85 399.78,85.95 23.01,4.48 32.79,-28.8 9.76,-35.54l0 0z"/>
   <path fill="#A13C16" fill-rule="nonzero" d="M2296.16 4380.81c-102.38,-22.38 -204.8,-44.27 -307.48,-65.31 -91.63,-18.78 -186.1,-47.6 -279.75,-50.54 -28.12,-0.89 -29.8,37.31 -6.25,46.23 90.63,34.32 194.02,43.97 289.12,62.41 97.03,18.81 194.13,36.68 291.38,54.23 30.48,5.49 43.97,-40.24 12.98,-47.03l0 0z"/>
   <path fill="#3C463F" fill-rule="nonzero" d="M4524.93 5163.28c177.49,318.17 407.39,609.46 696.51,834.04 15.75,12.24 38.33,-9.01 22.45,-22.45 -278.25,-235.84 -521.55,-502.59 -705.58,-819.42 -5.01,-8.6 -18.26,-0.88 -13.38,7.82l0 0z"/>
   <path fill="#4363AE" fill-rule="nonzero" d="M5679.12 6093.19c25.99,83.08 60.67,155.45 110.48,227.82 40.85,59.36 93.41,143.11 160.79,172.03 19.11,8.22 39.11,-8.83 28.98,-28.98 -33.65,-66.66 -105.38,-119.24 -148.94,-181.31 -44.58,-63.48 -84.55,-133.95 -119.51,-203 -8.9,-17.53 -37.66,-5.31 -31.79,13.43l0 0z"/>
   <path fill="#4363AE" fill-rule="nonzero" d="M8990.51 6493.62c138.14,-111.17 273.95,-268.97 352.61,-428.73 16.42,-33.34 -28.55,-59.44 -49.61,-29.01 -53.77,77.71 -101.26,157.62 -161.46,230.99 -55.42,67.48 -117.9,127.12 -179.48,188.79 -25,25.01 11.62,59.14 37.94,37.96l0 0z"/>
   <path fill="#3C463F" fill-rule="nonzero" d="M10478.85 5893.38c163.91,-129.77 316.97,-273.98 460.76,-425.65 134.69,-142.07 275.6,-292.79 379.63,-459.41 5.59,-8.94 -7.72,-19.66 -14.84,-11.45 -133.67,153.71 -253.04,317.71 -393.46,466.16 -140.18,148.18 -290.71,284.37 -445.7,416.7 -9.6,8.17 4.09,21.18 13.61,13.64l0 0z"/>
   <path fill="#3C463F" fill-rule="nonzero" d="M3821.39 5034.76c133.34,163.39 266.45,327.08 398.01,491.9 110.01,137.83 218.23,281.1 368.34,377.71 20.74,13.34 39.91,-19.72 19.27,-32.98 -157.43,-100.98 -269.25,-255.26 -388.34,-396.39 -127.81,-151.44 -254.99,-303.51 -381.53,-456.03 -9.19,-11.04 -24.72,4.81 -15.75,15.8l0 0z"/>
   <path fill="#3C463F" fill-rule="nonzero" d="M9091.2 6065.16c179.6,-255.17 317.98,-553.28 426.13,-845.21 6.57,-17.68 -21.34,-24.92 -28.07,-7.72 -115.88,295.63 -260.85,566.55 -413.7,843.81 -5.74,10.34 9.01,18.56 15.64,9.12l0 0z"/>
   <path fill="#3C463F" fill-rule="nonzero" d="M5639.42 5185.11c48,340.88 249.86,704.21 486.13,950.49 16.73,17.44 41.43,-8.27 26.2,-26.2 -115.75,-136.21 -222.07,-274.17 -305.52,-432.97 -84,-159.9 -131.91,-326.22 -186.75,-496.85 -4.21,-13.1 -21.89,-7.42 -20.06,5.53l0 0z"/>
   <path fill="#3C463F" fill-rule="nonzero" d="M7457.85 5279.86c-17.65,149.92 -13.68,304.89 -9.68,455.57 3.69,138.57 5.8,283.51 32.73,419.82 2.63,13.28 23.6,10.11 23.39,-3.17 -2.23,-145.06 -21.93,-290.32 -26.2,-435.63 -4.27,-145.71 4.62,-291.05 2.8,-436.57 -0.21,-15.21 -21.37,-14.39 -23.05,-0.01l0 0z"/>
   <path fill="#2B3990" fill-rule="nonzero" d="M3624.7 4140.08c71.54,189.22 141.77,379.26 217.43,566.87 5.99,14.81 30.17,8.74 24.43,-6.72 -70.54,-189.74 -146.75,-377.61 -221.44,-565.73 -4.97,-12.49 -25.29,-7.26 -20.43,5.59l0 0z"/>
   <path fill="#2B3990" fill-rule="nonzero" d="M11183.21 4705.27c74.5,-178.84 161.87,-361.19 216.3,-547.14 1.37,-4.7 -5.56,-7.7 -7.94,-3.36 -94.32,170.87 -162.44,362.23 -237.52,542.47 -7.48,17.92 21.78,25.77 29.16,8.03l0 0z"/>
   <path fill="#231F20" fill-rule="nonzero" d="M11401.59 4157.03c-0.09,-7.51 0.91,-14.66 -2.47,-21.47 -1.34,-2.71 -5.83,-2.71 -7.18,0 -3.36,6.81 -2.38,13.95 -2.47,21.47 -0.07,7.79 12.21,7.81 12.12,0l0 0z"/>
   <path fill="#231F20" fill-rule="nonzero" d="M11402.94 4141.86c7.46,-12.34 14.9,-24.64 22.35,-36.94 7.14,-11.82 -12.43,-21.17 -17.96,-7.57 -5.38,13.19 -10.78,26.38 -16.16,39.57 -2.82,6.89 8.12,10.95 11.76,4.94l0 0z"/>
   <path fill="#2B3990" fill-rule="nonzero" d="M3320.57 3903.29c102.13,76.09 214.93,141.35 304.57,232.67 14.84,15.12 38.16,-8.18 23.27,-23.27 -91.54,-92.67 -206.84,-160.05 -318.1,-226.08 -10.93,-6.44 -19.45,9.47 -9.74,16.68l0 0z"/>
   <path fill="#2B3990" fill-rule="nonzero" d="M11401.72 4168.02c110.74,-74.19 238.86,-164.49 313.09,-277.04 9.07,-13.77 -10.2,-25.74 -21.37,-16.49 -49.77,41.1 -92.06,92.06 -140.57,135.08 -53.04,47.03 -109.31,89.96 -167.94,129.74 -17.62,11.96 -1.11,40.69 16.79,28.71l0 0z"/>
   <path fill="#630002" fill-rule="nonzero" fill-opacity="0.388235" d="M2037.78 4758.65c1423.61,413.64 2898.26,536.66 4364.75,616.55 1405.12,76.55 2818.45,51.45 4215.81,-135.45 781,-104.45 1556.17,-259.84 2316.5,-481.1 58.05,-16.88 33.41,-114.87 -24.86,-97.92 -1353.26,393.77 -2751.57,579.69 -4149.76,635.1 -1415.41,56.09 -2843.14,-11.54 -4251.77,-168.31 -824.36,-91.76 -1644.63,-234.02 -2445.84,-466.81 -58.14,-16.88 -82.96,81.05 -24.82,97.93l0 0z"/>
   <path fill="#FBB040" fill-rule="nonzero" d="M1843.56 4682.92c1474.39,394.22 3001.56,511.47 4520.38,587.59 1455.19,72.95 2918.93,49.04 4366.09,-129.1 808.85,-99.54 1611.64,-247.66 2399.06,-458.5 60.09,-16.09 34.6,-109.46 -25.74,-93.32 -1401.52,375.29 -2849.68,552.49 -4297.72,605.27 -1465.85,53.47 -2944.52,-11 -4403.34,-160.4 -853.76,-87.45 -1703.29,-223.02 -2533.01,-444.88 -60.23,-16.1 -85.94,77.22 -25.72,93.34l0 0z"/>
   <path fill="#646F65" fill-rule="nonzero" d="M4209.02 5859.34c844.11,159.85 1698.02,277.92 2557.25,309.83 855.23,31.76 1713.97,-2.38 2564.58,-95.45 480.21,-52.54 958.06,-124.64 1432.72,-214.37 30.56,-5.77 17.62,-52.43 -12.86,-46.66 -1664.38,314.74 -3383.93,415.66 -5069.38,224.91 -489.3,-55.36 -975.69,-133.31 -1459.44,-224.91 -30.43,-5.77 -43.47,40.85 -12.88,46.66l0 0z"/>
   <path fill="#515B53" fill-rule="nonzero" d="M25.44 2782.64c439.36,187.42 911.44,298.01 1376.47,401.36 475.23,105.62 954.61,191.14 1434.82,270.57 977.3,161.61 1952.56,290.59 2940.67,364.82 1013,76.12 2023.89,96.06 3038.11,28.76 499.41,-33.13 997.52,-84.4 1493.48,-151.44 123.48,-16.7 248.18,-19.54 371.72,-33.25 125.49,-13.93 249.92,-38.72 375.72,-52.15 240.51,-25.71 477.37,-59.18 716.3,-97.62 541.37,-87.14 1082.53,-177.21 1619.06,-290.86 524.55,-111.09 1060.66,-229.16 1555.37,-440.21 57.1,-24.36 7.85,-107.75 -48.85,-83.58 -447.66,190.96 -933.05,299.66 -1407.04,403.48 -469.58,102.84 -943.07,186.56 -1417.33,264.7 -485.31,79.94 -972.94,158.47 -1462.83,202.5 -485.16,43.58 -967.47,115.94 -1453.45,156.15 -1981.41,163.91 -3973.15,9.8 -5932.12,-305.5 -529.34,-85.19 -1058.46,-173.19 -1583.28,-283.33 -527.35,-110.66 -1070.71,-225.83 -1568.04,-437.98 -56.61,-24.14 -105.99,59.19 -48.79,83.59l0 0z"/>
   <path fill="url(#id16)" fill-rule="nonzero" d="M9562.62 5252.23c-35.27,-29.98 -100.09,-58.44 -190.01,-84.67 -188.94,11.3 -377.95,20.43 -566.98,27.33 -991.68,36.18 -1989.16,18.2 -2982.47,-43.36 -93.52,23.63 -166.26,49.31 -213.98,76.51 251.63,15.94 503.29,29.87 754.74,42.47 1064.95,53.37 2134.44,54.57 3198.71,-18.28z"/>
   <path fill="#4363AE" fill-rule="nonzero" d="M5952.49 6455.45c229.31,84.45 494.4,107.29 736.05,134.9 257.82,29.44 517.4,43.32 776.88,43.12 510.74,-0.39 1017.7,-44.12 1519.29,-141.65 40.55,-7.88 23.39,-69.92 -17.1,-61.98 -499.41,98.01 -1011.38,151.72 -1520.75,142.47 -247.17,-4.49 -494.05,-19.72 -739.9,-45.62 -249.77,-26.29 -500.06,-88.03 -750.16,-103.21 -19.38,-1.12 -20.51,26 -4.29,31.98l0 0z"/>
   <path fill="url(#id17)" fill-rule="nonzero" fill-opacity="0.568627" d="M10914.33 3538.02c-100.98,11.76 -202.02,22.6 -303.17,31.69 -485.16,43.58 -967.47,115.94 -1453.45,156.15 -1646.46,136.21 -3300.03,52.67 -4936.01,-160.31 -76.92,21.74 -142.84,44.3 -196.61,67.6 581.64,78.23 1164.69,142.07 1752.32,186.23 1013,76.12 2023.89,96.06 3038.11,28.76 499.41,-33.13 997.52,-84.4 1493.48,-151.44 123.45,-16.7 248.18,-19.54 371.72,-33.25 125.49,-13.93 249.92,-38.72 375.72,-52.15 26.66,-2.84 53.16,-6.14 79.72,-9.19 -63.11,-22.15 -137.38,-43.54 -221.83,-64.1z"/>
   <path fill="url(#id18)" fill-rule="nonzero" fill-opacity="0.541176" d="M11682.08 2255.34c-95.75,134.04 -1870.89,383.02 -4107.84,383.02 -2236.98,0 -3782.28,-210.66 -4375.96,-306.41 0,-269.71 2110.27,-497.92 4347.22,-497.92 2236.98,-0.02 4136.57,151.61 4136.57,421.32z"/>
   <path fill="url(#id19)" fill-rule="nonzero" d="M7473.08 21.96c0,0 -4565.75,2247.86 -4611.18,2315.98 -45.4,68.12 2997.77,363.35 3792.63,340.64 -2520.83,-545.07 818.55,-2656.62 818.55,-2656.62z"/>
  </g>
 </g>
</svg>
