<?xml version="1.0" encoding="UTF-8"?>
<!DOCTYPE svg PUBLIC "-//W3C//DTD SVG 1.0//EN" "http://www.w3.org/TR/2001/REC-SVG-20010904/DTD/svg10.dtd">
<!-- Creator: CorelDRAW -->
<svg xmlns="http://www.w3.org/2000/svg" xml:space="preserve" width="78.4615mm" height="113.284mm" version="1.0" shape-rendering="geometricPrecision" text-rendering="geometricPrecision" image-rendering="optimizeQuality" fill-rule="evenodd" clip-rule="evenodd"
viewBox="0 0 7831.91 11307.8"
 xmlns:xlink="http://www.w3.org/1999/xlink"
 xmlns:xodm="http://www.corel.com/coreldraw/odm/2003">
 <defs>
    <linearGradient id="id0" gradientUnits="userSpaceOnUse" x1="5964.91" y1="8237.2" x2="7417.48" y2="10297.2">
     <stop offset="0" stop-opacity="1" stop-color="black"/>
     <stop offset="0.121569" stop-opacity="1" stop-color="#171717"/>
     <stop offset="0.360784" stop-opacity="1" stop-color="#515151"/>
     <stop offset="0.709804" stop-opacity="1" stop-color="#AFAFAF"/>
     <stop offset="1" stop-opacity="1" stop-color="white"/>
    </linearGradient>
    <linearGradient id="id1" gradientUnits="userSpaceOnUse" x1="1448.76" y1="8131.56" x2="1422.34" y2="11036.69">
     <stop offset="0" stop-opacity="1" stop-color="black"/>
     <stop offset="0.121569" stop-opacity="1" stop-color="#171717"/>
     <stop offset="0.360784" stop-opacity="1" stop-color="#515151"/>
     <stop offset="0.709804" stop-opacity="1" stop-color="#AFAFAF"/>
     <stop offset="1" stop-opacity="1" stop-color="white"/>
    </linearGradient>
    <linearGradient id="id2" gradientUnits="userSpaceOnUse" x1="6810.04" y1="10059.51" x2="5991.32" y2="10006.69">
     <stop offset="0" stop-opacity="1" stop-color="black"/>
     <stop offset="0.121569" stop-opacity="1" stop-color="#171717"/>
     <stop offset="0.360784" stop-opacity="1" stop-color="#515151"/>
     <stop offset="0.709804" stop-opacity="1" stop-color="#AFAFAF"/>
     <stop offset="1" stop-opacity="1" stop-color="white"/>
    </linearGradient>
    <linearGradient id="id3" gradientUnits="userSpaceOnUse" x1="946.96" y1="10085.93" x2="1686.44" y2="9927.46">
     <stop offset="0" stop-opacity="1" stop-color="black"/>
     <stop offset="0.121569" stop-opacity="1" stop-color="#171717"/>
     <stop offset="0.360784" stop-opacity="1" stop-color="#515151"/>
     <stop offset="0.709804" stop-opacity="1" stop-color="#AFAFAF"/>
     <stop offset="1" stop-opacity="1" stop-color="white"/>
    </linearGradient>
    <radialGradient id="id4" gradientUnits="userSpaceOnUse" gradientTransform="matrix(1.90434 -0 -0 1.90438 -3515 -4937)" cx="3886.69" cy="5459.16" r="610.21" fx="3886.69" fy="5459.16">
     <stop offset="0" stop-opacity="1" stop-color="white"/>
     <stop offset="0" stop-opacity="1" stop-color="white"/>
     <stop offset="1" stop-opacity="1" stop-color="black"/>
    </radialGradient>
    <radialGradient id="id5" gradientUnits="userSpaceOnUse" gradientTransform="matrix(1.76547 -0 -0 1.76546 -565 -2760)" cx="738.34" cy="3605.75" r="1316.43" fx="738.34" fy="3605.75">
     <stop offset="0" stop-opacity="1" stop-color="white"/>
     <stop offset="0" stop-opacity="1" stop-color="white"/>
     <stop offset="1" stop-opacity="1" stop-color="black"/>
    </radialGradient>
    <radialGradient id="id6" gradientUnits="userSpaceOnUse" gradientTransform="matrix(1.6924 -0 -0 1.69239 -4472 -2087)" cx="6458.84" cy="3014.79" r="1295.24" fx="6458.84" fy="3014.79">
     <stop offset="0" stop-opacity="1" stop-color="white"/>
     <stop offset="0" stop-opacity="1" stop-color="white"/>
     <stop offset="1" stop-opacity="1" stop-color="black"/>
    </radialGradient>
    <radialGradient id="id7" gradientUnits="userSpaceOnUse" gradientTransform="matrix(3.9174 -0 -0 3.82427 -19119 -17571)" cx="6553.45" cy="6221.33" r="492.15" fx="6553.45" fy="6221.33">
     <stop offset="0" stop-opacity="1" stop-color="white"/>
     <stop offset="0" stop-opacity="1" stop-color="white"/>
     <stop offset="1" stop-opacity="1" stop-color="black"/>
    </radialGradient>
    <radialGradient id="id8" gradientUnits="userSpaceOnUse" gradientTransform="matrix(3.91259 -0 -0 3.91259 -694 -18172)" cx="238.22" cy="6239.26" r="492.75" fx="238.22" fy="6239.26">
     <stop offset="0" stop-opacity="1" stop-color="white"/>
     <stop offset="0" stop-opacity="1" stop-color="white"/>
     <stop offset="1" stop-opacity="1" stop-color="black"/>
    </radialGradient>
    <linearGradient id="id9" gradientUnits="userSpaceOnUse" x1="1369.52" y1="6097.97" x2="3165.42" y2="5569.76">
     <stop offset="0" stop-opacity="1" stop-color="white"/>
     <stop offset="1" stop-opacity="1" stop-color="black"/>
    </linearGradient>
    <linearGradient id="id10" gradientUnits="userSpaceOnUse" x1="6572.35" y1="6124.38" x2="4776.45" y2="5649">
     <stop offset="0" stop-opacity="1" stop-color="white"/>
     <stop offset="1" stop-opacity="1" stop-color="black"/>
    </linearGradient>
    <radialGradient id="id11" gradientUnits="userSpaceOnUse" gradientTransform="matrix(1.79282 -0 -0 1.73286 -2975 -7257)" cx="3751.83" cy="9902.1" r="1473.11" fx="3751.83" fy="9902.1">
     <stop offset="0" stop-opacity="1" stop-color="white"/>
     <stop offset="0" stop-opacity="1" stop-color="white"/>
     <stop offset="1" stop-opacity="1" stop-color="black"/>
    </radialGradient>
    <radialGradient id="id12" gradientUnits="userSpaceOnUse" gradientTransform="matrix(1.68697 -0 -0 1.49954 -2792 -4897)" cx="4064.24" cy="9802.94" r="313.11" fx="4064.24" fy="9802.94">
     <stop offset="0" stop-opacity="1" stop-color="white"/>
     <stop offset="0" stop-opacity="1" stop-color="white"/>
     <stop offset="1" stop-opacity="1" stop-color="black"/>
    </radialGradient>
    <linearGradient id="id13" gradientUnits="userSpaceOnUse" x1="3795.88" y1="8345.03" x2="3979.17" y2="9147.23">
     <stop offset="0" stop-opacity="1" stop-color="black"/>
     <stop offset="0.121569" stop-opacity="1" stop-color="#171717"/>
     <stop offset="0.360784" stop-opacity="1" stop-color="#515151"/>
     <stop offset="0.709804" stop-opacity="1" stop-color="#AFAFAF"/>
     <stop offset="1" stop-opacity="1" stop-color="white"/>
    </linearGradient>
    <radialGradient id="id14" gradientUnits="userSpaceOnUse" gradientTransform="matrix(4.35428 -0 -0 4.35428 -9486 1471)" cx="2828.01" cy="-438.58" r="770.3" fx="2828.01" fy="-438.58">
     <stop offset="0" stop-opacity="1" stop-color="white"/>
     <stop offset="0" stop-opacity="1" stop-color="white"/>
     <stop offset="1" stop-opacity="1" stop-color="black"/>
    </radialGradient>
    <linearGradient id="id15" gradientUnits="userSpaceOnUse" x1="4802.85" y1="287.7" x2="3772.86" y2="2347.7">
     <stop offset="0" stop-opacity="1" stop-color="white"/>
     <stop offset="1" stop-opacity="1" stop-color="black"/>
    </linearGradient>
    <radialGradient id="id16" gradientUnits="userSpaceOnUse" gradientTransform="matrix(1.63553 -0 -0 1.67178 -996 -2989)" cx="1566.62" cy="4449.21" r="3649.28" fx="1566.62" fy="4449.21">
     <stop offset="0" stop-opacity="1" stop-color="white"/>
     <stop offset="0.290196" stop-opacity="1" stop-color="#AFAFAF"/>
     <stop offset="0.639216" stop-opacity="1" stop-color="#515151"/>
     <stop offset="0.878431" stop-opacity="1" stop-color="#171717"/>
     <stop offset="1" stop-opacity="1" stop-color="black"/>
    </radialGradient>
 </defs>
 <g id="Camada_x0020_1">
  <metadata id="CorelCorpID_0Corel-Layer"/>
  <g id="_2000801472944">
   <path fill="#C9D3C8" fill-rule="nonzero" d="M2087.01 7365.15c0,0 -167.55,-1492.72 45.69,-2635.09 213.23,-1142.37 502.65,-2284.75 502.65,-2284.75l258.95 -792.05 396.02 -913.9 274.16 -533.12c0,0 106.62,-182.79 289.4,-182.79 182.79,0 274.16,45.69 380.79,167.55 106.63,121.86 472.19,913.9 472.19,913.9 0,0 487.43,1264.23 731.12,2284.75 243.72,1020.52 319.86,2162.9 319.86,2162.9l-60.93 1873.49 -533.12 807.28c0,0 -624.49,274.16 -1507.95,198.02 -883.45,-76.17 -1142.38,-243.72 -1142.38,-243.72l-426.44 -822.47z"/>
   <path fill="#A74133" fill-rule="nonzero" d="M2087.01 9451.91c0,0 601.5,236.74 1546.59,264.26 906.74,26.41 1364.54,-101.23 1364.54,-101.23l866.36 -208.72 -456.95 -1218.54c0,0 -715.91,335.09 -1751.63,243.72 -1035.76,-91.38 -1264.23,-213.23 -1264.23,-213.23l-502.65 1005.28c-0.03,-0.01 -76.2,137.09 197.97,228.46z"/>
   <path fill="#A74133" fill-rule="nonzero" d="M3564.49 206.24l-456.95 898.67 -213.23 548.33c0,0 274.16,198.02 426.47,182.79 152.31,-15.24 792.05,30.47 792.05,30.47l441.72 -91.38 335.09 -167.55c0,0 -152.31,-502.65 -365.58,-883.45 -213.23,-380.79 -289.4,-533.12 -289.4,-533.12 0,0 -152.31,-213.23 -380.79,-167.55 -228.47,45.69 -258.91,137.1 -289.38,182.79z"/>
   <path fill="#A74133" fill-rule="nonzero" d="M2315.49 3526.77c0,0 -685.42,548.33 -1066.21,1172.83 -380.79,624.49 -654.98,1111.93 -654.98,1111.93l-380.79 852.97 -198.02 594.05c0,0 60.93,258.93 198.02,380.79 137.1,121.86 258.95,289.4 258.95,289.4 0,0 441.72,-152.31 837.74,-319.86 396.02,-167.55 746.35,-441.72 746.35,-441.72 0,0 -91.38,-654.98 0,-1736.42 91.39,-1081.45 258.94,-1903.97 258.94,-1903.97z"/>
   <path fill="#A74133" fill-rule="nonzero" d="M5468.45 3481.07c0,0 624.49,517.88 1249,1416.54 624.49,898.67 822.52,1629.81 822.52,1629.81l258.95 700.67c0,0 -15.24,228.47 -121.86,365.58 -106.62,137.1 -350.33,319.86 -350.33,319.86 0,0 -624.49,-198 -852.97,-304.65 -228.47,-106.62 -746.35,-441.72 -746.35,-441.72 0,0 106.62,-837.74 30.45,-1614.56 -76.15,-776.84 -289.41,-2071.52 -289.41,-2071.52z"/>
   <path fill="#6B5369" fill-rule="nonzero" d="M2202.71 7288.46c0,0 0,-182.21 69.4,-268.99 69.4,-86.78 182.21,-147.5 182.21,-147.5 0,0 173.54,-52.06 286.34,17.35 112.79,69.4 164.85,112.79 199.56,182.21 34.71,69.4 78.1,190.89 69.4,277.66 -8.68,86.76 -69.4,242.95 -60.74,373.1 8.66,130.15 43.39,277.66 43.39,277.66 0,0 0,112.79 -60.74,190.89 -60.74,78.1 -182.21,95.45 -182.21,95.45l-138.84 -43.39 147.5 -268.99c0,0 17.35,-338.39 26.04,-468.55 8.66,-130.15 34.71,-295 34.71,-295 0,0 -69.4,-104.11 -164.85,-130.15 -95.45,-26.04 -199.56,17.35 -199.56,17.35l-78.1 34.71 -173.52 156.22z"/>
   <path fill="#6B5369" fill-rule="nonzero" d="M5534.58 7279.8c0,0 52.06,-199.56 -104.11,-338.39 -156.19,-138.84 -338.39,-95.45 -338.39,-95.45 0,0 -216.94,78.1 -277.66,208.24 -60.74,130.15 -95.45,147.5 -86.76,251.64 8.68,104.14 69.4,321.05 69.4,321.05l-17.35 251.61 -34.71 182.21c0,0 26.04,104.11 104.11,147.5 78.1,43.39 156.19,52.06 156.19,52.06l112.79 -34.71 -138.84 -234.28c0,0 -8.68,-286.34 -17.35,-468.55 -8.66,-182.21 -43.39,-303.69 -43.39,-303.69 0,0 34.71,-104.11 138.84,-121.46 104.14,-17.35 199.56,0 199.56,0l95.45 34.71 182.22 147.51z"/>
   <path fill="#B7C3B5" fill-rule="nonzero" d="M2186.31 11181.2l-99.3 -1729.29c0,0 45.3,-227.93 220.79,-632.87 175.47,-404.95 450.22,-845.13 450.22,-845.13l60.74 -763.55c0,0 -34.73,-114.22 -164.85,-130.15 -130.12,-15.92 -277.66,52.06 -277.66,52.06l-289.22 232.89c0,0 -670.08,630.49 -980.57,1089.43 -310.46,458.94 -472.43,701.9 -472.43,701.9l161.98 539.93 445.44 836.89 391.46 634.41c-0.02,0.01 350.94,242.99 553.4,13.51z"/>
   <path fill="#B7C3B5" fill-rule="nonzero" d="M4979.28 7991.29c0,0 284.6,463.32 473.56,895.25 188.97,431.94 229.45,539.93 229.45,539.93l-67.48 1133.85 -53.98 674.91c0,0 148.48,40.49 283.46,26.99 134.98,-13.5 310.46,-121.49 310.46,-121.49l404.95 -715.4 418.45 -809.87 121.49 -472.43c0,0 -188.97,-323.95 -661.4,-917.86 -472.43,-593.92 -1085.84,-1092.86 -1085.84,-1092.86 0,0 -306.75,-136.43 -433.84,86.76 61.85,236.67 60.71,772.22 60.71,772.22z"/>
   <path fill="#7F8B7F" fill-rule="nonzero" d="M1453.94 9400.3c0,0 219.26,-548.12 556.55,-1087.81 337.32,-539.7 808.26,-1102.13 808.26,-1102.13l-57.75 402.2 -2.95 361.34 -427.1 793.92 -193.96 497.52 -84.33 185.53 42.15 312.01 84.33 1467.28c0,0 -286.71,-463.79 -463.79,-944.46 -177.08,-480.68 -261.4,-885.4 -261.4,-885.4z"/>
   <path fill="#7F8B7F" fill-rule="nonzero" d="M4918.54 7219.05c0,0 54.46,269.17 64.44,398.84 9.98,129.67 -3.69,373.39 -3.69,373.39 0,0 195.3,268.62 473.56,895.25 278.26,626.64 229.45,539.93 229.45,539.93l-60.93 1014.42 -60.56 794.32c0,0 220.16,-345.45 339.85,-594.81 119.69,-249.4 249.4,-658.35 249.4,-658.35l129.67 -598.51c0,0 -199.51,-578.57 -528.68,-1067.35 -329.17,-488.78 -832.52,-1097.12 -832.52,-1097.12z"/>
   <path fill="#9BAE9B" fill-rule="nonzero" d="M6285.65 9405.82c0,0 354.35,-59.39 552.43,-151.83 198.08,-92.44 265.29,-92.51 265.29,-92.51 0,0 -93.65,356.62 -265.32,765.98 -171.67,409.36 -515,937.56 -515,937.56l-195.88 303.88c0,0 -200.27,92.28 -332.33,105.48 -132.06,13.2 -177.74,-33.75 -177.74,-33.75 0,0 309.8,-547.27 455.05,-1022.66 145.26,-475.39 213.5,-812.14 213.5,-812.14z"/>
   <path fill="#9BAE9B" fill-rule="nonzero" d="M634.03 9156.49c0,0 301.31,163.53 420.17,189.94 118.85,26.41 399.74,53.88 399.74,53.88 0,0 51.03,372.17 261.4,885.43 210.39,513.26 421.66,922.61 421.66,922.61 0,0 -118.84,52.82 -237.7,52.82 -118.85,0 -266.43,-93.47 -266.43,-93.47l-618.32 -1015.76c0,0 -404.52,-815.64 -380.54,-995.46z"/>
   <path fill="url(#id0)" fill-rule="nonzero" d="M6285.65 9405.82l473.16 -85.8 344.52 -158.54c0,0 -463.37,-752.61 -806.7,-1135.56 -343.34,-382.95 -448.97,-448.97 -448.97,-448.97l-369.75 316.92c0,0 277.31,369.75 475.39,739.49 198.08,369.74 332.36,772.48 332.36,772.48z"/>
   <path fill="url(#id1)" fill-rule="nonzero" d="M634.03 9156.49c0,0 261.7,176.74 420.17,189.94 158.46,13.21 399.74,53.88 399.74,53.88 0,0 194.48,-450.04 313.33,-661.32 118.85,-211.28 515,-805.51 515,-805.51l-607.44 -132.05c-0.01,0 -853.51,967.06 -1040.81,1355.06z"/>
   <path fill="url(#id2)" fill-rule="nonzero" d="M6947.04 9670.3c0,0 -94.39,76.25 -174.28,94.39 -79.86,18.15 -134.33,25.4 -134.33,25.4l-199.69 384.85 -123.45 272.29c0,0 94.39,-14.52 152.49,-25.4 58.1,-10.88 134.33,-58.07 134.33,-58.07l344.92 -693.46z"/>
   <path fill="url(#id3)" fill-rule="nonzero" d="M796.68 9669.95c0,0 99.04,79.24 165.06,99.04 66.02,19.8 132.05,19.8 132.05,19.8 0,0 211.29,323.52 257.5,442.38 46.22,118.85 85.83,211.29 85.83,211.29l-158.46 -19.8 -112.25 -46.22c0.01,-0.01 -330.12,-528.21 -369.74,-706.49z"/>
   <path fill="#9BAE9B" fill-rule="nonzero" d="M2229.45 7022.32c0,0 -92.43,-924.36 -26.41,-1690.26 66.02,-765.9 316.92,-2046.8 316.92,-2046.8 0,0 409.13,-1478.13 409.36,-1478.98 -22.5,81.26 796.32,188.63 864.01,184.06 254.44,-17.09 530.76,-8.68 774.14,-91.64 119.05,254.57 176.69,561.03 263.36,831.95 184.87,713.08 462.18,2152.44 462.18,2152.44l132.05 1360.13 5.36 698.18 113.48 173.35 0 211.29 152.99 100.04c0,0 97.9,-694.28 58.28,-1539.4 -39.62,-845.12 -317.21,-2496.99 -317.21,-2496.99l-343 -1200.44 -205.32 -581.66c0,0 -547.38,251.53 -1128.41,277.94 -581.02,26.41 -866.94,-232.25 -866.94,-232.25 0,0 -374.34,1077.38 -625.23,2279.05 -250.89,1201.66 -237.7,2337.31 -237.7,2337.31l55.65 1095.53 115.7 -76.7c0,0.01 -78.92,-213.31 26.73,-266.14z"/>
   <path fill="#9BAE9B" fill-rule="nonzero" fill-opacity="0.478431" d="M3932.91 1872.31c0,0 303.72,1729.87 356.54,3393.73 52.82,1663.85 -132.05,3037.19 -132.05,3037.19l691.71 -95.03c0,0 -123.89,-23.83 -71.07,-221.9 52.82,-198.07 -39.62,-501.8 -39.62,-501.8 0,0 -52.82,-356.54 145.26,-541.42 198.08,-184.87 330.13,-105.64 330.13,-105.64l211.29 39.62c0,0 0,-1082.82 -198.08,-2442.96 -198.08,-1360.14 -672.46,-2658.99 -672.46,-2658.99 0,0 -423.57,176.42 -621.65,97.19z"/>
   <circle fill="#7992A9" fill-rule="nonzero" cx="3886.69" cy="4533.16" r="1089.42"/>
   <circle fill="#154669" fill-rule="nonzero" cx="3886.69" cy="4533.16" r="891.35"/>
   <circle fill="#2B6A98" fill-rule="nonzero" cx="3886.69" cy="4533.16" r="719.68"/>
   <path fill="url(#id4)" fill-rule="nonzero" d="M3886.69 4883.43c-233.15,0 -446.26,-57.08 -610.21,-151.33 64.28,277.67 312.99,484.71 610.21,484.71 297.22,0 545.9,-207.03 610.21,-484.71 -163.95,94.24 -377.06,151.33 -610.21,151.33z"/>
   <path fill="#FBB040" fill-rule="nonzero" fill-opacity="0.400000" d="M2315.49 3526.77c0,0 -554.22,434.74 -1066.21,1172.83 -512.02,738.09 -740.89,1231.09 -740.89,1231.09l-404.95 1056.41 -87.92 271.45 87.92 -42.54c0,0 299.31,-528.21 739.49,-1197.26 440.18,-669.05 1056.41,-1285.31 1056.41,-1285.31l281.72 -264.1 134.45 -942.56z"/>
   <path fill="#FBB040" fill-rule="nonzero" fill-opacity="0.400000" d="M5468.45 3481.07c0,0 533.25,372.01 814.97,724.14 281.72,352.13 528.21,774.69 528.21,774.69l528.21 1003.59 459.1 1244.56 -89.36 -47.27c0,0 -422.56,-915.56 -968.39,-1549.41 -545.79,-633.85 -1091.61,-1144.44 -1091.61,-1144.44l-181.12 -1005.86z"/>
   <path fill="#FBB040" fill-rule="nonzero" d="M3519.14 331.73c0,0 352.13,70.43 475.39,70.43 123.26,0 281.72,-123.26 281.72,-123.26 0,0 -88.03,-193.67 -281.72,-246.49 -193.67,-52.84 -457.77,88.03 -475.39,299.32z"/>
   <path fill="url(#id5)" fill-rule="nonzero" d="M2315.49 3526.77c0,0 -557.02,484.79 -961.99,1013 -404.95,528.21 -686.67,1126.85 -686.67,1126.85l-228.89 493c0,0 228.89,-457.77 457.77,-510.59 228.89,-52.82 228.89,-52.82 228.89,-52.82 0,0 528.21,-616.23 704.28,-792.31 176.08,-176.08 352.13,-334.54 352.13,-334.54l134.49 -942.59z"/>
   <path fill="url(#id6)" fill-rule="nonzero" d="M5468.45 3481.07l93.1 442.46 88.02 563.41c0,0 669.05,686.67 880.34,915.56 211.29,228.89 510.59,669.05 510.59,669.05 0,0 -211.29,-281.72 -123.26,-510.59 88.03,-228.89 0,-334.54 0,-334.54 0,0 -943.24,-1395.48 -1448.8,-1745.35z"/>
   <path fill="url(#id7)" fill-rule="nonzero" d="M6684.46 7465.75c0,0 141.29,-160.55 282.57,-423.86 141.29,-263.31 199.08,-436.7 199.08,-436.7 0,0 102.76,70.65 147.71,134.85 44.95,64.23 141.29,237.62 141.29,237.62 0,0 -102.76,205.5 -186.24,340.38 -83.48,134.85 -231.2,269.73 -231.2,269.73 0,0 -237.61,25.68 -353.21,-122.03z"/>
   <path fill="url(#id8)" fill-rule="nonzero" d="M661.68 6613.75c0,0 -133.45,102.65 -205.32,205.32 -71.86,102.65 -71.86,143.73 -71.86,143.73 0,0 82.11,225.84 195.04,379.83 112.93,154 195.04,256.63 195.04,256.63 0,0 143.73,-10.27 246.38,-51.35 102.65,-41.07 133.45,-82.11 133.45,-82.11 0,0 -390.07,-533.8 -492.72,-852.05z"/>
   <path fill="url(#id9)" fill-rule="nonzero" d="M2181.03 4469.32c0,0 -698.1,738.06 -903.39,974.17 -205.32,236.11 -434.71,575.24 -434.71,575.24 0,0 270.47,759.3 475.78,1005.65 205.32,246.38 379.83,410.62 379.83,410.62l358.05 -267.85c0,0 -50.08,-789.48 -39.8,-1323.31 10.21,-533.8 164.23,-1374.52 164.23,-1374.52z"/>
   <path fill="url(#id10)" fill-rule="nonzero" d="M5649.57 4486.93c0,0 97.16,857.44 105.64,1399.74 8.47,542.31 -27.81,1280.48 -27.81,1280.48l559.84 308.92c0,0 359.29,-636.46 472.22,-1006.02 112.93,-369.56 143.73,-595.4 143.73,-595.4 0,0 -1049.49,-1256.12 -1253.62,-1387.73z"/>
   <path fill="url(#id11)" fill-rule="nonzero" d="M2899.58 8369.17l-503.02 831.5c0,0 708.32,143.73 1344.78,184.76 636.46,41.07 1601.44,-153.97 1601.44,-153.97l-287.43 -605.67 -174.52 -246.38c0,0 -1006.02,123.18 -1231.88,92.38 -225.82,-30.76 -749.38,-102.62 -749.38,-102.62z"/>
   <path fill="url(#id12)" fill-rule="nonzero" d="M3802.97 9693.43l-20.52 -102.65 30.79 -61.59 585.15 30.79 10.27 133.45c-0.03,0 -574.89,41.08 -605.69,0z"/>
   <path fill="url(#id13)" fill-rule="nonzero" d="M3453.93 8451.31l-51.32 349.04c0,0 195.04,71.86 307.97,82.14 112.93,10.27 215.59,-41.07 215.59,-41.07l20.52 -153.97 225.84 30.79 154 -30.79c0,0 30.79,-92.38 20.52,-133.45 -10.27,-41.07 -20.52,-82.14 -20.52,-82.14l-872.6 -20.55z"/>
   <path fill="url(#id14)" fill-rule="nonzero" d="M2909.85 1604.14c0,0 0,92.38 174.52,143.73 174.52,51.32 554.35,102.65 554.35,102.65l294.18 21.79c0,0 -37.55,-617.18 -88.9,-1068.88 -51.32,-451.7 -51.32,-451.7 -51.32,-451.7l-154 10.27 -119.56 -30.29c0.01,0.01 -486.1,851.55 -609.28,1272.43z"/>
   <path fill="url(#id15)" fill-rule="nonzero" d="M3994.53 402.13c0,0 65.07,-122.26 280.64,514.2 215.57,636.46 279.37,858.76 279.37,858.76l367.34 -170.95 -461.94 -1016.29 -183.71 -308.98 -281.71 123.26z"/>
   <path fill="#C76F2E" fill-rule="nonzero" d="M3597.66 197.77c0,0 133.45,71.86 349.04,41.07 215.59,-30.79 288.01,-47.8 288.01,-47.8l41.54 87.87c0,0 -134.54,62.6 -339.82,83.11 -205.32,20.52 -297.7,0 -297.7,0l-82.14 -51.32 41.08 -112.92z"/>
   <path fill="white" fill-rule="nonzero" fill-opacity="0.568627" d="M3792.96 54.78c-59.13,18.2 -110.18,61.17 -138.15,116.34 95.58,43.74 214.69,30.63 298.47,-32.8 10.43,-7.9 20.89,-17.38 23.88,-30.09 3.11,-13.29 -2.75,-27.2 -11.15,-37.95 -22.58,-28.92 -62.23,-40.28 -98.8,-37.37 -36.57,2.9 -70.96,17.99 -104.11,33.73l29.87 -11.86z"/>
   <path fill="#8D7889" fill-rule="nonzero" d="M4962.96 6932c0,0 -112.93,92.38 -102.65,164.24 10.27,71.86 58.2,122.81 58.2,122.81 0,0 95.77,-143.33 229.21,-133.06 133.45,10.27 236.11,41.07 236.11,41.07 0,0 134.27,-94.13 46.62,-185.66 -87.66,-91.53 -334.04,-163.36 -467.49,-9.39z"/>
   <path fill="#8D7889" fill-rule="nonzero" d="M2376.05 6911.45c0,0 -92.38,61.59 -71.86,123.18 20.52,61.59 72.07,97.64 72.07,97.64 0,0 165.41,-98.88 277.66,-52.06 112.25,46.82 164.85,130.15 164.85,130.15 0,0 172.38,-30.09 121.49,-138.84 -50.92,-108.73 -328.09,-334.57 -564.2,-160.08z"/>
   <path fill="#7F8B7F" fill-rule="nonzero" d="M2971.45 8163.88c0,0 677.53,123.18 1098.43,112.93 420.9,-10.27 749.4,-102.65 749.4,-102.65l225.84 92.38c0,0 -215.59,154 -903.37,184.76 -687.8,30.79 -893.12,-51.32 -893.12,-51.32l-564.6 -123.18c-0.01,-0.03 133.44,-0.03 287.42,-112.93z"/>
   <path fill="white" fill-rule="nonzero" fill-opacity="0.349020" d="M4136.72 3983.95c-40.41,5.1 -72.74,46.09 -68.25,86.6 4.49,40.49 45.01,73.42 85.54,69.53 40.54,-3.88 74.09,-43.89 70.83,-84.49 -3.27,-40.62 -42.78,-74.74 -83.43,-72.07 -3.85,-7.56 -5.39,-16.27 -4.33,-24.67l-0.37 25.08z"/>
   <path fill="white" fill-rule="nonzero" fill-opacity="0.349020" d="M4272.49 4162.3c-42.6,4.83 -78.04,27.68 -82.45,80.28 -2.38,28.34 11.04,55.2 21.47,81.66 40.76,103.18 38.88,217.48 38.06,328.41 -0.42,57.26 4.28,123.99 51.56,156.27 41.18,28.1 100.28,15.61 137.97,-17.04 37.69,-32.64 58.02,-80.73 73.03,-128.3 26.17,-83.04 39.83,-171.72 24.73,-257.45 -15.1,-85.72 -61.64,-168.28 -135.61,-214.13 -33.06,-20.49 -84.75,-34.7 -128.75,-29.71z"/>
   <path fill="#B96A56" fill-rule="nonzero" d="M2888.73 1697.08c80.65,116.1 217.15,144.76 348.67,166.76 195.54,32.72 390.69,63.96 589.35,68.87 184.6,4.57 369.61,-14.28 549.52,-56.02 92.49,-21.47 183.5,-48.99 272.39,-82.37 83.91,-31.5 180.01,-64.12 251.53,-118.6 20.02,-15.24 9.85,-53.43 -18.68,-44.29 -76.64,24.62 -147.9,67.56 -222.98,97.11 -79.91,31.45 -161.79,57.94 -244.9,79.61 -168.23,43.84 -341.46,67.06 -515.32,68.57 -171.85,1.48 -342.86,-18.57 -513.21,-38.98 -154.08,-18.46 -363.38,-20.31 -463.69,-159.76 -14.03,-19.48 -46.66,-1.05 -32.68,19.11l0 0z"/>
   <path fill="#903729" fill-rule="nonzero" d="M2888.73 1654.19c80.65,116.1 217.15,144.76 348.67,166.76 195.54,32.72 390.69,63.96 589.35,68.87 184.6,4.57 369.61,-14.28 549.52,-56.02 92.49,-21.47 183.5,-48.99 272.39,-82.37 83.91,-31.5 180.01,-64.09 251.53,-118.6 20.02,-15.24 9.85,-53.43 -18.68,-44.29 -76.64,24.62 -147.9,67.56 -222.98,97.11 -79.91,31.45 -161.79,57.94 -244.9,79.61 -168.23,43.84 -341.46,67.06 -515.32,68.57 -171.85,1.48 -342.86,-18.57 -513.21,-38.98 -154.08,-18.46 -363.38,-20.31 -463.69,-159.76 -14.03,-19.48 -46.66,-1.05 -32.68,19.11l0 0z"/>
   <path fill="#7F8B7F" fill-rule="nonzero" d="M3602.76 180.52c76.59,-86.65 185.53,-141.9 303.06,-137.12 122.76,4.99 213.45,67.08 294,154.05 18.41,19.86 53.8,-6.42 38.06,-29.37 -155.9,-227.18 -493.29,-214.85 -666.02,-18.49 -18.54,21.05 12.2,52.09 30.9,30.92l0 0z"/>
   <path fill="#702719" fill-rule="nonzero" d="M3514.44 285.58c61.83,98.75 205.11,116.79 312.11,122.73 145.39,8.09 289.22,-21.26 422.22,-79.24 30.92,-13.5 8.34,-68.25 -23.22,-55.09 -213.23,88.98 -489.97,123.08 -694.54,-4.99 -10.21,-6.36 -22.97,6.37 -16.58,16.59l0 0z"/>
   <path fill="#E0E5DF" fill-rule="nonzero" d="M4960.14 4706.8c-71.97,522.79 -521.39,926.84 -1063.65,926.84 -566.4,0 -1031.45,-440.79 -1070.94,-997.31 -10.43,-0.87 -20.76,-2.79 -30.79,-5.78 36.63,578.15 516.64,1063.04 1101.74,1063.04 559,0 1022,-442.66 1094.15,-986.35 -10.33,1.06 -20.55,0.87 -30.5,-0.45z"/>
   <path fill="#4D606F" fill-rule="nonzero" d="M3896.51 5637.5c-608.86,0 -1104.24,-495.35 -1104.24,-1104.24 0,-608.89 495.35,-1104.24 1104.24,-1104.24 608.86,0 1104.24,495.35 1104.24,1104.24 0,608.89 -495.38,1104.24 -1104.24,1104.24zm0 -2178.22c-592.2,0 -1073.98,481.77 -1073.98,1073.98 0,592.2 481.77,1073.98 1073.98,1073.98 592.2,0 1073.98,-481.77 1073.98,-1073.98 0,-592.19 -481.8,-1073.98 -1073.98,-1073.98z"/>
   <path fill="#ADBAC8" fill-rule="nonzero" d="M3896.51 5490.42c-527.78,0 -957.19,-429.38 -957.19,-957.16 0,-527.78 429.41,-957.16 957.19,-957.16 527.78,0 957.16,429.38 957.16,957.16 0,527.78 -429.38,957.16 -957.16,957.16zm0 -1851.07c-492.92,0 -893.93,401.01 -893.93,893.91 0,492.9 401.01,893.91 893.93,893.91 492.89,0 893.91,-401.01 893.91,-893.91 0,-492.9 -401.02,-893.91 -893.91,-893.91z"/>
   <path fill="#3B4C58" fill-rule="nonzero" d="M3896.51 5448.82c-504.86,0 -915.59,-410.73 -915.59,-915.56 0,-504.86 410.73,-915.56 915.59,-915.56 504.83,0 915.56,410.73 915.56,915.56 -0.02,504.83 -410.73,915.56 -915.56,915.56zm0 -1770.62c-471.5,0 -855.08,383.58 -855.08,855.06 0,471.47 383.58,855.06 855.08,855.06 471.47,0 855.06,-383.58 855.06,-855.06 -0.03,-471.48 -383.61,-855.06 -855.06,-855.06z"/>
   <path fill="#ADBAC8" fill-rule="nonzero" d="M3915.48 5435.19c13.29,68.87 20.81,139.26 20.23,209.46 -0.05,5.92 8.95,5.89 9.16,0 2.38,-72.29 -2.41,-141.98 -16.85,-212.92 -1.7,-8.21 -14.13,-4.72 -12.55,3.46l0 0z"/>
   <path fill="#ADBAC8" fill-rule="nonzero" d="M4016.86 5432.16c5.02,66 10.14,133.72 21.29,199 1.01,5.84 10.59,4.46 10.3,-1.4 -3.11,-66.13 -12.76,-133.32 -22,-198.9 -0.77,-5.39 -10.01,-4.17 -9.59,1.3l0 0z"/>
   <path fill="#ADBAC8" fill-rule="nonzero" d="M3660.46 3483.52c17.7,69.3 29.8,138.13 31.82,209.78 0.24,8.63 13.74,8.66 13.45,0 -2.38,-72.07 -12.36,-143.96 -34.57,-212.71 -2.2,-6.78 -12.48,-4.03 -10.7,2.93l0 0z"/>
   <path fill="#ADBAC8" fill-rule="nonzero" d="M3751.71 3481.6c-6.1,63.96 2.87,126.93 28.58,185.95 3.19,7.37 16.08,2.04 13.1,-5.52 -23.03,-58.44 -33.09,-117.64 -27.65,-180.43 0.79,-9.03 -13.18,-8.89 -14.02,0l0 0z"/>
   <path fill="#ADBAC8" fill-rule="nonzero" d="M2883.94 4936.44c-0.77,-10.03 86.99,-39.94 100.04,-45.38 26.43,-11.01 53.05,-21.63 79.13,-33.49 6.18,-2.79 1.77,-13.53 -4.67,-11.07 -34.97,13.39 -69.27,28.6 -103.76,43.1 -20.2,8.47 -58.28,16.48 -74.17,32.56 -11.49,11.62 -8.19,32.54 10.64,21.81 1.91,-1.08 2.49,-3.19 2.12,-5.23 -0.21,-1.16 -0.42,-2.35 -0.64,-3.51 -0.87,-4.84 -9.05,-3.76 -8.68,1.21l0 0z"/>
   <path fill="#ADBAC8" fill-rule="nonzero" d="M2913.87 4996.92c25.61,-22.71 53.19,-42.47 83.56,-58.31 30.76,-16.03 63.27,-23.72 95.21,-36.1 3.03,-1.19 3.01,-6.58 -0.85,-6.23 -67.48,6.02 -134.85,50.5 -182.95,95.64 -3.31,3.13 1.65,8.02 5.03,5.01l0 0z"/>
   <path fill="#ADBAC8" fill-rule="nonzero" d="M4729.15 4215.67c51.24,-18.52 101.73,-40.97 151.62,-62.89 5.76,-2.54 1.59,-12.68 -4.33,-10.27 -50.39,20.73 -101.61,41.51 -150.49,65.58 -4.14,2.06 -1.22,9.19 3.19,7.58l0 0z"/>
   <path fill="#ADBAC8" fill-rule="nonzero" d="M4747.01 4292.18c61.19,-39.01 127.3,-67.53 189.47,-104.21 2.95,-1.75 1.03,-6.76 -2.41,-5.68 -67.8,21.81 -132.16,63.62 -191.71,101.97 -4.91,3.19 -0.34,11.09 4.65,7.92l0 0z"/>
   <path fill="#C9D3C8" fill-rule="nonzero" d="M2334.47 3459.73c-915.77,732.6 -1549.33,1758.82 -1995.11,2831.08 -130.07,312.88 -235.82,631.31 -338.39,953.89 -7.08,22.24 26.86,31 34.6,9.53 393.96,-1088.74 895.44,-2183.37 1664.32,-3061.06 199.67,-227.93 417.36,-439.2 651.41,-631.5 -17.82,-29.94 -23.42,-67.26 -16.82,-101.93z"/>
   <path fill="#672214" fill-rule="nonzero" d="M15.31 7284.34c72.1,256.76 229.42,469.08 445.54,623.76 23.27,16.64 46.72,-22.69 22.58,-38.64 -210.39,-139.21 -362.67,-353.53 -436.54,-593.81 -6.15,-20.12 -37.31,-11.72 -31.58,8.69l0 0z"/>
   <path fill="#672214" fill-rule="nonzero" d="M477.38 7929.1c290.75,-37.92 580.94,-158.12 846.19,-278.86 137.04,-62.38 271.03,-131.34 401.15,-207.13 130.86,-76.25 269.33,-155.4 384.93,-253.83 32.75,-27.86 -9.43,-80.26 -45.38,-58.81 -125.24,74.74 -242.21,163.03 -368.48,236.85 -126.08,73.72 -255.47,142.01 -387.7,204.05 -133.27,62.54 -269.62,118.47 -408.07,168.49 -141.66,51.21 -288.11,88.9 -429.06,141.77 -23.27,8.75 -22.66,51.28 6.42,47.47l0 0z"/>
   <path fill="#672214" fill-rule="nonzero" d="M138.12 7249.84c23.03,136.12 94.84,269.25 178.62,377.27 73.77,95.11 187.75,220.13 306.7,256.44 17.01,5.2 31.93,-18.57 17.91,-30.74 -45.98,-39.83 -102.76,-65.89 -150.49,-104.32 -53.05,-42.73 -100.84,-91.98 -143.12,-145.37 -86.76,-109.55 -135.69,-230.35 -178.46,-361.9 -6.5,-20.09 -34.6,-11.67 -31.16,8.61l0 0z"/>
   <path fill="#F7941E" fill-rule="nonzero" d="M138.36 7239.6c193.8,-379.41 410.36,-747.12 651.18,-1098.61 123.13,-179.72 252.32,-355.32 387.5,-526.2 128.7,-162.66 276.7,-312.56 400.7,-478.24 13.74,-18.36 -15.08,-38.03 -30.63,-23.64 -155.16,143.86 -287.11,326.01 -417.65,492.08 -128.65,163.64 -252.08,331.35 -369.96,502.91 -243.88,355 -463.24,726.18 -656.3,1111.16 -11.74,23.33 23.2,43.98 35.17,20.55l0 0z"/>
   <path fill="#802F22" fill-rule="nonzero" d="M1545.95 5025.84c-26.51,44.24 0.34,103.02 47.03,120.72 49.55,18.81 94.92,-20.04 102.68,-68.3 7.74,-48.2 -21.71,-94.79 -72.23,-99.36 -42.04,-3.8 -108.54,28.21 -97.85,79.24 1.4,6.68 11.41,9.61 15.92,4.2 19.46,-23.3 34.57,-47.38 67.9,-50.21 31.08,-2.65 54.01,19.62 53.66,50.58 -0.32,26.86 -19.13,58.71 -49.94,53.85 -31.88,-5.02 -54.72,-45.48 -38.06,-73.77 11,-18.68 -17.98,-35.56 -29.12,-16.96l0 0z"/>
   <path fill="#F7941E" fill-rule="nonzero" d="M2151.96 4455.88c-77.81,74.31 -149.11,159.78 -221.51,236.66 -87.15,92.57 -193.11,181.65 -264.84,286.55 -7.53,10.99 7.74,26.94 18.81,18.81 105.96,-78.04 194.91,-191.53 287.61,-284.78 66.5,-66.93 139.66,-133.67 205.11,-204.79 -12.53,-15.2 -20.81,-33.22 -25.17,-52.44z"/>
   <path fill="#802F22" fill-rule="nonzero" d="M332.11 6887.2c96.6,255.13 247.33,532.32 457.96,712.15 5.55,4.73 12.55,-2.38 7.95,-7.95 -90.67,-109.31 -186.03,-210.02 -263.55,-330.24 -76.64,-118.84 -139.26,-245.37 -189.53,-377.53 -3.03,-7.9 -15.87,-4.46 -12.83,3.56l0 0z"/>
   <path fill="#802F22" fill-rule="nonzero" d="M807.41 7584.58c127.48,25.24 258.19,-20.15 354.22,-104.51 6.95,-6.1 -3.22,-16.16 -10.14,-10.14 -99.28,86.54 -213.66,113.9 -342.68,104.19 -5.94,-0.45 -7.29,9.29 -1.4,10.46l0 0z"/>
   <path fill="#802F22" fill-rule="nonzero" d="M588.6 6357.79c104.85,402.89 284.33,780.77 536.89,1112.62 7.61,9.98 24.77,0.21 17.09,-9.98 -249.08,-331 -436.49,-704.76 -545.72,-1104.9 -1.46,-5.34 -9.66,-3.09 -8.26,2.27l0 0z"/>
   <path fill="#7F8B7F" fill-rule="nonzero" d="M1086.8 6900.07c-32.7,39.09 -16.64,100.47 26.01,125.79 44.93,26.67 93.2,-5.07 105.48,-51.4 12.44,-46.9 -13.75,-101.02 -67.45,-99.17 -48.12,1.67 -104.96,54.72 -81.55,105.25 2.28,4.91 10.8,2.57 10.33,-2.79 -3.77,-43.29 23.46,-87.81 71.25,-90.06 46.17,-2.17 66.58,44.45 56.44,83.75 -10.19,39.54 -49.89,68.22 -89.19,45.4 -36.81,-21.39 -53.98,-76.91 -25.88,-111.32 3.08,-3.78 -2.25,-9.25 -5.44,-5.45l0 0z"/>
   <path fill="#7F8B7F" fill-rule="nonzero" d="M1220.81 6906.52c287.56,-191.9 583.51,-383 852.68,-600.33 5.57,-4.51 -1.75,-13.99 -7.69,-9.98 -287.45,194.12 -563.28,405.63 -851.47,599.2 -6.84,4.58 -0.44,15.7 6.48,11.11l0 0z"/>
   <path fill="#802F22" fill-rule="nonzero" d="M383.33 6975.63c71.33,-148.24 160.07,-274.88 290.83,-376.92 5.26,-4.09 -2.12,-11.33 -7.32,-7.32 -126.51,98.25 -234.89,229.61 -290.11,381.47 -1.4,3.8 4.83,6.47 6.6,2.77l0 0z"/>
   <path fill="#802F22" fill-rule="nonzero" d="M25.05 7273.72c23.8,-7.08 47.59,-14.18 71.36,-21.26 20.78,-6.18 43.47,-10.27 62.44,-20.89 3.91,-2.2 2.41,-9.19 -2.38,-8.79 -21.71,1.8 -42.7,10.99 -63.41,17.46 -23.69,7.42 -47.4,14.84 -71.1,22.24 -7.13,2.25 -4.11,13.42 3.09,11.25l0 0z"/>
   <path fill="#802F22" fill-rule="nonzero" d="M1583.13 4993.72c-69.85,-197.28 -87.18,-389.52 -63.57,-592.72 -4.75,4.06 -9.56,7.98 -14.89,11.15 -30.55,194.83 -4.88,403.1 65.23,585.23 3.09,8.11 16.22,4.77 13.24,-3.65z"/>
   <path fill="#C9D3C8" fill-rule="nonzero" d="M7830.94 7244.69c-355.11,-1116.73 -845.6,-2203.2 -1619.66,-3096.4 -218.86,-252.56 -459.22,-485.69 -720.58,-694.07 -44.79,-35.71 -108.86,27.39 -63.62,63.62 914.09,731.62 1531.79,1741.25 1993.03,2803.48 133.22,306.78 262.41,618.38 376.22,932.89 7.77,21.45 41.7,12.76 34.63,-9.53l0 0z"/>
   <path fill="#672214" fill-rule="nonzero" d="M7784.98 7275.63c-73.85,240.3 -226.13,454.62 -436.51,593.81 -24.12,15.95 -0.69,55.3 22.58,38.64 216.15,-154.69 373.44,-367 445.54,-623.76 5.73,-20.37 -25.43,-28.82 -31.61,-8.69l0 0z"/>
   <path fill="#672214" fill-rule="nonzero" d="M7360.94 7881.67c-136.8,-51.32 -278.94,-88.03 -416.54,-137.31 -142.75,-51.13 -283.3,-108.57 -420.59,-172.99 -128.23,-60.16 -253.78,-126.21 -376.25,-197.34 -130.36,-75.72 -250.87,-166.55 -379.94,-243.56 -35.61,-21.23 -78.44,30.66 -45.38,58.81 112.35,95.66 246.54,172.62 373.49,247.09 133.72,78.44 271.53,149.64 412.61,213.87 265.21,120.72 555.44,240.91 846.19,278.86 28.79,3.73 29.9,-38.65 6.4,-47.44l0 0z"/>
   <path fill="#672214" fill-rule="nonzero" d="M7662.59 7241.24c-42.76,131.55 -91.59,252.38 -178.46,361.9 -39.88,50.29 -84.54,97.27 -134.25,138.02 -50.37,41.33 -110.55,69.35 -159.36,111.64 -14.02,12.15 0.87,35.94 17.91,30.74 119.19,-36.39 232.7,-161.29 306.7,-256.44 83.86,-107.78 155.61,-241.31 178.62,-377.27 3.46,-20.23 -24.62,-28.71 -31.16,-8.58l0 0z"/>
   <path fill="#F7941E" fill-rule="nonzero" d="M7728.75 7219.03c-193.06,-385.01 -412.5,-756.1 -656.3,-1111.16 -117.82,-171.59 -241.31,-339.26 -369.96,-502.91 -130.57,-166.07 -262.49,-348.2 -417.65,-492.08 -15.37,-14.26 -44.5,5.1 -30.63,23.64 123.99,165.7 272,315.55 400.7,478.24 135.16,170.88 264.37,346.48 387.5,526.2 240.81,351.49 457.38,719.2 651.18,1098.61 11.9,23.42 46.89,2.81 35.17,-20.55l0 0z"/>
   <path fill="#802F22" fill-rule="nonzero" d="M6256.88 5042.82c16.67,28.26 -6.18,68.74 -38.06,73.77 -30.79,4.86 -49.65,-26.99 -49.94,-53.85 -0.34,-31 22.42,-53.24 53.66,-50.58 33.17,2.82 48.49,26.99 67.9,50.21 4.51,5.39 14.52,2.49 15.92,-4.2 10.4,-49.73 -53.58,-82.16 -95.08,-79.55 -51.77,3.24 -82.96,50.23 -75,99.65 7.58,47.3 50.95,85.49 99.96,69.24 48.38,-16.03 76.62,-76.8 49.73,-121.7 -11.13,-18.54 -40.13,-1.72 -29.09,17.01l0 0z"/>
   <path fill="#F7941E" fill-rule="nonzero" d="M6166.3 4979.09c-71.76,-104.96 -177.67,-193.96 -264.84,-286.55 -93.28,-99.07 -184.66,-212.65 -290.59,-297.88 -15.95,-12.81 -46.12,4.44 -31.32,24.17 79.71,106.41 186.72,200.06 280.37,294.26 92.7,93.25 181.7,206.82 287.61,284.78 11.04,8.15 26.3,-7.78 18.78,-18.79l0 0z"/>
   <path fill="#802F22" fill-rule="nonzero" d="M7486.99 6883.67c-50.26,132.13 -112.85,258.66 -189.53,377.53 -77.52,120.19 -172.89,220.92 -263.55,330.24 -4.59,5.55 2.41,12.68 7.95,7.95 210.65,-179.88 361.32,-456.95 457.96,-712.15 3.02,-8.06 -9.81,-11.49 -12.83,-3.56l0 0z"/>
   <path fill="#802F22" fill-rule="nonzero" d="M7023.1 7574.11c-128.89,9.72 -243.21,-17.49 -342.68,-104.19 -6.92,-6.02 -17.09,4.01 -10.14,10.14 96.01,84.33 226.73,129.75 354.22,104.51 5.84,-1.17 4.6,-10.91 -1.4,-10.46l0 0z"/>
   <path fill="#802F22" fill-rule="nonzero" d="M7235.04 6355.51c-109.23,400.14 -296.67,773.9 -545.72,1104.9 -7.69,10.19 9.48,19.99 17.09,9.98 252.56,-331.85 432.04,-709.72 536.89,-1112.62 1.4,-5.32 -6.82,-7.6 -8.26,-2.27l0 0z"/>
   <path fill="#7F8B7F" fill-rule="nonzero" d="M6739.69 6905.51c28.1,34.42 10.93,89.9 -25.88,111.32 -39.3,22.85 -79,-5.86 -89.19,-45.4 -10.14,-39.3 10.27,-85.91 56.44,-83.75 47.8,2.25 75,46.77 71.25,90.06 -0.48,5.36 8.06,7.72 10.33,2.79 23.38,-50.5 -33.44,-103.58 -81.55,-105.25 -53.72,-1.85 -79.91,52.23 -67.45,99.17 12.31,46.33 60.56,78.07 105.48,51.4 42.68,-25.32 58.73,-86.68 26.01,-125.79 -3.22,-3.79 -8.56,1.68 -5.44,5.45l0 0z"/>
   <path fill="#7F8B7F" fill-rule="nonzero" d="M6617.59 6895.42c-288.19,-193.56 -563.99,-405.1 -851.47,-599.2 -5.89,-3.99 -13.34,5.41 -7.72,9.98 269.17,217.3 565.13,408.44 852.68,600.33 6.93,4.58 13.35,-6.51 6.51,-11.11l0 0z"/>
   <path fill="#802F22" fill-rule="nonzero" d="M7455.17 6972.83c-55.22,-151.86 -163.61,-283.19 -290.11,-381.47 -5.18,-4.04 -12.57,3.22 -7.32,7.32 130.78,102.07 219.5,228.71 290.83,376.92 1.77,3.69 8.03,1.11 6.6,-2.77l0 0z"/>
   <path fill="#802F22" fill-rule="nonzero" d="M7809.94 7262.47c-23.69,-7.42 -47.4,-14.84 -71.1,-22.24 -20.73,-6.5 -41.72,-15.66 -63.41,-17.46 -4.78,-0.4 -6.31,6.63 -2.38,8.79 18.99,10.62 41.64,14.71 62.44,20.89 23.8,7.08 47.59,14.18 71.36,21.26 7.22,2.17 10.25,-9 3.09,-11.25l0 0z"/>
   <path fill="#802F22" fill-rule="nonzero" d="M6314.33 4417.66c20.78,197.1 2.41,384.14 -65.55,576.06 -2.98,8.42 10.11,11.78 13.26,3.64 68.01,-176.66 94.02,-377.9 67.64,-567.64 -5.57,-3.69 -10.62,-7.79 -15.34,-12.07z"/>
   <path fill="#F9ED32" fill-rule="nonzero" d="M3573.01 190.71c188.44,85.78 426.2,99.44 615.54,7.03 6.5,-3.17 1.96,-14.07 -4.94,-11.75 -205.56,69.38 -402.81,79.08 -606.28,-5.55 -5.8,-2.41 -10.1,7.67 -4.32,10.27l0 0z"/>
   <path fill="#5A645B" fill-rule="nonzero" d="M5125.44 8258.22c-811.56,249.08 -1688.81,222.41 -2497.89,-22.77 -5.68,24.01 -17.96,45.75 -35.02,64.33 -1.08,1.19 -2.49,1.96 -3.61,3.06 826.33,254.12 1726.76,282.96 2556.65,28.29 46.37,-14.2 26.56,-87.26 -20.13,-72.92z"/>
   <path fill="#7F8B7F" fill-rule="nonzero" d="M633.84 9144.5c270.89,-359.98 515,-735.68 815.47,-1073.34 296.03,-332.69 613.67,-634.01 961.1,-912.42 17.49,-13.99 -6,-44.93 -24.17,-31.32 -357.23,267.48 -682.55,587.97 -969.92,928.74 -286.02,339.18 -571.47,696.78 -793.95,1081.6 -4.44,7.64 6.44,13.4 11.46,6.74l0 0z"/>
   <path fill="#7F8B7F" fill-rule="nonzero" d="M627.9 9138.9c7.64,166.86 70.04,339.95 130.49,494.16 64.84,165.36 144.97,324.11 230.38,479.67 190.55,346.98 392.25,688.12 588.85,1031.69 13.86,24.25 51.48,2.38 37.5,-21.92 -190.76,-331.35 -384.88,-661.03 -570.94,-995.01 -83.41,-149.72 -163.19,-301.68 -231.65,-458.91 -75.74,-173.99 -116.6,-350.73 -168.1,-531.9 -2.51,-8.95 -16.95,-7.51 -16.53,2.22l0 0z"/>
   <path fill="#7F8B7F" fill-rule="nonzero" d="M1617.78 11168.9c75.98,70.25 164.54,110.9 266.85,128.23 86.41,14.63 205.95,21.21 282.75,-27.86 21.44,-13.71 13.94,-50.18 -13.42,-49.55 -87.52,1.98 -167.23,28.82 -257.02,16.85 -91.4,-12.18 -179.06,-48.51 -258.77,-94.1 -16.24,-9.32 -34.76,13.18 -20.39,26.43l0 0z"/>
   <path fill="#4F3C4E" fill-rule="nonzero" d="M2195.46 11257.46c-12.34,-295.18 -41.23,-589.96 -60.24,-884.93 -19.02,-295.13 -26.75,-591.32 -48.17,-886.2 -1.43,-19.67 -31.32,-20.2 -31.03,0 4.28,295.21 28.53,591.67 48.09,886.2 19.59,295.13 36.36,591.72 75.37,884.93 1.32,9.82 16.4,10.56 15.98,0l0 0z"/>
   <path fill="#4F3C4E" fill-rule="nonzero" d="M2034.35 9517.01c216.94,-519.83 447.39,-1035.34 736.5,-1519.89 12.52,-20.97 -20.89,-40.41 -32.64,-19.1 -273.13,495.22 -531.35,1000.63 -724.38,1533.33 -4.72,13.1 15.4,17.96 20.52,5.65l0 0z"/>
   <path fill="#4F3C4E" fill-rule="nonzero" d="M2829.51 7216.62c-66.98,249.93 -87.1,515.13 -80.15,772.95 0.45,16.72 26.57,16.74 25.99,0 -9.06,-260.67 21.13,-513.1 69.53,-768.72 1.9,-9.94 -12.68,-14.27 -15.37,-4.23l0 0z"/>
   <path fill="#646F65" fill-rule="nonzero" d="M2364.43 7147.14c170.53,-74.23 355.56,-83.06 460.3,92.94 6.76,11.38 26.14,3.99 21.87,-9.21 -66.98,-206.6 -340.8,-173.72 -489.94,-96.98 -8.95,4.62 -1.09,17.11 7.77,13.26l0 0z"/>
   <path fill="#646F65" fill-rule="nonzero" d="M1492.79 9419.93c43.21,-98.32 73.66,-201.77 116.71,-300.41 42.99,-98.51 90.93,-194.6 139.58,-290.43 95.87,-188.89 205.24,-370.7 322.2,-547.16 117.98,-177.98 244.22,-350.33 374.42,-519.5 67.24,-87.36 135.64,-173.8 204.52,-259.88 66.61,-83.22 142.22,-163.53 200.43,-252.83 22.58,-34.65 -28.08,-72.39 -56.6,-43.68 -78.71,79.24 -144.71,175.52 -214.05,263.02 -61.64,77.75 -122.81,155.93 -183.21,234.65 -135.16,176.29 -266.25,355.85 -388.31,541.5 -118.74,180.54 -228.47,367.15 -324.19,560.96 -44.95,91.03 -84.2,185.29 -120.48,280.11 -39.51,103.26 -84.01,210.65 -104.51,319.54 -3.53,18.82 24.55,34.45 33.5,14.11l0 0z"/>
   <path fill="#646F65" fill-rule="nonzero" d="M1442.53 9411.03c11.94,154.34 63.91,310.87 106.65,459.07 47.01,163.03 98.27,324.03 158.35,482.8 114.46,302.48 247.15,613.75 420.32,887.76 21.58,34.12 72.82,4.14 54.09,-31.61 -152.78,-291.6 -306.25,-575.82 -425.9,-883.71 -56.34,-144.97 -109.44,-292.28 -154.61,-441.13 -47.64,-156.98 -74.98,-323.02 -130.46,-476.99 -5.17,-14.35 -29.79,-13.56 -28.44,3.82l0 0z"/>
   <path fill="#7F8B7F" fill-rule="nonzero" d="M641.6 9161.48c119.21,87.63 253.78,151.67 393.46,199.45 68.06,23.3 137.76,41.64 208.16,56.26 64.36,13.34 145.1,38.9 209.41,18.52 30.42,-9.64 38,-52.37 9.03,-69.11 -56.34,-32.59 -129.43,-29.56 -192.85,-42.23 -66.16,-13.24 -131.42,-30.31 -196.01,-49.63 -139.32,-41.59 -271.95,-99.67 -403.79,-160.18 -32.01,-14.68 -55.65,26.2 -27.42,46.93l0 0z"/>
   <path fill="#4F3C4E" fill-rule="nonzero" d="M3015 7499.98c28.31,-192.5 24.22,-382.31 -115.31,-531.98 -113.77,-122.04 -295.03,-184.66 -455.44,-122.89 -161.29,62.12 -301.21,244.11 -262.28,422.83 5.31,24.41 44.29,19.02 43.52,-5.89 -6,-196.52 128.41,-381.79 338.26,-384.75 188.1,-2.65 357.44,152.68 395.07,332.38 43.68,208.56 -56.81,417.04 -34.84,626.9 11.28,107.67 64.41,220.61 -16.8,315.08 -71.55,83.22 -186.77,82.29 -272.03,25.46 -3.77,27.65 -15.16,53.98 -34.18,74.14 135.08,84.91 313.33,47.93 388.47,-103.47 41.96,-84.52 26.57,-167.55 8.55,-255.88 -26.88,-132.01 -2.33,-260.64 16.99,-391.92z"/>
   <path fill="#7F8B7F" fill-rule="nonzero" d="M801.52 9673.05c83.35,79.61 192.82,119.27 307.1,122.36 9.11,0.24 9.13,-13.97 0,-14.18 -113.88,-2.49 -213.18,-43.44 -302.19,-113.08 -3.41,-2.68 -8.25,1.74 -4.91,4.91l0 0z"/>
   <path fill="#7F8B7F" fill-rule="nonzero" d="M1101.33 9799.77c118.01,216.28 232.15,431.72 327.15,659.44 4.2,10.06 18.23,4.36 13.89,-5.86 -95.4,-225.68 -201.85,-450.88 -332.25,-658.72 -3.45,-5.56 -11.94,-0.65 -8.79,5.14l0 0z"/>
   <path fill="#7F8B7F" fill-rule="nonzero" d="M1150.72 10369.62c86.54,57.66 187.28,82.59 290.75,79.47 10.43,-0.32 10.48,-16.61 0,-16.24 -102.63,3.43 -196.01,-22.58 -285.6,-72.02 -5.79,-3.2 -10.59,5.17 -5.15,8.79l0 0z"/>
   <path fill="#7F8B7F" fill-rule="nonzero" d="M7122.59 9137.79c-222.46,-384.8 -507.85,-742.55 -793.95,-1081.6 -287.51,-340.72 -612.67,-661.24 -969.92,-928.74 -17.96,-13.45 -41.83,17.17 -24.17,31.32 347.43,278.41 665.06,579.74 961.1,912.42 300.44,337.66 544.58,713.37 815.47,1073.34 4.99,6.63 15.87,0.87 11.46,-6.74l0 0z"/>
   <path fill="#7F8B7F" fill-rule="nonzero" d="M7100.48 9136.65c-49.2,173.1 -87.58,342.57 -158.49,509.32 -70.3,165.33 -153.87,324.64 -241.23,481.48 -186.06,333.98 -380.2,663.69 -570.94,995.01 -13.97,24.28 23.61,46.2 37.5,21.92 196.6,-343.58 398.3,-684.71 588.85,-1031.69 83.27,-151.62 161.48,-306.3 225.41,-467.17 62.68,-157.69 127.64,-335.57 135.45,-506.63 0.44,-9.64 -13.98,-11.25 -16.55,-2.25l0 0z"/>
   <path fill="#646F65" fill-rule="nonzero" d="M6106.74 11142.46c-79.58,45.53 -167.45,82.14 -258.77,94.1 -89.56,11.75 -169.63,-14.87 -257,-16.85 -27.33,-0.64 -34.89,35.83 -13.42,49.55 76.88,49.12 196.2,42.49 282.75,27.86 102.2,-17.3 190.89,-57.97 266.85,-128.23 14.2,-13.15 -3.99,-35.83 -20.41,-26.43l0 0z"/>
   <path fill="#4F3C4E" fill-rule="nonzero" d="M5565.44 11257.46c39.01,-293.18 55.75,-589.8 75.37,-884.93 19.57,-294.52 43.81,-590.99 48.09,-886.2 0.29,-20.15 -29.58,-19.7 -31.03,0 -21.42,294.87 -29.13,591.07 -48.17,886.2 -19.02,294.97 -47.88,589.72 -60.24,884.93 -0.4,10.53 14.68,9.82 15.98,0l0 0z"/>
   <path fill="#4F3C4E" fill-rule="nonzero" d="M5731.08 9511.36c-193.03,-532.69 -451.25,-1038.11 -724.38,-1533.33 -11.75,-21.29 -45.16,-1.91 -32.64,19.1 289.14,484.58 519.57,1000.05 736.5,1519.89 5.13,12.29 25.28,7.48 20.52,-5.65l0 0z"/>
   <path fill="#4F3C4E" fill-rule="nonzero" d="M4900.03 7220.88c48.43,255.63 78.63,508.03 69.53,768.72 -0.58,16.72 25.54,16.74 25.99,0 6.95,-257.84 -13.18,-523.03 -80.15,-772.95 -2.67,-10.03 -17.25,-5.75 -15.37,4.23l0 0z"/>
   <path fill="#4F3C4E" fill-rule="nonzero" d="M5388.27 7133.88c-149.22,-76.8 -422.93,-109.68 -489.94,96.98 -4.25,13.1 15.02,20.7 21.87,9.21 104.88,-176.24 289.98,-167.08 460.3,-92.94 8.85,3.86 16.72,-8.62 7.77,-13.26l0 0z"/>
   <path fill="#646F65" fill-rule="nonzero" d="M6285.65 9405.82c-37.63,-199.85 -130.86,-405.66 -219.26,-588.05 -96.09,-198.24 -208.93,-388.57 -329.92,-572.55 -119.66,-181.99 -247.99,-358.15 -380.36,-531.08 -62.97,-82.27 -126.8,-163.87 -191.16,-245.06 -69.32,-87.44 -135.43,-183.87 -214.05,-263.02 -28.26,-28.45 -79.39,8.68 -56.6,43.68 55.83,85.7 128.28,162.79 192.24,242.63 71.65,89.43 142.8,179.27 212.71,270.07 130.23,169.16 256.47,341.54 374.42,519.5 117,176.47 226.34,358.31 322.2,547.16 46.7,91.98 92.83,184.19 134.41,278.63 45.11,102.44 76.96,209.94 121.89,312.22 8.83,20.13 37.04,4.87 33.48,-14.12l0 0z"/>
   <path fill="#646F65" fill-rule="nonzero" d="M6273.97 9407.17c-53.93,149.7 -80.63,311.14 -126.51,463.85 -46.06,153.36 -100.57,305.07 -158.57,454.28 -119.64,307.86 -273.11,592.12 -425.9,883.71 -18.73,35.71 32.48,65.79 54.09,31.61 173.18,-274.01 305.88,-585.28 420.32,-887.76 58.44,-154.47 108.41,-311.06 154.53,-469.61 44.26,-152.25 98.19,-313.54 110.48,-472.24 1.33,-17.22 -23.24,-18.3 -28.44,-3.85l0 0z"/>
   <path fill="#7F8B7F" fill-rule="nonzero" d="M7075.89 9114.54c-131.84,60.51 -264.47,118.58 -403.79,160.18 -64.62,19.3 -129.88,36.39 -196.01,49.63 -63.41,12.68 -136.51,9.64 -192.85,42.23 -29,16.77 -21.42,59.47 9.03,69.11 61.3,19.41 134.57,-3.54 196.2,-15.87 74.95,-15 149.06,-34.18 221.4,-58.92 139.64,-47.77 274.27,-111.88 393.46,-199.45 28.2,-20.68 4.61,-61.62 -27.45,-46.91l0 0z"/>
   <path fill="#4F3C4E" fill-rule="nonzero" d="M5353.86 6870.8c-145.21,-84.41 -326.2,-54.4 -454.52,47.4 -158.67,125.9 -201.16,312.93 -179.35,506.92 12.97,115.12 40.62,229.08 40.04,345.42 -0.53,105.86 -52.31,213.45 -26.17,319.04 46.25,186.88 249.48,257.15 404.13,165.25 -6.6,-4.49 -13,-9.37 -18.99,-14.89 -14.84,-13.63 -24.41,-31.19 -30.55,-50 -82.51,43.79 -184.39,37.5 -250.74,-38.29 -78.65,-89.88 -31.64,-198.92 -18.54,-301.9 27.2,-214.32 -77.67,-427.16 -33.09,-640.06 36.92,-176.34 200.49,-329.15 384.61,-332.48 214.27,-3.85 354.82,184.79 348.73,384.85 -0.74,24.67 38.16,30.53 43.52,5.89 35.15,-161.08 -74.85,-319.14 -209.07,-397.16z"/>
   <path fill="#7F8B7F" fill-rule="nonzero" d="M6938.51 9668.16c-89,69.64 -188.23,110.61 -302.19,113.08 -9.11,0.21 -9.13,14.42 0,14.18 114.28,-3.09 223.72,-42.73 307.1,-122.36 3.29,-3.19 -1.51,-7.61 -4.91,-4.91l0 0z"/>
   <path fill="#7F8B7F" fill-rule="nonzero" d="M6634.78 9794.62c-130.38,207.82 -236.85,433.05 -332.25,658.72 -4.25,10.09 9.64,16.06 13.89,5.86 94.97,-227.69 209.14,-443.16 327.15,-659.44 3.17,-5.75 -5.3,-10.69 -8.79,-5.14l0 0z"/>
   <path fill="#7F8B7F" fill-rule="nonzero" d="M6589.07 10360.83c-89.61,49.44 -182.81,75.45 -285.6,72.02 -10.46,-0.34 -10.46,15.92 0,16.24 103.47,3.14 204.21,-21.79 290.75,-79.47 5.42,-3.62 0.64,-12.02 -5.15,-8.79l0 0z"/>
   <path fill="#802F22" fill-rule="nonzero" d="M2228.89 9175.08c250.81,111.43 543.63,161.26 813.46,203.02 273.56,42.33 549.94,66.08 826.73,70.2 282.54,4.22 565.34,-11.75 845.58,-47.91 132.16,-17.06 263.76,-38.19 394.51,-64.02 142.62,-28.15 296.03,-52.74 431.55,-106.28 43.92,-17.35 27.39,-78.41 -19.46,-70.65 -136.33,22.61 -270.34,66.71 -406.08,94.34 -141.72,28.84 -284.54,52.55 -428.06,70.51 -266.59,33.36 -535.45,48.49 -804.12,45.38 -274.35,-3.19 -548.67,-25.14 -819.88,-66.85 -137.41,-21.13 -274.16,-46.04 -409.88,-76.22 -135.16,-30.06 -270.07,-70.7 -406.35,-94.21 -23.77,-4.08 -44.08,31.09 -17.99,42.69l0 0z"/>
   <path fill="#7F8B7F" fill-rule="nonzero" d="M3082.44 7653.03c-61.56,33.41 -33.62,130.65 9.56,166.89 53.4,44.82 127.54,22.4 160.58,-35.39 33.33,-58.31 18.62,-136.2 -46.22,-164.38 -54.4,-23.67 -149.33,-5.81 -160.42,62.97 -1.67,10.27 9.45,17.91 17.78,10.35 31.19,-28.31 67.27,-51.35 111.4,-40.09 47.11,12.02 63.59,59.9 43.68,102.02 -18.54,39.27 -65.6,60.8 -100.57,27.55 -33.44,-31.8 -27.89,-68.27 -11.91,-106.07 6.46,-15.38 -7.3,-32.87 -23.89,-23.86l0 0z"/>
   <path fill="#7F8B7F" fill-rule="nonzero" d="M3221.52 7729.03c412.16,192.88 888.09,214.93 1316.11,59.98 25.56,-9.24 14.5,-50.42 -11.3,-41.02 -418.15,152.23 -882.48,135.75 -1288.4,-47.01 -18.84,-8.49 -35.43,19.13 -16.41,28.05l0 0z"/>
   <path fill="#7F8B7F" fill-rule="nonzero" d="M4549.9 7631.32c-51.9,44.56 -64.36,131.36 -9.51,179.38 49.23,43.07 121.2,25.09 142.54,-36.71 16.85,-48.78 17.41,-148.98 -34.55,-177.32 -43.34,-23.64 -138.63,12.34 -139.45,66.63 -0.11,6.63 5.92,13.02 12.71,12.71 31.95,-1.48 51.5,-33.01 81.92,-40.83 47.48,-12.23 45.96,61.22 42.91,92.73 -3.54,36.55 -28.92,80.65 -70.91,52.66 -47.3,-31.53 -20.15,-90.62 -0.61,-129.91 8.18,-16.44 -11.19,-31.26 -25.05,-19.34l0 0z"/>
   <path fill="#802F22" fill-rule="nonzero" d="M2095.47 9468.39c218.81,89.32 466.91,133.75 698.84,174.46 228.87,40.2 460.04,67.51 691.97,81.79 467.33,28.82 937.72,4.51 1399.66,-71.84 269.17,-44.48 534.84,-107.38 795.71,-187.06 19.23,-5.86 11.01,-36.13 -8.31,-30.19 -904.32,277.55 -1869.27,343.58 -2802.98,190.89 -127.7,-20.89 -254.86,-45.4 -381.1,-73.93 -130.54,-29.5 -259.35,-70.2 -390.58,-95.85 -7.82,-1.5 -10.37,8.8 -3.21,11.71l0 0z"/>
   <path fill="#802F22" fill-rule="nonzero" d="M2368.17 9547.65c11.49,-105.38 13.42,-212.49 18.73,-318.35 0.71,-13.89 -20.76,-13.78 -21.58,0 -6.23,105.75 -16.06,212.41 -16.06,318.35 0.01,12.45 17.63,11.84 18.92,0l0 0z"/>
   <path fill="#802F22" fill-rule="nonzero" d="M2412.33 9184.8c152.73,-280 311.59,-554.93 478.32,-826.86 7.58,-12.39 -11.62,-23.48 -19.38,-11.33 -171.03,267.8 -329.41,546.62 -471.42,830.87 -4.15,8.29 7.98,15.56 12.49,7.32l0 0z"/>
   <path fill="#802F22" fill-rule="nonzero" d="M5319.06 9248.1c12.94,90.9 27.12,176.61 20.52,268.86 -1.98,27.6 41.7,27.76 43.13,0 4.73,-91.3 0.08,-191.21 -34.6,-276.86 -7.35,-18.12 -31.81,-11.25 -29.06,8l0 0z"/>
   <path fill="#802F22" fill-rule="nonzero" d="M4869.68 8375.67c122.81,108.76 185.03,264.16 254.12,409.1 79.91,167.6 155.4,333.48 223.67,505.86 2.54,6.42 14.39,6.47 13.34,-1.8 -9.98,-78.34 -45.8,-152.41 -79.02,-223.37 -43.52,-92.99 -89.14,-185.05 -134.25,-277.29 -73.21,-149.7 -138.66,-311.51 -267.24,-423.12 -7.25,-6.36 -17.91,4.15 -10.62,10.62l0 0z"/>
   <path fill="#802F22" fill-rule="nonzero" d="M3796.63 9698.32c-3.38,-25.4 -4.67,-51.03 -2.57,-76.62 2.12,-25.54 10.78,-49.89 12.57,-75.21 0.4,-5.41 -7.37,-7.03 -9.9,-2.7 -25.56,43.66 -21.58,108.36 -13.74,156.35 1.22,7.67 14.66,5.95 13.64,-1.82l0 0z"/>
   <path fill="#802F22" fill-rule="nonzero" d="M3803.23 9546.17c132.9,16.37 269.6,17.59 403.34,14.31 37.82,-0.93 165.33,-25.27 188.18,2.65 8.03,9.82 0.98,63.72 2.09,76.14 2.35,26.51 6.82,52.34 12.55,78.34 3.22,14.63 24.73,8.26 22.21,-6.13 -10.14,-58.23 -14.95,-114.7 -11.36,-173.7 0.37,-6.26 -5.86,-12.52 -12.12,-12.12 -202.7,13.02 -402.18,8.55 -604.9,2.79 -11.68,-0.34 -10.97,16.35 0.02,17.72l0 0z"/>
   <path fill="#802F22" fill-rule="nonzero" d="M3435.65 8456.38c-15.66,101.78 -42.04,216.38 -36.39,319.09 0.48,8.82 13.1,11.04 15.66,2.12 28.66,-99.17 28.58,-216.44 36.1,-319.12 0.66,-8.69 -14.02,-10.86 -15.37,-2.09l0 0z"/>
   <path fill="#802F22" fill-rule="nonzero" d="M3385.29 8809.03c154.05,92.06 354.87,107.15 526.94,67.11 15.42,-3.59 8.87,-26.91 -6.53,-23.64 -182.52,38.64 -343.05,8.55 -513.37,-60.19 -9.82,-3.98 -15.68,11.57 -7.05,16.72l0 0z"/>
   <path fill="#802F22" fill-rule="nonzero" d="M3931.35 8883.45c19.1,-129.96 20.36,-264.32 28.79,-395.33 0.79,-12.52 -18.7,-12.49 -19.49,0 -8.37,130.31 -24.41,263.05 -22.08,393.62 0.16,6.97 11.68,9.21 12.79,1.71l0 0z"/>
   <path fill="#802F22" fill-rule="nonzero" d="M3954.88 8706.54c20.54,-0.08 41.15,0.93 61.41,-3.06 3.24,-0.64 3.24,-5.92 0,-6.55 -20.25,-3.99 -40.89,-3.01 -61.41,-3.06 -8.16,-0.05 -8.19,12.71 0,12.68l0 0z"/>
   <path fill="#802F22" fill-rule="nonzero" d="M3983.46 8705.64c112.25,24.79 224.57,27.12 337.79,7.32 13.81,-2.41 8.01,-23.61 -5.81,-21.07 -109.58,20.07 -217.88,18.44 -326.88,-4.75 -12.02,-2.57 -17.2,15.84 -5.1,18.51l0 0z"/>
   <path fill="#802F22" fill-rule="nonzero" d="M4344.41 8703.28c24.74,-76.64 15.16,-159.76 -15,-233.37 -5.12,-12.47 -25.64,-7.08 -20.52,5.65 29.77,73.74 31.85,145.6 19.27,223.22 -1.69,10.54 12.87,15.01 16.25,4.49l0 0z"/>
   <path fill="#E0E5DF" fill-rule="nonzero" d="M5734.75 5619.91c-275.86,464.19 -845.58,647.21 -1355.2,701.01 -563.88,59.5 -1162.08,-6.63 -1690.37,-217.04 -225.84,-89.93 -466.77,-213.61 -613.4,-414.43 -14.42,-19.72 -47.69,-0.71 -33.17,19.38 127.83,176.87 322.04,300.7 517.14,391.51 255.6,118.95 531,193.56 808.55,239.7 583.27,96.92 1223.2,89.11 1773.34,-150.38 248.95,-108.36 473.62,-273.19 622.44,-501.03 -16.13,-19.34 -25.87,-43.51 -29.34,-68.73z"/>
   <path fill="#7F8B7F" fill-rule="nonzero" d="M5734.75 5583.83c-275.86,464.19 -845.58,647.21 -1355.2,701.01 -563.88,59.5 -1162.08,-6.63 -1690.37,-217.04 -225.84,-89.93 -466.77,-213.58 -613.4,-414.43 -14.42,-19.72 -47.69,-0.74 -33.17,19.38 127.83,176.87 322.04,300.7 517.14,391.51 255.6,118.95 531,193.56 808.55,239.7 583.27,96.92 1223.2,89.11 1773.34,-150.38 248.95,-108.36 473.62,-273.19 622.44,-501.03 -16.13,-19.37 -25.87,-43.51 -29.34,-68.73z"/>
   <path fill="#7F8B7F" fill-rule="nonzero" d="M4611.81 1961.63c146.44,499.39 297.65,994.45 412.71,1502.54 115.68,510.75 207.03,1027.07 274.38,1546.4 37.74,291.07 67.32,583.09 90.09,875.72 0.77,9.8 16.11,9.88 15.37,0 -78.15,-1037.05 -255.1,-2066.15 -526.54,-3070.1 -77.7,-287.32 -157.67,-576.51 -259.17,-856.46 -1.56,-4.22 -8.16,-2.56 -6.84,1.91l0 0z"/>
   <path fill="#7F8B7F" fill-rule="nonzero" d="M5426.97 6097.83c4.78,151.54 12.15,302.58 10.85,454.31 -1.27,151.51 -16.82,302.77 -17.8,454.02 -0.03,4.12 6.74,5.31 7.4,1.01 21.87,-144.15 21.26,-294.76 22.82,-440.37 1.69,-156.06 0,-313.46 -14.42,-468.97 -0.5,-5.58 -9.03,-5.79 -8.84,-0.01l0 0z"/>
   <path fill="#7F8B7F" fill-rule="nonzero" d="M3553.13 167.32c-506.39,827.02 -844.52,1744.48 -1086.65,2680.33 -238.99,923.62 -402.31,1879.75 -458.8,2832.48 -33.12,558.71 -29.9,1120.11 59.5,1673.78 7.74,47.93 80.63,27.6 72.95,-20.09 -155.85,-965.21 -63.46,-1962.89 85.1,-2922.98 143.46,-927.18 356.96,-1847.88 681.99,-2729.16 188.73,-511.73 426.34,-1010.85 711.26,-1476.18 25.45,-41.6 -39.94,-79.66 -65.34,-38.17l0 0z"/>
   <path fill="#7F8B7F" fill-rule="nonzero" d="M4190.04 205.51c475.99,804.86 811.08,1682.02 1049.84,2584.33 120.09,453.8 216.81,913.56 298.39,1375.77 86.49,490.15 158.06,981.41 187.12,1478.66 34.1,583.54 15.92,1169.55 -65.63,1748.63 -6.71,47.59 66.16,68.2 72.95,20.09 143.7,-1020.41 83.75,-2041.55 -85.02,-3054.58 -155.82,-935.37 -368.85,-1865.23 -705.61,-2753.35 -188.6,-497.42 -415.88,-979.69 -686.75,-1437.7 -24.75,-41.89 -90.17,-3.89 -65.29,38.15l0 0z"/>
   <path fill="url(#id16)" fill-rule="nonzero" d="M3638.7 362.01c0,0 -339.95,631.26 -691.71,1926.37 -395.31,1455.47 -553.53,2975.73 -507.42,4481.51 91.69,-39.72 191.68,-80.26 288.71,-56.42 56.52,13.89 105.59,48.49 150.57,85.46 104.06,85.54 186.43,200.93 222.17,332.4 22.82,83.96 -14.42,291.41 69.83,337.37 0,0 351.76,191.87 559.61,191.87 207.85,0 431.7,0 431.7,0 0,0 -111.93,-3805.33 -223.85,-5420.21 -111.93,-1614.88 -175.87,-1806.72 -175.87,-1806.72l-123.74 -71.62z"/>
  </g>
 </g>
</svg>
